<?xml version="1.0" standalone="no"?>
<!DOCTYPE svg PUBLIC "-//W3C//DTD SVG 1.1//EN" "http://www.w3.org/Graphics/SVG/1.1/DTD/svg11.dtd" >
<svg xmlns="http://www.w3.org/2000/svg">
<metadata>
Created by FontPrep 20130207 at Wed Nov 25 22:17:52 2015
 By Martin Campillo
Copyright (c) Mark Simonson 2009-2010. All rights reserved.
</metadata>
<defs>
<font id="867f8fb9ec1d85b0899f269a37e6cdda" horiz-adv-x='1024' >
  <font-face 
    font-family="AnonymousPro-Bold"
    font-weight="700"
    font-stretch="normal"
    units-per-em="2048"
    panose-1="2 6 8 9 3 2 2 0 5 4"
    ascent="1675"
    descent="-373"
    x-height="932"
    cap-height="1305"
    bbox="-186 -395 1151 1854"
    underline-thickness="123"
    underline-position="-126"
    unicode-range="U+000D-FB02"
  />
<missing-glyph 
d="M256 186h420v932h-420v-932zM883 0h-834v1305h834v-1305z" />
    <glyph glyph-name=".notdef" 
d="M256 186h420v932h-420v-932zM883 0h-834v1305h834v-1305z" />
    <glyph glyph-name=".null" 
 />
    <glyph glyph-name=".null" 
 />
    <glyph glyph-name="nonmarkingreturn" unicode="&#xd;" 
 />
    <glyph glyph-name="space" unicode=" " 
 />
    <glyph glyph-name="exclam" unicode="!" 
d="M592 0h-252v252h252v-252zM602 1305l-51 -932h-170l-51 932h272z" />
    <glyph glyph-name="quotedbl" unicode="&#x22;" 
d="M403 1305l-45 -500h-157l-45 500h247zM776 1305l-45 -500h-158l-45 500h248z" />
    <glyph glyph-name="numbersign" unicode="#" 
d="M559 373v187h-186v-187h186zM932 187h-187v-186h-186v186h-186v-186h-187v186h-186v186h186v187h-186v186h186v187h187v-187h186v187h186v-187h187v-186h-187v-187h187v-186z" />
    <glyph glyph-name="dollar" unicode="$" 
d="M229 995q0 -59 40 -98t104 -70v306q-144 -28 -144 -138zM723 307q0 105 -46 149t-118 79v-363q164 30 164 135zM373 1491h186v-174q156 -27 250 -131.5t102 -245.5l-194 -22q-23 165 -158 208v-374q176 -70 240.5 -129.5t97.5 -125t33 -144.5q0 -145 -98 -245t-273 -124
v-170h-186v170q-174 22 -275.5 126.5t-117.5 262.5l192 30q37 -192 201 -231v438q-66 27 -129.5 57.5t-142 102.5t-78.5 211t92 229t258 111v170z" />
    <glyph glyph-name="percent" unicode="%" 
d="M602 233q0 -43 31 -73.5t74 -30.5t73.5 30.5t30.5 73.5t-30.5 74t-73.5 31t-74 -31t-31 -74zM527.5 410.5q74.5 74.5 178.5 74.5t179.5 -74t75.5 -179t-75 -180t-180 -75t-179 75.5t-74 179.5t74.5 178.5zM125 1075q0 -43 30.5 -73.5t73.5 -30.5t74 30.5t31 73.5t-31 74
t-74 31t-73.5 -31t-30.5 -74zM50.5 1253q75.5 74 179.5 74t178.5 -74.5t74.5 -178.5t-74 -179.5t-179 -75.5t-180 75t-75 180t75.5 179zM954 1257l-835 -1298l-137 88l837 1303z" />
    <glyph glyph-name="ampersand" unicode="&#x26;" 
d="M227 996q0 -60 10.5 -104t47.5 -95q89 58 134.5 111.5t45.5 114.5q0 60 -32 89t-84 29t-87 -42.5t-35 -102.5zM182 368q0 -96 56 -150t128 -54q123 0 216 84l-314 305h-2q-84 -89 -84 -185zM-25 325q0 140 48.5 223t115.5 142q-119 150 -119 299t94.5 243.5t233.5 94.5
t231.5 -79.5t92.5 -215.5q0 -166 -108.5 -249t-155.5 -115l284 -269q44 89 76 213l188 -47q-37 -169 -122 -299l157 -145l-129 -148l-149 146q-155 -142 -334 -142t-291.5 104t-112.5 244z" />
    <glyph glyph-name="quotesingle" unicode="'" 
d="M590 1305l-45 -500h-158l-45 500h248z" />
    <glyph glyph-name="parenleft" unicode="(" 
d="M476.5 117q101.5 -217 283.5 -359l-127 -127q-319 250 -382 525.5t-63 477.5t116 452t329 417l127 -127q-180 -139 -282.5 -357.5t-102.5 -451.5t101.5 -450z" />
    <glyph glyph-name="parenright" unicode=")" 
d="M458.5 1016.5q-102.5 218.5 -282.5 357.5l127 127q205 -161 325 -412.5t120 -592.5t-169 -562t-276 -305l-127 127q182 142 283.5 359t101.5 450t-102.5 451.5z" />
    <glyph glyph-name="asterisk" unicode="*" 
d="M537 591l282 196l99 -174l-310 -147l310 -146l-99 -174l-282 197l28 -342h-198l28 342l-282 -197l-99 174l310 146l-310 147l99 174l282 -196l-28 342h198z" />
    <glyph glyph-name="plus" unicode="+" 
d="M932 385h-373v-372h-186v372h-373v187h373v372h186v-372h373v-187z" />
    <glyph glyph-name="comma" unicode="," 
d="M641 187l-274 -559h-158l186 559h246z" />
    <glyph glyph-name="hyphen" unicode="-" 
d="M0 385v186h932v-186h-932z" />
    <glyph glyph-name="period" unicode="." 
d="M592 0h-252v252h252v-252z" />
    <glyph glyph-name="slash" unicode="/" 
d="M778 1366l154 -76l-766 -1542l-154 76z" />
    <glyph glyph-name="zero" unicode="0" 
d="M760 651q0 86 -12 166l-508 -510q75 -143 227 -143q231 0 262 200.5t31 286.5zM473 1141q-149 0 -224 -129t-75 -359q0 -92 12 -178l512 514q-76 152 -225 152zM-33 653q0 131 28 253t87 215t154.5 149.5t230.5 56.5t230.5 -56.5t155.5 -149.5t87 -215t27 -253
t-27 -252.5t-86 -216t-154.5 -151t-232.5 -56.5t-232.5 56.5t-155 151t-86 216t-26.5 252.5z" />
    <glyph glyph-name="one" unicode="1" 
d="M778 0h-626v186h210v742q-41 -145 -170 -174t-192 -29v207q147 0 254.5 97t107.5 276h207v-1119h209v-186z" />
    <glyph glyph-name="two" unicode="2" 
d="M696 186v179h187v-365h-840v195l526 503q129 133 129 239t-63.5 155t-170.5 49q-106 0 -176.5 -72t-70.5 -213h-194q0 221 117.5 346t340.5 125q177 0 300.5 -99t123.5 -282.5t-184 -367.5l-408 -392h383z" />
    <glyph glyph-name="three" unicode="3" 
d="M496 1141q-254 0 -254 -279h-197q0 224 122 344.5t311 120.5t303 -100.5t114 -268.5q0 -112 -68.5 -192t-187.5 -88q129 -11 205 -104t76 -200q0 -187 -125.5 -292t-309.5 -105t-313.5 107.5t-144.5 325.5l194 32q10 -129 83.5 -203.5t181.5 -74.5t167.5 52t59.5 154
t-76 151.5t-266 49.5v187q216 0 266.5 75t50.5 141t-49 116.5t-143 50.5z" />
    <glyph glyph-name="four" unicode="4" 
d="M514 535v526l-328 -526h328zM932 0h-627v186h209v162h-514v187l477 770h242v-770h213v-187h-213v-162h213v-186z" />
    <glyph glyph-name="five" unicode="5" 
d="M483 715q-161 0 -227 -127h-207v717h817v-187h-610v-338q92 121 267 121t297 -127.5t122 -326.5t-144 -334.5t-335 -135.5t-317 108.5t-142 301.5l197 29q10 -113 73.5 -182.5t185.5 -69.5t195.5 78.5t73.5 202.5t-67.5 197t-178.5 73z" />
    <glyph glyph-name="six" unicode="6" 
d="M741 439q0 128 -67.5 211t-192.5 83t-198.5 -76.5t-73.5 -202.5t69 -208t194 -82q126 0 197.5 73.5t71.5 201.5zM485 -23q-493 0 -493 674q0 287 140 481.5t403 194.5q206 0 337 -117l-112 -151q-93 82 -225 82q-167 0 -258 -127t-91 -332q31 104 117 170t241 66
t279.5 -135t124.5 -343t-132 -335.5t-331 -127.5z" />
    <glyph glyph-name="seven" unicode="7" 
d="M233 1118v-219h-184v406h883v-187q-238 -257 -313.5 -487t-79.5 -631h-211q4 366 96.5 617.5t325.5 500.5h-517z" />
    <glyph glyph-name="eight" unicode="8" 
d="M733 381q0 57 -21.5 98t-58.5 66.5t-85 37t-135 11.5t-161.5 -52t-74.5 -160t74 -163t226 -55t194 80t42 137zM686 958q0 84 -59 133.5t-163 49.5t-162 -49.5t-58 -133.5t54 -131t167 -47t167 47t54 131zM940 342q0 -78 -37 -150.5t-132.5 -143.5t-305.5 -71t-342.5 98
t-132.5 292q0 111 77 209t203 114q-102 11 -167.5 100t-65.5 178t34.5 156.5t94 112.5t137.5 67.5t210.5 22.5t256 -94t123.5 -264q0 -90 -65.5 -179t-170.5 -100q126 -16 204.5 -115t78.5 -233z" />
    <glyph glyph-name="nine" unicode="9" 
d="M190 865q0 -128 68 -211t192 -83t198.5 77t74.5 203t-69 208t-194 82q-126 0 -198 -74t-72 -202zM397 164q167 0 257.5 126.5t90.5 332.5q-30 -105 -116 -170.5t-241 -65.5t-279.5 135t-124.5 343t131.5 335t330.5 127q271 0 382.5 -188.5t111.5 -479.5t-140.5 -486.5
t-402.5 -195.5q-203 0 -338 117l113 152q93 -82 225 -82z" />
    <glyph glyph-name="colon" unicode=":" 
d="M592 0h-252v252h252v-252zM592 680h-252v252h252v-252z" />
    <glyph glyph-name="semicolon" unicode=";" 
d="M641 187l-274 -559h-158l186 559h246zM592 680h-252v252h252v-252z" />
    <glyph glyph-name="less" unicode="&#x3c;" 
d="M829 88l-118 -120l-512 512l512 512l118 -121l-391 -391z" />
    <glyph glyph-name="equal" unicode="=" 
d="M932 199h-932v186h932v-186zM932 572h-932v186h932v-186z" />
    <glyph glyph-name="greater" unicode="&#x3e;" 
d="M494 480l-392 391l119 121l512 -512l-512 -512l-119 120z" />
    <glyph glyph-name="question" unicode="?" 
d="M592 0h-252v252h252v-252zM553 373h-213q0 144 67.5 229.5t113.5 129.5t113.5 115t67.5 147q0 77 -38.5 112t-120.5 35q-160 0 -183 -205l-192 29q18 168 115.5 265t268.5 97t264 -88t93 -242t-143 -282t-178 -200.5t-35 -141.5z" />
    <glyph glyph-name="at" unicode="@" 
d="M351 632q0 -152 37 -170.5t61 -18.5q47 0 79.5 60.5t32.5 134.5v158q-33 70 -94 70q-116 0 -116 -234zM576 447q-42 -156 -190 -156q-46 0 -124 54t-78 286q0 157 68 265t185 108q64 0 90.5 -37.5t33.5 -62.5v81h161v-495q0 -60 38 -60q82 0 82 254q0 362 -134 443
t-234 81q-191 0 -279.5 -152t-88.5 -405q0 -389 133.5 -471.5t234.5 -82.5q147 0 265 107l59 -98q-128 -129 -324 -129q-337 0 -418.5 244t-81.5 430q0 290 121 483t379 193q331 0 415.5 -236.5t84.5 -406.5q0 -261 -88 -327t-154 -66t-111 42t-45 104v10z" />
    <glyph glyph-name="A" unicode="A" 
d="M305 494h322l-160 538zM776 0l-94 311h-432l-92 -311h-217l407 1305h238l407 -1305h-217z" />
    <glyph glyph-name="B" unicode="B" 
d="M465 186q260 0 260 192.5t-260 192.5h-209v-385h209zM680 976q0 142 -238 142h-186v-360h186q106 0 172 38t66 180zM442 1305q443 0 443 -340q0 -99 -50.5 -181t-152.5 -118q125 -39 186.5 -109t61.5 -199q0 -178 -121 -268t-344 -90h-416v1305h393z" />
    <glyph glyph-name="C" unicode="C" 
d="M481 -23q-255 0 -378 192.5t-123 565.5t178 482.5t319 109.5t198.5 -66.5t69.5 -109.5v154h187v-494h-187q0 216 -98 273t-176 57t-134 -43t-90 -113t-47.5 -157t-13.5 -234.5t67 -288.5t228 -141q127 0 195.5 81t109.5 218l166 -64q-105 -422 -471 -422z" />
    <glyph glyph-name="D" unicode="D" 
d="M768 654q0 224 -77 344t-218 120h-217v-932h217q141 0 218 122t77 346zM851 183q-124 -183 -378 -183h-424v1305h424q251 0 376.5 -184.5t125.5 -469.5t-124 -468z" />
    <glyph glyph-name="E" unicode="E" 
d="M883 0h-834v1305h834v-187h-627v-360h489v-187h-489v-385h627v-186z" />
    <glyph glyph-name="F" unicode="F" 
d="M883 1118h-627v-360h489v-187h-489v-571h-207v1305h834v-187z" />
    <glyph glyph-name="G" unicode="G" 
d="M983 649q0 -460 -182.5 -566t-319.5 -106t-232 56.5t-155.5 149.5t-87 215t-26.5 334t123.5 403.5t377.5 191.5q85 0 163 -47.5t101 -128.5v154h187v-463h-187q0 125 -74 212t-176 87t-158 -44t-90 -114t-47.5 -157t-13.5 -233.5t67 -287.5t228 -141q255 0 312 332h-275
v186h465v-33z" />
    <glyph glyph-name="H" unicode="H" 
d="M883 0h-207v571h-420v-571h-207v1305h207v-547h420v547h207v-1305z" />
    <glyph glyph-name="I" unicode="I" 
d="M782 0h-626v186h206v932h-206v187h626v-187h-213v-932h213v-186z" />
    <glyph glyph-name="J" unicode="J" 
d="M676 498v807h207v-807q0 -248 -105.5 -384.5t-322.5 -136.5q-174 0 -292 91.5t-165 273.5l186 70q61 -248 271 -248q179 0 200 134t21 200z" />
    <glyph glyph-name="K" unicode="K" 
d="M256 0h-207v1305h207v-512l406 512h266l-455 -541l453 -764h-242l-342 608l-86 -102v-506z" />
    <glyph glyph-name="L" unicode="L" 
d="M883 0h-834v1305h207v-1119h627v-186z" />
    <glyph glyph-name="M" unicode="M" 
d="M883 0h-207v883l-131 -469h-160l-129 469v-883h-207v1305h246l170 -590l170 590h248v-1305z" />
    <glyph glyph-name="N" unicode="N" 
d="M883 0h-240l-387 946v-946h-207v1305h260l367 -899v899h207v-1305z" />
    <glyph glyph-name="O" unicode="O" 
d="M174 653q0 -333 102.5 -411t190.5 -78t144.5 43t89 112.5t46 157.5t13.5 234t-66 288t-218 142t-227 -129t-75 -359zM-33 653q0 131 28 253t87 215t154.5 149.5t230.5 56.5t230.5 -56.5t155.5 -149.5t87 -215t27 -253t-27 -252.5t-86 -216t-154.5 -151t-232.5 -56.5
t-232.5 56.5t-155 151t-86 216t-26.5 252.5z" />
    <glyph glyph-name="P" unicode="P" 
d="M725 916q0 102 -65.5 152t-178.5 50h-225v-403h225q113 0 178.5 49.5t65.5 151.5zM932 914q0 -194 -119 -290t-332 -96h-225v-528h-207v1305h430q215 0 334 -98.5t119 -292.5z" />
    <glyph glyph-name="Q" unicode="Q" 
d="M174 653q0 -333 102.5 -411t190.5 -78t144.5 43t89 112.5t46 157.5t13.5 234t-66 288t-218 142t-227 -129t-75 -359zM825 -373q-202 0 -328 92.5t-151 272.5q-196 46 -287.5 227t-91.5 451t123 463.5t376.5 193.5t377 -191.5t123.5 -482.5q0 -408 -147.5 -528.5
t-258.5 -138.5q10 -99 82 -135.5t205 -36.5l84 2v-185q-58 -4 -107 -4z" />
    <glyph glyph-name="R" unicode="R" 
d="M725 916q0 102 -65.5 152t-180.5 50h-223v-403h223q115 0 180.5 49.5t65.5 151.5zM256 528v-528h-207v1305h430q215 0 334 -98.5t119 -277.5t-97.5 -274t-256.5 -116l372 -539h-262l-338 528h-94z" />
    <glyph glyph-name="S" unicode="S" 
d="M213 0h-186v426h186q0 -121 79 -192.5t182 -71.5q218 0 218 180q0 130 -97 172t-163 66q-186 67 -287.5 147t-101.5 247t111 260t274 93q90 0 154.5 -38t99.5 -101v117h186v-406h-186q0 115 -60.5 179.5t-156.5 64.5t-155.5 -42t-59.5 -118q0 -100 90 -139.5t156 -63.5
q186 -68 294.5 -157.5t108.5 -264.5q0 -174 -111 -277.5t-293 -103.5q-183 0 -282 142v-119z" />
    <glyph glyph-name="T" unicode="T" 
d="M930 829h-185v289h-176v-932h207v-186h-620v186h206v932h-178v-289h-184v476h930v-476z" />
    <glyph glyph-name="U" unicode="U" 
d="M465 164q211 0 211 301v840h207v-840q0 -351 -155.5 -419.5t-263.5 -68.5q-207 0 -311 128.5t-104 361.5v838h207v-840q0 -125 28.5 -184.5t70.5 -88t110 -28.5z" />
    <glyph glyph-name="V" unicode="V" 
d="M991 1305l-407 -1305h-236l-407 1305h217l309 -1033l307 1033h217z" />
    <glyph glyph-name="W" unicode="W" 
d="M995 1305l-202 -1305h-213l-115 563l-113 -563h-213l-202 1305h215l120 -879l95 506h198l92 -506l123 879h215z" />
    <glyph glyph-name="X" unicode="X" 
d="M952 0h-426v186h74l-137 295l-137 -295h73v-186h-422v186h113l254 473l-250 459h-94v187h414v-187h-84l133 -289l135 289h-82v187h416v-187h-101l-249 -459l254 -473h116v-186z" />
    <glyph glyph-name="Y" unicode="Y" 
d="M952 1118h-94l-289 -586v-346h209v-186h-624v186h208v346l-288 586h-94v187h411v-187h-90l166 -383l164 383h-90v187h411v-187z" />
    <glyph glyph-name="Z" unicode="Z" 
d="M883 0h-834v184l584 934h-397v-284h-187v471h817v-187l-567 -932h401v287h183v-473z" />
    <glyph glyph-name="bracketleft" unicode="[" 
d="M807 -373h-434v1864h434v-186h-248v-1491h248v-187z" />
    <glyph glyph-name="backslash" unicode="\" 
d="M932 -176l-154 -76l-766 1542l154 76z" />
    <glyph glyph-name="bracketright" unicode="]" 
d="M559 -373h-434v187h248v1491h-248v186h434v-1864z" />
    <glyph glyph-name="asciicircum" unicode="^" 
d="M995 559h-228l-300 562l-298 -562h-228l402 746h248z" />
    <glyph glyph-name="underscore" unicode="_" 
d="M0 -186v186h932v-186h-932z" />
    <glyph glyph-name="grave" unicode="`" 
d="M344 1405l404 -287l-89 -137l-432 244z" />
    <glyph glyph-name="a" unicode="a" 
d="M201 279q0 -117 178 -117q122 0 209.5 59t87.5 152v35q-61 10 -191 10q-129 0 -206.5 -40t-77.5 -99zM471 954q277 0 343.5 -118.5t66.5 -210.5v-625h-205v137q-49 -76 -144.5 -118t-184.5 -42q-166 0 -258.5 78t-92.5 223t151 231.5t361 86.5q90 0 168 -8v37
q0 73 -56.5 109t-148.5 36q-177 0 -336 -92l-84 162q198 114 420 114z" />
    <glyph glyph-name="b" unicode="b" 
d="M461 164q117 0 190.5 83t73.5 218t-73.5 219t-190.5 84q-53 0 -110.5 -21.5t-94.5 -62.5v-436q37 -41 94.5 -62.5t110.5 -21.5zM256 0h-207v1305h207v-457q118 106 258 106q182 0 300 -138.5t118 -350.5t-117.5 -350t-300.5 -138q-137 0 -258 109v-86z" />
    <glyph glyph-name="c" unicode="c" 
d="M487 164q185 0 304 115l106 -146q-90 -90 -189.5 -123t-215.5 -33q-234 0 -373 132.5t-139 349.5t130 356t318 139q96 0 167 -40t103 -117v135h185v-434h-185q0 123 -67.5 196.5t-171.5 73.5t-188.5 -79t-84.5 -224q0 -146 86 -223.5t215 -77.5z" />
    <glyph glyph-name="d" unicode="d" 
d="M469 768q-117 0 -190.5 -84t-73.5 -219t73.5 -218t190.5 -83q53 0 111.5 21.5t95.5 62.5v436q-37 41 -95.5 62.5t-111.5 21.5zM416 954q140 0 260 -106v270h-180v187h387v-1305h-207v86q-123 -109 -260 -109q-182 0 -300 137t-118 351t118.5 351.5t299.5 137.5z" />
    <glyph glyph-name="e" unicode="e" 
d="M469 768q-98 0 -176 -54.5t-94 -144.5h538q-16 90 -93 144.5t-175 54.5zM487 164q185 0 304 115l106 -146q-90 -90 -190.5 -123t-214.5 -33q-224 0 -368 137t-144 350t136 351.5t358 138.5q223 0 360 -152.5t137 -414.5h-781q15 -96 91.5 -159.5t205.5 -63.5z" />
    <glyph glyph-name="f" unicode="f" 
d="M799 1327q46 0 133 -10v-182q-60 6 -124 6q-138 0 -188.5 -46.5t-50.5 -162.5h363v-187h-363v-559h213v-186h-626v186h206v559h-206v187h206q0 192 118 293.5t319 101.5z" />
    <glyph glyph-name="g" unicode="g" 
d="M467 768q-117 0 -189.5 -82t-72.5 -208t74 -210t188 -84q55 0 113.5 22.5t95.5 63.5v414q-37 41 -95.5 62.5t-113.5 21.5zM416 954q140 0 260 -106v84h207v-922q0 -188 -124 -296.5t-321 -108.5q-243 0 -415 147l98 160q143 -123 317 -123q107 0 172.5 52.5t65.5 164.5
v100q-64 -55 -123 -81.5t-143 -26.5t-161 38t-132.5 103.5t-87 152.5t-31.5 236t119.5 287.5t298.5 138.5z" />
    <glyph glyph-name="h" unicode="h" 
d="M883 0h-207v575q0 109 -41 151t-119 42q-115 0 -187.5 -93t-72.5 -257v-418h-207v1305h207v-607q31 121 115 188.5t217 67.5t214 -93t81 -286v-575z" />
    <glyph glyph-name="i" unicode="i" 
d="M782 0h-626v186h206v559h-206v187h413v-746h213v-186zM592 1053h-252v252h252v-252z" />
    <glyph glyph-name="j" unicode="j" 
d="M778 1053h-252v252h252v-252zM333 -209q116 0 166 57.5t50 151.5v745h-211v187h418v-932q0 -178 -112.5 -286.5t-312.5 -108.5t-331 159l123 138q94 -111 210 -111z" />
    <glyph glyph-name="k" unicode="k" 
d="M256 0h-207v1305h207v-768l373 395h284l-430 -428l447 -504h-268l-312 377l-94 -96v-281z" />
    <glyph glyph-name="l" unicode="l" 
d="M784 0h-626v186h204v932h-204v187h411v-1119h215v-186z" />
    <glyph glyph-name="m" unicode="m" 
d="M733 954q199 0 199 -284v-670h-207v639q0 66 -13.5 97.5t-47.5 31.5q-62 0 -78.5 -69.5t-16.5 -202.5v-496h-207v639q0 66 -14 97.5t-49 31.5q-61 0 -76.5 -69.5t-15.5 -202.5v-496h-207v932h209v-135q45 157 180 157q60 0 100.5 -36.5t55.5 -100.5q35 70 72.5 103.5
t115.5 33.5z" />
    <glyph glyph-name="n" unicode="n" 
d="M883 0h-207v575q0 109 -41 151t-119 42q-115 0 -187.5 -93t-72.5 -257v-418h-207v932h207v-234q31 121 115 188.5t217 67.5t214 -93t81 -286v-575z" />
    <glyph glyph-name="o" unicode="o" 
d="M672 683.5q-78 84.5 -206 84.5q-127 0 -203.5 -85t-76.5 -216t75.5 -217t204.5 -86q130 0 207 85t77 218q0 132 -78 216.5zM821 112q-135 -135 -353 -135t-353 135t-135 352t134 353.5t354 136.5t354 -136t134 -354q0 -217 -135 -352z" />
    <glyph glyph-name="p" unicode="p" 
d="M461 164q117 0 190.5 83t73.5 218t-73.5 219t-190.5 84q-53 0 -110.5 -21.5t-94.5 -62.5v-434q37 -41 94.5 -63.5t110.5 -22.5zM256 -373h-207v1305h207v-84q118 106 258 106q182 0 300 -138.5t118 -350.5t-117.5 -350t-300.5 -138q-137 0 -258 109v-459z" />
    <glyph glyph-name="q" unicode="q" 
d="M469 768q-117 0 -190.5 -84t-73.5 -219t73.5 -218t190.5 -83q53 0 111.5 21.5t95.5 62.5v436q-37 41 -95.5 62.5t-111.5 21.5zM416 954q140 0 260 -106v84h207v-1305h-207v459q-123 -109 -260 -109q-182 0 -300 137t-118 351t118.5 351.5t299.5 137.5z" />
    <glyph glyph-name="r" unicode="r" 
d="M754 748q-155 0 -245.5 -84.5t-90.5 -245.5v-232h209v-186h-627v186h211v559h-211v187h418v-234q51 140 150.5 198t218.5 58t200 -41l-78 -202q-77 37 -155 37z" />
    <glyph glyph-name="s" unicode="s" 
d="M774 684q-134 84 -298 84t-204.5 -35t-40.5 -63q0 -37 65.5 -60.5t187.5 -41.5q229 -33 326 -92.5t97 -208.5t-130.5 -219.5t-286.5 -70.5q-295 0 -500 134l86 170q201 -117 385 -117q239 0 239 100q0 42 -70 65.5t-194 43.5q-125 20 -268 59t-143 232q0 142 129 216
t307 74q233 0 395 -110z" />
    <glyph glyph-name="t" unicode="t" 
d="M211 342v403h-211v187h211v373h207v-373h391v-187h-391v-403q0 -90 44 -134t124 -44t123 51t51 123l182 -41q-16 -147 -116 -233.5t-256 -86.5t-257.5 101.5t-101.5 263.5z" />
    <glyph glyph-name="u" unicode="u" 
d="M49 932h207v-576q0 -108 41 -150t119 -42q114 0 187 93t73 257v418h207v-932h-207v233q-31 -120 -115 -188t-217 -68t-214 93.5t-81 285.5v576z" />
    <glyph glyph-name="v" unicode="v" 
d="M932 932l-344 -932h-244l-344 932h221l246 -705l244 705h221z" />
    <glyph glyph-name="w" unicode="w" 
d="M961 932l-140 -932h-256l-98 561l-100 -561h-256l-140 932h203l82 -623l100 623h219l101 -623l82 623h203z" />
    <glyph glyph-name="x" unicode="x" 
d="M954 0h-442v186h82l-127 195l-125 -195h76v-186h-438v186h135l209 287l-199 272h-125v187h420v-187h-66l113 -180l115 180h-74v187h424v-187h-121l-199 -272l209 -287h133v-186z" />
    <glyph glyph-name="y" unicode="y" 
d="M186 -197q93 0 127 82l37 90l-356 957h215l256 -705l237 705h222l-402 -1114q-45 -121 -131 -166t-192 -45t-199 35l43 190q78 -29 143 -29z" />
    <glyph glyph-name="z" unicode="z" 
d="M883 0h-834v184l531 561h-349v-188h-182v375h815v-187l-532 -559h368v185h183v-371z" />
    <glyph glyph-name="braceleft" unicode="{" 
d="M805 -373h-154q-125 0 -201.5 80t-76.5 201v426q0 82 -47 106.5t-140 24.5v186q93 0 140 23.5t47 107.5v426q0 121 77.5 202t200.5 81h154v-186h-154q-53 0 -72.5 -21.5t-19.5 -75.5v-426q0 -94 -57.5 -152.5t-130.5 -72.5q121 -20 154.5 -99t33.5 -124v-426
q0 -53 19.5 -74.5t72.5 -21.5h154v-185z" />
    <glyph glyph-name="bar" unicode="|" 
d="M559 -186h-186v1677h186v-1677z" />
    <glyph glyph-name="braceright" unicode="}" 
d="M127 -188h154q53 0 72.5 21.5t19.5 74.5v430q0 85 54 147.5t134 75.5q-74 14 -131 72.5t-57 152.5v426q0 54 -19.5 73.5t-72.5 19.5h-154v186h154q122 0 200 -78t78 -201v-426q0 -84 47 -107.5t139 -23.5v-186q-92 0 -139 -24.5t-47 -106.5v-430q0 -122 -77.5 -201.5
t-200.5 -79.5h-154v185z" />
    <glyph glyph-name="asciitilde" unicode="~" 
d="M621 435q53 0 77.5 57t40.5 190l197 -14q-20 -293 -130 -357.5t-188 -64.5t-123.5 39t-75.5 87t-51.5 87t-65.5 39t-68.5 -56.5t-40.5 -189.5l-197 15q20 294 130 357.5t188 63.5t124.5 -39.5t75.5 -87t51.5 -87t55.5 -39.5z" />
    <glyph glyph-name="uni00A0" unicode="&#xa0;" 
 />
    <glyph glyph-name="exclamdown" unicode="&#xa1;" 
d="M778 1053h-252v252h252v-252zM516 0l51 932h170l51 -932h-272z" />
    <glyph glyph-name="cent" unicode="&#xa2;" 
d="M186 654q0 -116 52.5 -185.5t134.5 -97.5v565q-82 -29 -134.5 -97.5t-52.5 -184.5zM559 0h-186v176q-185 33 -289 159.5t-104 318.5t104 318t289 158v175h186v-168q202 -19 338 -152l-106 -145q-94 89 -232 108v-592q137 20 232 111l106 -145q-137 -137 -338 -154v-168z
" />
    <glyph glyph-name="sterling" unicode="&#xa3;" 
d="M0 745h186v230q0 153 99.5 252.5t229.5 99.5t215 -65.5t108 -186.5l-187 -45q-30 111 -129 111q-57 0 -93 -38t-36 -128v-230h187v-186h-187v-186q0 -66 -25.5 -115t-66.5 -72h172q133 0 185.5 29t80 64.5t56.5 91.5l170 -90q-66 -142 -196 -211.5t-296 -69.5h-473v186
h61q62 0 93.5 39.5t31.5 96.5v237h-186v186z" />
    <glyph glyph-name="currency" unicode="&#xa4;" 
d="M670 869.5q-78 84.5 -206 84.5q-127 0 -203.5 -85t-76.5 -216t75.5 -217t204.5 -86q130 0 207 85t77 218q0 132 -78 216.5zM954 651.5q0 -162.5 -82 -286.5l119 -119l-121 -121l-118 119q-117 -80 -287 -80t-287 80l-119 -119l-120 121l118 119q-80 121 -80 286
q0 164 80 285l-118 121l120 121l119 -119q119 82 283 82t291 -82l118 119l121 -121l-119 -119q82 -124 82 -286.5z" />
    <glyph glyph-name="yen" unicode="&#xa5;" 
d="M365 559v4l-84 182h-281v187h197l-168 373h215l225 -555l223 555h215l-170 -373h195v-187h-279l-82 -182v-4h361v-186h-361v-373h-206v373h-365v186h365z" />
    <glyph glyph-name="brokenbar" unicode="&#xa6;" 
d="M569 727h-207v764h207v-764zM569 -186h-207v764h207v-764z" />
    <glyph glyph-name="section" unicode="&#xa7;" 
d="M715 682q0 80 -34 122t-88 70.5t-120.5 50t-134.5 46.5q-64 -57 -64 -129t35 -113t89.5 -70.5t122 -54t134.5 -55.5q60 53 60 133zM715 179q0 83 -48.5 128t-120 76t-155.5 58.5t-155.5 71.5t-119.5 113.5t-48 165.5q0 176 102 273q-102 89 -102 254t112.5 260.5
t284.5 95.5q171 0 298 -91t150 -265l-192 -33q-16 115 -79.5 159t-155.5 44t-152 -40.5t-60 -112.5t48.5 -114t120 -74t155.5 -62.5t204 -104.5t120 -252q0 -96 -29 -160.5t-76 -122.5q105 -89 105 -253t-119 -271.5t-291 -107.5q-283 0 -377 134t-115 230l187 47
q63 -225 305 -225q82 0 142.5 48t60.5 131z" />
    <glyph glyph-name="dieresis" unicode="&#xa8;" 
d="M406 1053h-252v252h252v-252zM778 1053h-252v252h252v-252z" />
    <glyph glyph-name="copyright" unicode="&#xa9;" 
d="M909 1093q-144 146 -348 146t-349.5 -142t-145.5 -351q0 -208 143 -351t350 -143t350.5 143.5t143.5 347.5t-144 350zM1118 750q0 -114 -42 -216t-115.5 -178.5t-176 -123t-216.5 -46.5q-233 0 -400.5 158.5t-167.5 400.5q0 115 44 217.5t164 222.5t350 120t350 -118
t165 -220.5t45 -216.5zM563 385q-164 0 -263 102.5t-99 258.5t98.5 260t263.5 104q205 0 301 -147l-141 -99q-45 82 -160 82q-84 0 -131 -56t-47 -142t46.5 -142.5t146.5 -56.5t145 82l141 -99q-96 -147 -301 -147z" />
    <glyph glyph-name="ordfeminine" unicode="&#xaa;" 
d="M745 199h-745v186h745v-186zM401 889q-231 0 -231 -109q0 -35 28 -63.5t92 -28.5q103 0 186 39t83 86v66q-66 10 -158 10zM268 541q-135 0 -205.5 67.5t-70.5 171.5q0 193 166 222.5t220 29.5h50q50 0 131 -12v59q0 49 -47 73t-123 24q-166 0 -291 -70l-63 129
q131 88 365 88t289.5 -89t55.5 -155v-520h-186v109q-115 -127 -291 -127z" />
    <glyph glyph-name="guillemotleft" unicode="&#xab;" 
d="M827 444l-118 -120l-324 327l324 330l118 -121l-202 -209zM457 444l-119 -120l-324 327l324 330l119 -121l-203 -209z" />
    <glyph glyph-name="logicalnot" unicode="&#xac;" 
d="M932 13h-187v372h-745v187h932v-559z" />
    <glyph glyph-name="uni00AD" unicode="&#xad;" 
d="M932 385h-932v187h932v-187z" />
    <glyph glyph-name="registered" unicode="&#xae;" 
d="M682 1047q0 86 -86 86h-94v-168h94q41 0 63.5 24.5t22.5 57.5zM502 823v-227h-174v676h268q110 0 184 -56.5t74 -152.5t-29.5 -146.5t-111.5 -87.5l153 -233h-207l-122 227h-35zM910 1278.5q-143 146.5 -349 146.5t-350.5 -141.5t-144.5 -350.5t143 -352t350 -143
t350.5 143.5t143.5 347.5q0 203 -143 349.5zM958.5 539q-159.5 -166 -391.5 -166t-399.5 158t-167.5 395t164 401t394 164t395 -162.5t165 -392.5q0 -231 -159.5 -397z" />
    <glyph glyph-name="macron" unicode="&#xaf;" 
d="M745 1044h-559v175h559v-175z" />
    <glyph glyph-name="degree" unicode="&#xb0;" 
d="M141 1116q0 -47 18.5 -89t49.5 -72.5t73 -49t89 -18.5t89 18.5t72.5 49t49 72.5t18.5 89t-18.5 89t-49 73t-72.5 49.5t-89 18.5t-89 -18.5t-73 -49.5t-49.5 -73t-18.5 -89zM109.5 1381.5q109.5 109.5 263.5 109.5t263 -110t109 -263q0 -154 -109.5 -263.5t-262.5 -109.5
t-263 109t-110 264q0 154 109.5 263.5z" />
    <glyph glyph-name="plusminus" unicode="&#xb1;" 
d="M932 -186h-932v186h932v-186zM932 385h-373v-323h-186v323h-373v187h373v372h186v-372h373v-187z" />
    <glyph glyph-name="twosuperior" unicode="&#xb2;" 
d="M449 1129.5q0 -62.5 -68 -123.5l-139 -134h204v-127h-403v127l215 209q33 31 33 57q0 46 -47 46q-33 0 -48.5 -21.5t-15.5 -79.5h-153q0 232 217 232q79 0 124.5 -31t63 -61.5t17.5 -93z" />
    <glyph glyph-name="threesuperior" unicode="&#xb3;" 
d="M449 918q0 -70 -56.5 -122.5t-144.5 -52.5q-203 0 -223 197l151 14q8 -84 70 -84q20 0 34.5 14t14.5 44q0 62 -90 61v98q80 0 80 56q0 41 -45 41q-23 0 -38.5 -20.5t-15.5 -61.5h-149q-1 104 59 156t150 51q90 0 141 -44t51 -116t-63 -107q74 -54 74 -124z" />
    <glyph glyph-name="acute" unicode="&#xb4;" 
d="M711 1225l-432 -244l-89 137l404 287z" />
    <glyph glyph-name="mu" unicode="&#xb5;" 
d="M400 -23q-92 0 -142 54v-404h-209v1305h209v-578q0 -108 41 -149t119 -41q114 0 186 92t72 256v420h207v-932h-207v231q-31 -120 -107.5 -187t-168.5 -67z" />
    <glyph glyph-name="paragraph" unicode="&#xb6;" 
d="M207 918q0 -76 41 -134.5t114 -66.5v397q-71 -8 -113 -64t-42 -132zM569 1118v-405h156v405h-156zM0 926q0 182 119 280.5t334 98.5h479v-1305h-207v526h-156v-526h-207v532q-163 23 -262.5 117.5t-99.5 276.5z" />
    <glyph glyph-name="periodcentered" unicode="&#xb7;" 
d="M592 352h-252v252h252v-252z" />
    <glyph glyph-name="cedilla" unicode="&#xb8;" 
d="M242 -193q172 0 172 152v41h176v-41q0 -144 -95 -237t-253 -93v178z" />
    <glyph glyph-name="onesuperior" unicode="&#xb9;" 
d="M414 745h-338v127h90v234q-50 -59 -166 -59v135q57 0 111.5 36.5t54.5 86.5h158v-433h90v-127z" />
    <glyph glyph-name="ordmasculine" unicode="&#xba;" 
d="M745 199h-745v186h745v-186zM588 930q0 114 -60 179t-156 65t-156 -65t-60 -179t59 -177t157 -63t157 63t59 177zM88.5 645.5q-108.5 106.5 -108.5 284.5t109.5 286.5t283.5 108.5t282.5 -108.5t108.5 -285.5t-109 -284.5t-283.5 -107.5t-283 106.5z" />
    <glyph glyph-name="guillemotright" unicode="&#xbb;" 
d="M309 651l-203 209l119 121l324 -330l-324 -327l-119 120zM680 651l-203 209l119 121l324 -330l-324 -327l-119 120z" />
    <glyph glyph-name="onequarter" unicode="&#xbc;" 
d="M696 242v104l-80 -104h80zM852 0h-156v113h-198v151l213 295h141v-317h90v-129h-90v-113zM414 745h-338v127h90v234q-50 -59 -166 -59v135q57 0 111.5 36.5t54.5 86.5h158v-433h90v-127zM954 1257l-835 -1298l-137 88l837 1303z" />
    <glyph glyph-name="onehalf" unicode="&#xbd;" 
d="M414 745h-338v127h90v234q-50 -59 -166 -59v135q57 0 111.5 36.5t54.5 86.5h158v-433h90v-127zM954 1257l-835 -1298l-137 88l837 1303zM746 438q-40 0 -55 -21.5t-15 -78.5h-154q0 231 217 231q82 0 126 -30.5t61.5 -61.5t17.5 -91.5t-67 -125.5l-140 -133h205v-127
h-403v127l215 209q32 28 32 65t-40 37z" />
    <glyph glyph-name="threequarters" unicode="&#xbe;" 
d="M954 1257l-835 -1298l-137 88l837 1303zM696 242v104l-80 -104h80zM852 0h-156v113h-198v151l213 295h141v-317h90v-129h-90v-113zM449 918q0 -70 -56.5 -122.5t-144.5 -52.5q-203 0 -223 197l151 14q8 -84 70 -84q20 0 34.5 14t14.5 44q0 62 -90 61v98q80 0 80 56
q0 41 -45 41q-23 0 -38.5 -20.5t-15.5 -61.5h-149q-1 104 59 156t150 51q90 0 141 -44t51 -116t-63 -107q74 -54 74 -124z" />
    <glyph glyph-name="questiondown" unicode="&#xbf;" 
d="M526 1305h252v-252h-252v252zM565 932h213q0 -143 -67.5 -229.5t-113.5 -130.5t-113.5 -115t-67.5 -147q0 -77 39 -111.5t121 -34.5q161 0 182 205l192 -29q-18 -168 -115.5 -265.5t-268.5 -97.5t-264 88.5t-93 242.5t142.5 282t178 200t35.5 142z" />
    <glyph glyph-name="Agrave" unicode="&#xc0;" 
d="M305 494h322l-160 538zM776 0l-94 311h-432l-92 -311h-217l407 1305h238l407 -1305h-217zM344 1776l404 -287l-89 -137l-432 244z" />
    <glyph glyph-name="Aacute" unicode="&#xc1;" 
d="M305 494h322l-160 538zM776 0l-94 311h-432l-92 -311h-217l407 1305h238l407 -1305h-217zM711 1596l-432 -244l-89 137l404 287z" />
    <glyph glyph-name="Acircumflex" unicode="&#xc2;" 
d="M305 494h322l-160 538zM776 0l-94 311h-432l-92 -311h-217l407 1305h238l407 -1305h-217zM791 1456l-80 -102l-242 205l-246 -207l-80 100l324 318z" />
    <glyph glyph-name="Atilde" unicode="&#xc3;" 
d="M305 494h322l-160 538zM776 0l-94 311h-432l-92 -311h-217l407 1305h238l407 -1305h-217zM600 1411q-49 1 -84 19q-36 18 -66 40t-60 40t-74 18q-76 0 -146 -119l-121 70q102 203 275 203q50 0 84 -18t65 -40t61 -40t73 -19q78 0 147 121l120 -70q-100 -205 -274 -205z
" />
    <glyph glyph-name="Adieresis" unicode="&#xc4;" 
d="M305 494h322l-160 538zM776 0l-94 311h-432l-92 -311h-217l407 1305h238l407 -1305h-217zM406 1424h-252v252h252v-252zM778 1424h-252v252h252v-252z" />
    <glyph glyph-name="Aring" unicode="&#xc5;" 
d="M375 1450q0 -39 26.5 -65.5t65.5 -26.5t65.5 26.5t26.5 65.5t-26.5 65.5t-65.5 26.5t-65.5 -26.5t-26.5 -65.5zM305 494h322l-160 538zM336 1266q-94 66 -94 173t66 171.5t159.5 64.5t159 -65.5t65.5 -171.5t-94 -172l395 -1266h-217l-94 311h-432l-92 -311h-217z" />
    <glyph glyph-name="AE" unicode="&#xc6;" 
d="M395 494v516l-127 -516h127zM395 0v311h-170l-75 -311h-213l364 1305h631v-187h-330v-360h281v-187h-281v-385h330v-186h-537z" />
    <glyph glyph-name="Ccedilla" unicode="&#xc7;" 
d="M590 -41q0 -144 -95 -237t-253 -93v178q172 0 172 152v23q-221 26 -327.5 214t-106.5 457q0 455 178 564.5t319 109.5t198.5 -66.5t69.5 -109.5v154h187v-494h-187q0 216 -98 273t-176 57t-134 -43t-90 -113t-47.5 -157t-13.5 -234.5t67 -288.5t228 -141q127 0 195.5 81
t109.5 218l166 -64q-95 -359 -362 -411v-29z" />
    <glyph glyph-name="Egrave" unicode="&#xc8;" 
d="M883 0h-834v1305h834v-187h-627v-360h489v-187h-489v-385h627v-186zM344 1776l404 -287l-89 -137l-432 244z" />
    <glyph glyph-name="Eacute" unicode="&#xc9;" 
d="M883 0h-834v1305h834v-187h-627v-360h489v-187h-489v-385h627v-186zM711 1596l-432 -244l-89 137l404 287z" />
    <glyph glyph-name="Ecircumflex" unicode="&#xca;" 
d="M883 0h-834v1305h834v-187h-627v-360h489v-187h-489v-385h627v-186zM791 1456l-80 -102l-242 205l-246 -207l-80 100l324 318z" />
    <glyph glyph-name="Edieresis" unicode="&#xcb;" 
d="M883 0h-834v1305h834v-187h-627v-360h489v-187h-489v-385h627v-186zM406 1424h-252v252h252v-252zM778 1424h-252v252h252v-252z" />
    <glyph glyph-name="Igrave" unicode="&#xcc;" 
d="M782 0h-626v186h206v932h-206v187h626v-187h-213v-932h213v-186zM344 1776l404 -287l-89 -137l-432 244z" />
    <glyph glyph-name="Iacute" unicode="&#xcd;" 
d="M782 0h-626v186h206v932h-206v187h626v-187h-213v-932h213v-186zM711 1596l-432 -244l-89 137l404 287z" />
    <glyph glyph-name="Icircumflex" unicode="&#xce;" 
d="M782 0h-626v186h206v932h-206v187h626v-187h-213v-932h213v-186zM791 1456l-80 -102l-242 205l-246 -207l-80 100l324 318z" />
    <glyph glyph-name="Idieresis" unicode="&#xcf;" 
d="M782 0h-626v186h206v932h-206v187h626v-187h-213v-932h213v-186zM406 1424h-252v252h252v-252zM778 1424h-252v252h252v-252z" />
    <glyph glyph-name="Eth" unicode="&#xd0;" 
d="M768 654q0 224 -77 344t-218 120h-217v-360h184v-187h-184v-385h217q141 0 218 122t77 346zM-117 758h166v547h424q251 0 376.5 -184.5t125.5 -550.5t-183.5 -468t-318.5 -102h-424v571h-166v187z" />
    <glyph glyph-name="Ntilde" unicode="&#xd1;" 
d="M883 0h-240l-387 946v-946h-207v1305h260l367 -899v899h207v-1305zM600 1411q-49 1 -84 19q-36 18 -66 40t-60 40t-74 18q-76 0 -146 -119l-121 70q102 203 275 203q50 0 84 -18t65 -40t61 -40t73 -19q78 0 147 121l120 -70q-100 -205 -274 -205z" />
    <glyph glyph-name="Ograve" unicode="&#xd2;" 
d="M174 653q0 -333 148 -446q56 -43 145 -43t145 43t88 113t46 157q14 88 14 176q0 204 -60 332q-72 156 -224 156t-227 -129t-75 -359zM-33 653q0 131 28 253t87 215q58 93 154 149t231 57q135 -1 231 -57t155 -149q60 -93 87 -215t27 -253t-27 -253t-86 -216
q-58 -94 -154 -150t-233 -57q-137 1 -233 57t-154 150q-60 94 -86 216t-27 253zM344 1776l404 -287l-89 -137l-432 244z" />
    <glyph glyph-name="Oacute" unicode="&#xd3;" 
d="M174 653q0 -333 148 -446q56 -43 145 -43t145 43t88 113t46 157q14 88 14 176q0 204 -60 332q-72 156 -224 156t-227 -129t-75 -359zM-33 653q0 131 28 253t87 215q58 93 154 149t231 57q135 -1 231 -57t155 -149q60 -93 87 -215t27 -253t-27 -253t-86 -216
q-58 -94 -154 -150t-233 -57q-137 1 -233 57t-154 150q-60 94 -86 216t-27 253zM711 1596l-432 -244l-89 137l404 287z" />
    <glyph glyph-name="Ocircumflex" unicode="&#xd4;" 
d="M174 653q0 -333 148 -446q56 -43 145 -43t145 43t88 113t46 157q14 88 14 176q0 204 -60 332q-72 156 -224 156t-227 -129t-75 -359zM-33 653q0 131 28 253t87 215q58 93 154 149t231 57q135 -1 231 -57t155 -149q60 -93 87 -215t27 -253t-27 -253t-86 -216
q-58 -94 -154 -150t-233 -57q-137 1 -233 57t-154 150q-60 94 -86 216t-27 253zM791 1456l-80 -102l-242 205l-246 -207l-80 100l324 318z" />
    <glyph glyph-name="Otilde" unicode="&#xd5;" 
d="M174 653q0 -333 148 -446q56 -43 145 -43t145 43t88 113t46 157q14 88 14 176q0 204 -60 332q-72 156 -224 156t-227 -129t-75 -359zM-33 653q0 131 28 253t87 215q58 93 154 149t231 57q135 -1 231 -57t155 -149q60 -93 87 -215t27 -253t-27 -253t-86 -216
q-58 -94 -154 -150t-233 -57q-137 1 -233 57t-154 150q-60 94 -86 216t-27 253zM600 1411q-49 1 -84 19q-36 18 -66 40t-60 40t-74 18q-76 0 -146 -119l-121 70q102 203 275 203q50 0 84 -18t65 -40t61 -40t73 -19q78 0 147 121l120 -70q-100 -205 -274 -205z" />
    <glyph glyph-name="Odieresis" unicode="&#xd6;" 
d="M174 653q0 -333 148 -446q56 -43 145 -43t145 43t88 113t46 157q14 88 14 176q0 204 -60 332q-72 156 -224 156t-227 -129t-75 -359zM-33 653q0 131 28 253t87 215q58 93 154 149t231 57q135 -1 231 -57t155 -149q60 -93 87 -215t27 -253t-27 -253t-86 -216
q-58 -94 -154 -150t-233 -57q-137 1 -233 57t-154 150q-60 94 -86 216t-27 253zM406 1424h-252v252h252v-252zM778 1424h-252v252h252v-252z" />
    <glyph glyph-name="multiply" unicode="&#xd7;" 
d="M856 748l-270 -270l270 -271l-121 -119l-268 271l-270 -271l-119 119l268 271l-268 270l119 119l270 -271l268 271z" />
    <glyph glyph-name="Oslash" unicode="&#xd8;" 
d="M729 364.5q31 200.5 31 273.5t-10 175l-508 -510q75 -139 225 -139q231 0 262 200.5zM474 1141q-150 0 -225 -129t-75 -359q0 -114 12 -182l514 514q-76 156 -226 156zM-33 617q0 322 123 516t375 194t381 -194l133 133v-222l-61 -61q49 -153 49 -307q0 -311 -121.5 -505
t-370.5 -194q-250 0 -379 181l-137 -138v222l61 61q-53 147 -53 314z" />
    <glyph glyph-name="Ugrave" unicode="&#xd9;" 
d="M465 164q211 0 211 301v840h207v-840q0 -351 -231 -453q-80 -35 -188 -35q-207 0 -311 129t-104 361v838h207v-840q0 -125 28 -184q28 -61 71 -89q42 -28 110 -28zM344 1776l404 -287l-89 -137l-432 244z" />
    <glyph glyph-name="Uacute" unicode="&#xda;" 
d="M465 164q211 0 211 301v840h207v-840q0 -351 -231 -453q-80 -35 -188 -35q-207 0 -311 129t-104 361v838h207v-840q0 -125 28 -184q28 -61 71 -89q42 -28 110 -28zM711 1596l-432 -244l-89 137l404 287z" />
    <glyph glyph-name="Ucircumflex" unicode="&#xdb;" 
d="M465 164q211 0 211 301v840h207v-840q0 -351 -231 -453q-80 -35 -188 -35q-207 0 -311 129t-104 361v838h207v-840q0 -125 28 -184q28 -61 71 -89q42 -28 110 -28zM791 1456l-80 -102l-242 205l-246 -207l-80 100l324 318z" />
    <glyph glyph-name="Udieresis" unicode="&#xdc;" 
d="M465 164q211 0 211 301v840h207v-840q0 -351 -231 -453q-80 -35 -188 -35q-207 0 -311 129t-104 361v838h207v-840q0 -125 28 -184q28 -61 71 -89q42 -28 110 -28zM406 1424h-252v252h252v-252zM778 1424h-252v252h252v-252z" />
    <glyph glyph-name="Yacute" unicode="&#xdd;" 
d="M952 1118h-94l-289 -586v-346h209v-186h-624v186h208v346l-288 586h-94v187h411v-187h-90l166 -383l164 383h-90v187h411v-187zM711 1596l-432 -244l-89 137l404 287z" />
    <glyph glyph-name="Thorn" unicode="&#xde;" 
d="M727 662q0 102 -66.5 151t-179.5 49h-225v-397h225q113 0 179.5 47.5t66.5 149.5zM932 662q0 -194 -119 -288.5t-332 -94.5h-225v-279h-207v1305h207v-256h223q215 0 334 -96.5t119 -290.5z" />
    <glyph glyph-name="germandbls" unicode="&#xdf;" 
d="M49 844q0 483 377 483q147 0 233 -80.5t86 -206.5q0 -82 -32.5 -131t-72.5 -81.5t-72.5 -59t-32.5 -56.5t29.5 -51.5t73.5 -45t169 -93.5t125 -254q0 -125 -102.5 -208t-249.5 -83q-99 0 -170.5 28t-137.5 81l117 162q91 -84 178 -84q88 0 123 31.5t35 73.5t-29.5 72
t-72.5 56.5t-168 89.5t-125 211q0 74 32.5 118t72.5 77t73 65.5t33 75.5t-23.5 75t-91.5 32q-100 0 -135 -76t-35 -219v-846h-207v844z" />
    <glyph glyph-name="agrave" unicode="&#xe0;" 
d="M201 279q0 -117 178 -117q122 0 209 59q88 59 88 152v35q-61 10 -191 10q-129 0 -207 -40t-77 -99zM471 954q277 0 375 -174q35 -62 35 -155v-625h-205v137q-48 -76 -144 -118t-185 -42q-166 0 -259 78q-92 78 -92 223t151 231q151 87 361 87q90 0 168 -8v37
q0 73 -56 109t-149 36q-177 0 -336 -92l-84 162q198 114 420 114zM344 1405l404 -287l-89 -137l-432 244z" />
    <glyph glyph-name="aacute" unicode="&#xe1;" 
d="M201 279q0 -117 178 -117q122 0 209 59q88 59 88 152v35q-61 10 -191 10q-129 0 -207 -40t-77 -99zM471 954q277 0 375 -174q35 -62 35 -155v-625h-205v137q-48 -76 -144 -118t-185 -42q-166 0 -259 78q-92 78 -92 223t151 231q151 87 361 87q90 0 168 -8v37
q0 73 -56 109t-149 36q-177 0 -336 -92l-84 162q198 114 420 114zM711 1225l-432 -244l-89 137l404 287z" />
    <glyph glyph-name="acircumflex" unicode="&#xe2;" 
d="M201 279q0 -117 178 -117q122 0 209 59q88 59 88 152v35q-61 10 -191 10q-129 0 -207 -40t-77 -99zM471 954q277 0 375 -174q35 -62 35 -155v-625h-205v137q-48 -76 -144 -118t-185 -42q-166 0 -259 78q-92 78 -92 223t151 231q151 87 361 87q90 0 168 -8v37
q0 73 -56 109t-149 36q-177 0 -336 -92l-84 162q198 114 420 114zM791 1085l-80 -102l-242 205l-246 -207l-80 100l324 318z" />
    <glyph glyph-name="atilde" unicode="&#xe3;" 
d="M201 279q0 -117 178 -117q122 0 209 59q88 59 88 152v35q-61 10 -191 10q-129 0 -207 -40t-77 -99zM471 954q277 0 375 -174q35 -62 35 -155v-625h-205v137q-48 -76 -144 -118t-185 -42q-166 0 -259 78q-92 78 -92 223t151 231q151 87 361 87q90 0 168 -8v37
q0 73 -56 109t-149 36q-177 0 -336 -92l-84 162q198 114 420 114zM600 1040q-49 0 -84 18q-36 18 -66 40t-60 40t-74 19q-76 0 -146 -119l-121 70q102 203 275 203q50 -1 84 -19t65 -40t61 -40t73 -18q78 0 147 121l120 -70q-100 -205 -274 -205z" />
    <glyph glyph-name="adieresis" unicode="&#xe4;" 
d="M201 279q0 -117 178 -117q122 0 209 59q88 59 88 152v35q-61 10 -191 10q-129 0 -207 -40t-77 -99zM471 954q277 0 375 -174q35 -62 35 -155v-625h-205v137q-48 -76 -144 -118t-185 -42q-166 0 -259 78q-92 78 -92 223t151 231q151 87 361 87q90 0 168 -8v37
q0 73 -56 109t-149 36q-177 0 -336 -92l-84 162q198 114 420 114zM406 1053h-252v252h252v-252zM778 1053h-252v252h252v-252z" />
    <glyph glyph-name="aring" unicode="&#xe5;" 
d="M201 279q0 -117 178 -117q122 0 209 59q88 59 88 152v35q-61 10 -191 10q-129 0 -207 -40t-77 -99zM471 954q277 0 375 -174q35 -62 35 -155v-625h-205v137q-48 -76 -144 -118t-185 -42q-166 0 -259 78q-92 78 -92 223t151 231q151 87 361 87q90 0 168 -8v37
q0 73 -56 109t-149 36q-177 0 -336 -92l-84 162q198 114 420 114zM375 1258q1 -38 27 -66q26 -27 65 -27t65 27q26 28 27 66q-1 38 -27 65t-65 27t-65 -27t-27 -65zM627 1417q65 -66 65 -160q0 -93 -66 -159t-159 -66q-94 0 -159 65q-66 65 -66 160t66 161t159 65
q95 0 160 -66z" />
    <glyph glyph-name="ae" unicode="&#xe6;" 
d="M303 395q-43 0 -81 -34.5t-38 -96.5q0 -98 74 -98q55 0 85 49t30 115v61q-27 4 -70 4zM651 770q-85 0 -92 -201h180q-4 119 -25.5 160t-62.5 41zM451 131q-93 -154 -213 -154q-123 0 -190.5 79.5t-67.5 178.5q0 175 91.5 260t225.5 85q44 0 76 -7v60q0 137 -100 137
t-156 -96l-125 119q55 86 132 123.5t138 37.5q164 0 209 -129q66 129 205 129q238 0 254 -231t16 -336h-387q0 -125 35 -172t80 -47q69 0 88 80l174 -58q-35 -108 -97.5 -160.5t-167.5 -52.5t-153.5 54.5t-66.5 99.5z" />
    <glyph glyph-name="ccedilla" unicode="&#xe7;" 
d="M590 -41q0 -144 -95 -237t-253 -93v178q172 0 172 152v23q-203 22 -318.5 150t-115.5 336t130 347t318 139q96 0 167 -40t103 -117v135h185v-434h-185q0 123 -67.5 196.5t-171.5 73.5t-188.5 -79t-84.5 -224q0 -146 86 -223.5t215 -77.5q185 0 304 115l106 -146
q-128 -128 -307 -149v-25z" />
    <glyph glyph-name="egrave" unicode="&#xe8;" 
d="M469 768q-98 0 -176 -54t-94 -145h538q-16 91 -93 145t-175 54zM487 164q185 0 304 115l106 -146q-91 -90 -191 -123t-214 -33q-224 0 -368 137t-144 350t136 352q136 138 358 138q223 0 360 -153t137 -414h-781q16 -95 92 -159t205 -64zM344 1405l404 -287l-89 -137
l-432 244z" />
    <glyph glyph-name="eacute" unicode="&#xe9;" 
d="M469 768q-98 0 -176 -54t-94 -145h538q-16 91 -93 145t-175 54zM487 164q185 0 304 115l106 -146q-91 -90 -191 -123t-214 -33q-224 0 -368 137t-144 350t136 352q136 138 358 138q223 0 360 -153t137 -414h-781q16 -95 92 -159t205 -64zM711 1225l-432 -244l-89 137
l404 287z" />
    <glyph glyph-name="ecircumflex" unicode="&#xea;" 
d="M469 768q-98 0 -176 -54t-94 -145h538q-16 91 -93 145t-175 54zM487 164q185 0 304 115l106 -146q-91 -90 -191 -123t-214 -33q-224 0 -368 137t-144 350t136 352q136 138 358 138q223 0 360 -153t137 -414h-781q16 -95 92 -159t205 -64zM791 1085l-80 -102l-242 205
l-246 -207l-80 100l324 318z" />
    <glyph glyph-name="edieresis" unicode="&#xeb;" 
d="M469 768q-98 0 -176 -54t-94 -145h538q-16 91 -93 145t-175 54zM487 164q185 0 304 115l106 -146q-91 -90 -191 -123t-214 -33q-224 0 -368 137t-144 350t136 352q136 138 358 138q223 0 360 -153t137 -414h-781q16 -95 92 -159t205 -64zM406 1053h-252v252h252v-252z
M778 1053h-252v252h252v-252z" />
    <glyph glyph-name="igrave" unicode="&#xec;" 
d="M782 0h-626v186h206v559h-206v187h413v-746h213v-186zM344 1405l404 -287l-89 -137l-432 244z" />
    <glyph glyph-name="iacute" unicode="&#xed;" 
d="M782 0h-626v186h206v559h-206v187h413v-746h213v-186zM711 1225l-432 -244l-89 137l404 287z" />
    <glyph glyph-name="icircumflex" unicode="&#xee;" 
d="M782 0h-626v186h206v559h-206v187h413v-746h213v-186zM791 1085l-80 -102l-242 205l-246 -207l-80 100l324 318z" />
    <glyph glyph-name="idieresis" unicode="&#xef;" 
d="M782 0h-626v186h206v559h-206v187h413v-746h213v-186zM406 1053h-252v252h252v-252zM778 1053h-252v252h252v-252z" />
    <glyph glyph-name="eth" unicode="&#xf0;" 
d="M743 537q0 71 -12 133q-256 -23 -400.5 -105t-144.5 -211q0 -92 64.5 -141t191.5 -49t214 96t87 277zM950 537q0 -260 -140 -410t-362 -150q-223 0 -345.5 96.5t-122.5 287.5t178 314t499 175q-61 88 -157 154l-148 -148l-119 121l111 110q-68 33 -143 60l63 180
q105 -40 219 -100l146 145l119 -121l-115 -114q317 -239 317 -600z" />
    <glyph glyph-name="ntilde" unicode="&#xf1;" 
d="M883 0h-207v575q0 109 -41 151t-119 42q-116 0 -188 -93t-72 -257v-418h-207v932h207v-234q31 120 115 188t217 68t214 -93t81 -286v-575zM600 1040q-49 0 -84 18q-36 18 -66 40t-60 40t-74 19q-76 0 -146 -119l-121 70q102 203 275 203q50 -1 84 -19t65 -40t61 -40
t73 -18q78 0 147 121l120 -70q-100 -205 -274 -205z" />
    <glyph glyph-name="ograve" unicode="&#xf2;" 
d="M672 683q-78 85 -206 85q-127 0 -203 -85q-77 -85 -77 -216t75 -217t205 -86t207 85t77 218q0 131 -78 216zM821 112q-135 -135 -353 -135t-353 135t-135 352t134 354q134 136 354 136t354 -136t134 -354q0 -217 -135 -352zM344 1405l404 -287l-89 -137l-432 244z" />
    <glyph glyph-name="oacute" unicode="&#xf3;" 
d="M672 683q-78 85 -206 85q-127 0 -203 -85q-77 -85 -77 -216t75 -217t205 -86t207 85t77 218q0 131 -78 216zM821 112q-135 -135 -353 -135t-353 135t-135 352t134 354q134 136 354 136t354 -136t134 -354q0 -217 -135 -352zM711 1225l-432 -244l-89 137l404 287z" />
    <glyph glyph-name="ocircumflex" unicode="&#xf4;" 
d="M672 683q-78 85 -206 85q-127 0 -203 -85q-77 -85 -77 -216t75 -217t205 -86t207 85t77 218q0 131 -78 216zM821 112q-135 -135 -353 -135t-353 135t-135 352t134 354q134 136 354 136t354 -136t134 -354q0 -217 -135 -352zM791 1085l-80 -102l-242 205l-246 -207
l-80 100l324 318z" />
    <glyph glyph-name="otilde" unicode="&#xf5;" 
d="M672 683q-78 85 -206 85q-127 0 -203 -85q-77 -85 -77 -216t75 -217t205 -86t207 85t77 218q0 131 -78 216zM821 112q-135 -135 -353 -135t-353 135t-135 352t134 354q134 136 354 136t354 -136t134 -354q0 -217 -135 -352zM600 1040q-49 0 -84 18q-36 18 -66 40t-60 40
t-74 19q-76 0 -146 -119l-121 70q102 203 275 203q50 -1 84 -19t65 -40t61 -40t73 -18q78 0 147 121l120 -70q-100 -205 -274 -205z" />
    <glyph glyph-name="odieresis" unicode="&#xf6;" 
d="M672 683q-78 85 -206 85q-127 0 -203 -85q-77 -85 -77 -216t75 -217t205 -86t207 85t77 218q0 131 -78 216zM821 112q-135 -135 -353 -135t-353 135t-135 352t134 354q134 136 354 136t354 -136t134 -354q0 -217 -135 -352zM406 1053h-252v252h252v-252zM778 1053h-252
v252h252v-252z" />
    <glyph glyph-name="divide" unicode="&#xf7;" 
d="M932 385h-932v187h932v-187zM592 -20h-252v252h252v-252zM592 725h-252v252h252v-252z" />
    <glyph glyph-name="oslash" unicode="&#xf8;" 
d="M184 464q0 -64 19 -116l436 363q-70 57 -154 57t-136 -23.5t-89 -63.5t-56.5 -96.5t-19.5 -120.5zM449 164q149 0 224 85.5t75 215.5q0 63 -19 119l-438 -365q75 -55 158 -55zM-23 449q0 230 135.5 367.5t340.5 137.5t342 -114l137 114v-202l-39 -33q61 -116 61 -239
q0 -233 -135 -368t-340 -135t-342 113l-137 -113v203l39 33q-62 114 -62 236z" />
    <glyph glyph-name="ugrave" unicode="&#xf9;" 
d="M49 932h207v-576q0 -108 41 -150t119 -42q114 0 187 93t73 257v418h207v-932h-207v233q-31 -120 -115 -188t-217 -68q-133 -1 -214 93t-81 286v576zM344 1405l404 -287l-89 -137l-432 244z" />
    <glyph glyph-name="uacute" unicode="&#xfa;" 
d="M49 932h207v-576q0 -108 41 -150t119 -42q114 0 187 93t73 257v418h207v-932h-207v233q-31 -120 -115 -188t-217 -68q-133 -1 -214 93t-81 286v576zM711 1225l-432 -244l-89 137l404 287z" />
    <glyph glyph-name="ucircumflex" unicode="&#xfb;" 
d="M49 932h207v-576q0 -108 41 -150t119 -42q114 0 187 93t73 257v418h207v-932h-207v233q-31 -120 -115 -188t-217 -68q-133 -1 -214 93t-81 286v576zM791 1085l-80 -102l-242 205l-246 -207l-80 100l324 318z" />
    <glyph glyph-name="udieresis" unicode="&#xfc;" 
d="M49 932h207v-576q0 -108 41 -150t119 -42q114 0 187 93t73 257v418h207v-932h-207v233q-31 -120 -115 -188t-217 -68q-133 -1 -214 93t-81 286v576zM406 1053h-252v252h252v-252zM778 1053h-252v252h252v-252z" />
    <glyph glyph-name="yacute" unicode="&#xfd;" 
d="M186 -197q93 0 127 82l37 90l-356 957h215l256 -705l237 705h222l-402 -1114q-45 -121 -131 -166t-192 -45t-199 35l43 190q78 -29 143 -29zM711 1225l-432 -244l-89 137l404 287z" />
    <glyph glyph-name="thorn" unicode="&#xfe;" 
d="M461 164q117 0 190.5 83t73.5 218t-73.5 219t-190.5 84q-53 0 -110.5 -21.5t-94.5 -62.5v-436q37 -41 94.5 -62.5t110.5 -21.5zM256 -373h-207v1678h207v-457q118 106 258 106q182 0 300 -138.5t118 -350.5t-117.5 -350t-300.5 -138q-137 0 -258 109v-459z" />
    <glyph glyph-name="ydieresis" unicode="&#xff;" 
d="M186 -197q93 0 127 82l37 90l-356 957h215l256 -705l237 705h222l-402 -1114q-45 -121 -131 -166t-192 -45t-199 35l43 190q78 -29 143 -29zM406 1053h-252v252h252v-252zM778 1053h-252v252h252v-252z" />
    <glyph glyph-name="Amacron" unicode="&#x100;" 
d="M305 494h322l-160 538zM776 0l-94 311h-432l-92 -311h-217l407 1305h238l407 -1305h-217zM745 1415h-559v175h559v-175z" />
    <glyph glyph-name="amacron" unicode="&#x101;" 
d="M201 279q0 -117 178 -117q122 0 209 59q88 59 88 152v35q-61 10 -191 10q-129 0 -207 -40t-77 -99zM471 954q277 0 375 -174q35 -62 35 -155v-625h-205v137q-48 -76 -144 -118t-185 -42q-166 0 -259 78q-92 78 -92 223t151 231q151 87 361 87q90 0 168 -8v37
q0 73 -56 109t-149 36q-177 0 -336 -92l-84 162q198 114 420 114zM745 1044h-559v175h559v-175z" />
    <glyph glyph-name="Abreve" unicode="&#x102;" 
d="M305 494h322l-160 538zM776 0l-94 311h-432l-92 -311h-217l407 1305h238l407 -1305h-217zM466 1403q-192 0 -327 135l121 119q94 -94 207 -94t207 94l121 -119q-137 -135 -329 -135z" />
    <glyph glyph-name="abreve" unicode="&#x103;" 
d="M201 279q0 -117 178 -117q122 0 209 59q88 59 88 152v35q-61 10 -191 10q-129 0 -207 -40t-77 -99zM471 954q277 0 375 -174q35 -62 35 -155v-625h-205v137q-48 -76 -144 -118t-185 -42q-166 0 -259 78q-92 78 -92 223t151 231q151 87 361 87q90 0 168 -8v37
q0 73 -56 109t-149 36q-177 0 -336 -92l-84 162q198 114 420 114zM466 1032q-192 0 -327 135l121 119q94 -94 207 -94t207 94l121 -119q-137 -135 -329 -135z" />
    <glyph glyph-name="Aogonek" unicode="&#x104;" 
d="M305 494h322l-160 538zM813 -141q0 77 53 141h-90l-94 311h-432l-92 -311h-217l407 1305h238l407 -1305q-39 -44 -39 -106t44 -93.5t108 -31.5v-148q-135 0 -214 59.5t-79 178.5z" />
    <glyph glyph-name="aogonek" unicode="&#x105;" 
d="M201 279q0 -117 178 -117q122 0 209.5 59t87.5 152v35q-61 10 -191 10q-129 0 -206.5 -40t-77.5 -99zM700 -141q0 78 54 141h-78v137q-49 -76 -144.5 -118t-184.5 -42q-166 0 -258.5 78t-92.5 223t151 231.5t361 86.5q90 0 168 -8v37q0 73 -56.5 109t-148.5 36
q-177 0 -336 -92l-84 162q198 114 420 114q277 0 343.5 -118.5t66.5 -210.5v-625q-39 -44 -39 -106t44 -93.5t107 -31.5v-148q-135 0 -214 59.5t-79 178.5z" />
    <glyph glyph-name="Cacute" unicode="&#x106;" 
d="M481 -23q-255 -1 -387 207q-114 177 -114 469q0 455 264 617q92 56 233 57q141 0 227 -100q28 -33 41 -76v154h187v-494h-187q0 216 -146 301q-50 29 -128 29t-134 -43t-90 -113q-33 -70 -47 -157t-14 -175q0 -207 60 -333q74 -156 235 -156q127 0 195 81t110 218
l166 -64q-105 -422 -471 -422zM711 1600l-432 -244l-89 137l404 287z" />
    <glyph glyph-name="cacute" unicode="&#x107;" 
d="M487 164q185 0 304 115l106 -146q-89 -90 -189 -123t-216 -33q-234 0 -373 132t-139 350q0 217 130 356t318 139q96 0 167 -40t103 -117v135h185v-434h-185q0 122 -68 196t-171 74q-104 0 -189 -79q-84 -79 -84 -224q0 -146 86 -223q86 -78 215 -78zM711 1227l-432 -244
l-89 137l404 287z" />
    <glyph glyph-name="Ccircumflex" unicode="&#x108;" 
d="M481 -23q-255 -1 -387 207q-114 177 -114 469q0 455 264 617q92 56 233 57q141 0 227 -100q28 -33 41 -76v154h187v-494h-187q0 216 -146 301q-50 29 -128 29t-134 -43t-90 -113q-33 -70 -47 -157t-14 -175q0 -207 60 -333q74 -156 235 -156q127 0 195 81t110 218
l166 -64q-105 -422 -471 -422zM791 1460l-80 -102l-242 205l-246 -207l-80 100l324 318z" />
    <glyph glyph-name="ccircumflex" unicode="&#x109;" 
d="M487 164q185 0 304 115l106 -146q-89 -90 -189 -123t-216 -33q-234 0 -373 132t-139 350q0 217 130 356t318 139q96 0 167 -40t103 -117v135h185v-434h-185q0 122 -68 196t-171 74q-104 0 -189 -79q-84 -79 -84 -224q0 -146 86 -223q86 -78 215 -78zM791 1087l-80 -102
l-242 205l-246 -207l-80 100l324 318z" />
    <glyph glyph-name="Cdotaccent" unicode="&#x10a;" 
d="M481 -23q-255 -1 -387 207q-114 177 -114 469q0 455 264 617q92 56 233 57q141 0 227 -100q28 -33 41 -76v154h187v-494h-187q0 216 -146 301q-50 29 -128 29t-134 -43t-90 -113q-33 -70 -47 -157t-14 -175q0 -207 60 -333q74 -156 235 -156q127 0 195 81t110 218
l166 -64q-105 -422 -471 -422zM592 1424h-252v252h252v-252z" />
    <glyph glyph-name="cdotaccent" unicode="&#x10b;" 
d="M487 164q185 0 304 115l106 -146q-89 -90 -189 -123t-216 -33q-234 0 -373 132t-139 350q0 217 130 356t318 139q96 0 167 -40t103 -117v135h185v-434h-185q0 122 -68 196t-171 74q-104 0 -189 -79q-84 -79 -84 -224q0 -146 86 -223q86 -78 215 -78zM592 1053h-252v252
h252v-252z" />
    <glyph glyph-name="Ccaron" unicode="&#x10c;" 
d="M481 -23q-255 -1 -387 207q-114 177 -114 469q0 455 264 617q92 56 233 57q141 0 227 -100q28 -33 41 -76v154h187v-494h-187q0 216 -146 301q-50 29 -128 29t-134 -43t-90 -113q-33 -70 -47 -157t-14 -175q0 -207 60 -333q74 -156 235 -156q127 0 195 81t110 218
l166 -64q-105 -422 -471 -422zM467 1356l-324 317l80 101l246 -207l242 205l80 -103z" />
    <glyph glyph-name="ccaron" unicode="&#x10d;" 
d="M487 164q185 0 304 115l106 -146q-89 -90 -189 -123t-216 -33q-234 0 -373 132t-139 350q0 217 130 356t318 139q96 0 167 -40t103 -117v135h185v-434h-185q0 122 -68 196t-171 74q-104 0 -189 -79q-84 -79 -84 -224q0 -146 86 -223q86 -78 215 -78zM467 983l-324 317
l80 101l246 -207l242 205l80 -103z" />
    <glyph glyph-name="Dcaron" unicode="&#x10e;" 
d="M768 654q0 224 -77 344t-218 120h-217v-932h217q141 0 218 122t77 346zM860 196q-132 -195 -387 -196h-424v1305h424q251 0 385 -196q118 -173 117 -458q1 -284 -115 -455zM467 1356l-324 317l80 101l246 -207l242 205l80 -103z" />
    <glyph glyph-name="dcaron" unicode="&#x10f;" 
d="M873 747v557h245l-83 -557h-162zM395 768q-92 0 -150.5 -84t-58.5 -219t58.5 -218t150.5 -83q43 0 89 21.5t75 62.5v436q-29 41 -75 62.5t-89 21.5zM336 954q121 0 223 -106v270h-186v187h393v-1305h-207v86q-105 -109 -223 -109q-153 0 -254.5 136t-101.5 352
t101.5 352.5t254.5 136.5z" />
    <glyph glyph-name="Dcroat" unicode="&#x110;" 
d="M768 654q0 224 -77 344t-218 120h-217v-360h184v-187h-184v-385h217q141 0 218 122t77 346zM-117 758h166v547h424q251 0 385 -196q118 -173 117 -456q1 -449 -271 -600q-96 -53 -231 -53h-424v571h-166v187z" />
    <glyph glyph-name="dcroat" unicode="&#x111;" 
d="M469 768q-117 0 -190.5 -84t-73.5 -219t73.5 -218t190.5 -83q53 0 111.5 21.5t95.5 62.5v436q-37 41 -95.5 62.5t-111.5 21.5zM416 954q140 0 260 -106v141h-180v174h180v142h207v-142h172v-174h-172v-989h-207v86q-123 -109 -260 -109q-182 0 -300 137t-118 351
t118.5 351.5t299.5 137.5z" />
    <glyph glyph-name="Emacron" unicode="&#x112;" 
d="M883 0h-834v1305h834v-187h-627v-360h489v-187h-489v-385h627v-186zM745 1415h-559v175h559v-175z" />
    <glyph glyph-name="emacron" unicode="&#x113;" 
d="M469 768q-98 0 -176 -54t-94 -145h538q-16 91 -93 145t-175 54zM487 164q185 0 304 115l106 -146q-91 -90 -191 -123t-214 -33q-224 0 -368 137t-144 350t136 352q136 138 358 138q223 0 360 -153t137 -414h-781q16 -95 92 -159t205 -64zM745 1044h-559v175h559v-175z
" />
    <glyph glyph-name="Ebreve" unicode="&#x114;" 
d="M883 0h-834v1305h834v-187h-627v-360h489v-187h-489v-385h627v-186zM466 1403q-192 0 -327 135l121 119q94 -94 207 -94t207 94l121 -119q-137 -135 -329 -135z" />
    <glyph glyph-name="ebreve" unicode="&#x115;" 
d="M469 768q-98 0 -176 -54t-94 -145h538q-16 91 -93 145t-175 54zM487 164q185 0 304 115l106 -146q-91 -90 -191 -123t-214 -33q-224 0 -368 137t-144 350t136 352q136 138 358 138q223 0 360 -153t137 -414h-781q16 -95 92 -159t205 -64zM466 1032q-192 0 -327 135
l121 119q94 -94 207 -94t207 94l121 -119q-137 -135 -329 -135z" />
    <glyph glyph-name="Edotaccent" unicode="&#x116;" 
d="M883 0h-834v1305h834v-187h-627v-360h489v-187h-489v-385h627v-186zM592 1424h-252v252h252v-252z" />
    <glyph glyph-name="edotaccent" unicode="&#x117;" 
d="M469 768q-98 0 -176 -54t-94 -145h538q-16 91 -93 145t-175 54zM487 164q185 0 304 115l106 -146q-91 -90 -191 -123t-214 -33q-224 0 -368 137t-144 350t136 352q136 138 358 138q223 0 360 -153t137 -414h-781q16 -95 92 -159t205 -64zM592 1053h-252v252h252v-252z
" />
    <glyph glyph-name="Eogonek" unicode="&#x118;" 
d="M702 -141q0 78 54 141h-707v1305h834v-187h-627v-360h489v-187h-489v-385h627v-186q-39 -44 -39 -106t44 -93.5t107 -31.5v-148q-135 0 -214 59.5t-79 178.5z" />
    <glyph glyph-name="eogonek" unicode="&#x119;" 
d="M469 768q-98 0 -176 -54.5t-94 -144.5h538q-16 90 -93 144.5t-175 54.5zM487 164q185 0 304 115l106 -146q-99 -99 -225 -133q-39 -44 -39 -106t44 -93.5t107 -31.5v-148q-135 0 -213.5 59.5t-78.5 178.5q0 60 36 121q-10 -3 -12 -3h-29q-218 0 -362.5 137t-144.5 350
t136 351.5t358 138.5q223 0 360 -152.5t137 -414.5h-781q15 -96 91.5 -159.5t205.5 -63.5z" />
    <glyph glyph-name="Ecaron" unicode="&#x11a;" 
d="M883 0h-834v1305h834v-187h-627v-360h489v-187h-489v-385h627v-186zM467 1352l-324 317l80 101l246 -207l242 205l80 -103z" />
    <glyph glyph-name="ecaron" unicode="&#x11b;" 
d="M469 768q-98 0 -176 -54t-94 -145h538q-16 91 -93 145t-175 54zM487 164q185 0 304 115l106 -146q-91 -90 -191 -123t-214 -33q-224 0 -368 137t-144 350t136 352q136 138 358 138q223 0 360 -153t137 -414h-781q16 -95 92 -159t205 -64zM467 981l-324 317l80 101
l246 -207l242 205l80 -103z" />
    <glyph glyph-name="Gcircumflex" unicode="&#x11c;" 
d="M983 649q1 -461 -269 -617q-96 -56 -233 -55t-232 57t-155 149t-88 215q-26 122 -26 253q0 293 114 469q133 207 387 207q85 1 140 -33q102 -62 124 -143v154h187v-463h-187q0 125 -74 212t-176 87t-158 -44t-90 -114q-33 -70 -47 -157t-14 -175q0 -205 60 -331
q74 -156 235 -156q255 0 312 332h-275v186h465v-33zM791 1456l-80 -102l-242 205l-246 -207l-80 100l324 318z" />
    <glyph glyph-name="gcircumflex" unicode="&#x11d;" 
d="M467 768q-117 0 -189 -82t-73 -208q0 -126 74 -210t188 -84q55 0 113 22t96 64v414q-38 40 -96 62t-113 22zM416 954q140 0 260 -106v84h207v-922q0 -188 -124 -297q-124 -108 -321 -108q-243 0 -415 147l98 160q143 -123 317 -123q106 1 172 53t66 164v100
q-64 -56 -123 -82t-143 -26t-161 38t-133 104t-86 152q-32 87 -32 185q0 200 119 338q120 139 299 139zM791 1085l-80 -102l-242 205l-246 -207l-80 100l324 318z" />
    <glyph glyph-name="Gbreve" unicode="&#x11e;" 
d="M983 649q1 -461 -269 -617q-96 -56 -233 -55t-232 57t-155 149t-88 215q-26 122 -26 253q0 293 114 469q133 207 387 207q85 1 140 -33q102 -62 124 -143v154h187v-463h-187q0 125 -74 212t-176 87t-158 -44t-90 -114q-33 -70 -47 -157t-14 -175q0 -205 60 -331
q74 -156 235 -156q255 0 312 332h-275v186h465v-33zM466 1403q-192 0 -327 135l121 119q94 -94 207 -94t207 94l121 -119q-137 -135 -329 -135z" />
    <glyph glyph-name="gbreve" unicode="&#x11f;" 
d="M467 768q-117 0 -189 -82t-73 -208q0 -126 74 -210t188 -84q55 0 113 22t96 64v414q-38 40 -96 62t-113 22zM416 954q140 0 260 -106v84h207v-922q0 -188 -124 -297q-124 -108 -321 -108q-243 0 -415 147l98 160q143 -123 317 -123q106 1 172 53t66 164v100
q-64 -56 -123 -82t-143 -26t-161 38t-133 104t-86 152q-32 87 -32 185q0 200 119 338q120 139 299 139zM466 1032q-192 0 -327 135l121 119q94 -94 207 -94t207 94l121 -119q-137 -135 -329 -135z" />
    <glyph glyph-name="Gdotaccent" unicode="&#x120;" 
d="M983 649q1 -461 -269 -617q-96 -56 -233 -55t-232 57t-155 149t-88 215q-26 122 -26 253q0 293 114 469q133 207 387 207q85 1 140 -33q102 -62 124 -143v154h187v-463h-187q0 125 -74 212t-176 87t-158 -44t-90 -114q-33 -70 -47 -157t-14 -175q0 -205 60 -331
q74 -156 235 -156q255 0 312 332h-275v186h465v-33zM592 1424h-252v252h252v-252z" />
    <glyph glyph-name="gdotaccent" unicode="&#x121;" 
d="M467 768q-117 0 -189 -82t-73 -208q0 -126 74 -210t188 -84q55 0 113 22t96 64v414q-38 40 -96 62t-113 22zM416 954q140 0 260 -106v84h207v-922q0 -188 -124 -297q-124 -108 -321 -108q-243 0 -415 147l98 160q143 -123 317 -123q106 1 172 53t66 164v100
q-64 -56 -123 -82t-143 -26t-161 38t-133 104t-86 152q-32 87 -32 185q0 200 119 338q120 139 299 139zM592 1053h-252v252h252v-252z" />
    <glyph glyph-name="Gcommaaccent" unicode="&#x122;" 
d="M983 649q1 -461 -269 -617q-96 -56 -233 -55t-232 57t-155 149t-88 215q-26 122 -26 253q0 293 114 469q133 207 387 207q85 1 140 -33q102 -62 124 -143v154h187v-463h-187q0 125 -74 212t-176 87t-158 -44t-90 -114q-33 -70 -47 -157t-14 -175q0 -205 60 -331
q74 -156 235 -156q255 0 312 332h-275v186h465v-33zM684 -109l-192 -264h-191l105 264h278z" />
    <glyph glyph-name="gcommaaccent" unicode="&#x123;" 
d="M467 768q-117 0 -189.5 -82t-72.5 -208t74 -210t188 -84q55 0 113.5 22.5t95.5 63.5v414q-37 41 -95.5 62.5t-113.5 21.5zM416 954q140 0 260 -106v84h207v-922q0 -188 -124 -296.5t-321 -108.5q-243 0 -415 147l98 160q143 -123 317 -123q107 0 172.5 52.5t65.5 164.5
v100q-64 -55 -123 -81.5t-143 -26.5t-161 38t-132.5 103.5t-87 152.5t-31.5 236t119.5 287.5t298.5 138.5zM270 1118l172 373h158l-84 -373h-246z" />
    <glyph glyph-name="Hcircumflex" unicode="&#x124;" 
d="M883 0h-207v571h-420v-571h-207v1305h207v-547h420v547h207v-1305zM791 1456l-80 -102l-242 205l-246 -207l-80 100l324 318z" />
    <glyph glyph-name="hcircumflex" unicode="&#x125;" 
d="M883 0h-207v575q0 109 -41 151t-119 42q-116 0 -188 -93t-72 -257v-418h-207v1305h207v-607q31 120 115 188t217 68t214 -93t81 -286v-575zM791 1456l-80 -102l-242 205l-246 -207l-80 100l324 318z" />
    <glyph glyph-name="Hbar" unicode="&#x126;" 
d="M676 758v186h-420v-186h420zM883 1118h186v-174h-186v-944h-207v571h-420v-571h-207v944h-186v174h186v187h207v-187h420v187h207v-187z" />
    <glyph glyph-name="hbar" unicode="&#x127;" 
d="M883 0h-207v575q0 109 -41 151t-119 42q-115 0 -187.5 -93t-72.5 -257v-418h-207v989h-172v174h172v142h207v-142h180v-174h-180v-291q31 121 115 188.5t217 67.5t214 -93t81 -286v-575z" />
    <glyph glyph-name="Itilde" unicode="&#x128;" 
d="M782 0h-626v186h206v932h-206v187h626v-187h-213v-932h213v-186zM600 1411q-49 1 -84 19q-36 18 -66 40t-60 40t-74 18q-76 0 -146 -119l-121 70q102 203 275 203q50 0 84 -18t65 -40t61 -40t73 -19q78 0 147 121l120 -70q-100 -205 -274 -205z" />
    <glyph glyph-name="itilde" unicode="&#x129;" 
d="M782 0h-626v186h206v559h-206v187h413v-746h213v-186zM600 1040q-49 0 -84 18q-36 18 -66 40t-60 40t-74 19q-76 0 -146 -119l-121 70q102 203 275 203q50 -1 84 -19t65 -40t61 -40t73 -18q78 0 147 121l120 -70q-100 -205 -274 -205z" />
    <glyph glyph-name="Imacron" unicode="&#x12a;" 
d="M782 0h-626v186h206v932h-206v187h626v-187h-213v-932h213v-186zM745 1415h-559v175h559v-175z" />
    <glyph glyph-name="imacron" unicode="&#x12b;" 
d="M782 0h-626v186h206v559h-206v187h413v-746h213v-186zM745 1044h-559v175h559v-175z" />
    <glyph glyph-name="Ibreve" unicode="&#x12c;" 
d="M782 0h-626v186h206v932h-206v187h626v-187h-213v-932h213v-186zM466 1403q-192 0 -327 135l121 119q94 -94 207 -94t207 94l121 -119q-137 -135 -329 -135z" />
    <glyph glyph-name="ibreve" unicode="&#x12d;" 
d="M782 0h-626v186h206v559h-206v187h413v-746h213v-186zM466 1032q-192 0 -327 135l121 119q94 -94 207 -94t207 94l121 -119q-137 -135 -329 -135z" />
    <glyph glyph-name="Iogonek" unicode="&#x12e;" 
d="M602 -141q0 77 53 141h-499v186h206v932h-206v187h626v-187h-213v-932h213v-186q-39 -44 -39 -106t44 -93.5t108 -31.5v-148q-135 0 -214 59.5t-79 178.5z" />
    <glyph glyph-name="iogonek" unicode="&#x12f;" 
d="M592 1053h-252v252h252v-252zM602 -141q0 77 53 141h-499v186h206v559h-206v187h413v-746h213v-186q-39 -44 -39 -106t44 -93.5t108 -31.5v-148q-135 0 -214 59.5t-79 178.5z" />
    <glyph glyph-name="Idotaccent" unicode="&#x130;" 
d="M782 0h-626v186h206v932h-206v187h626v-187h-213v-932h213v-186zM592 1424h-252v252h252v-252z" />
    <glyph glyph-name="dotlessi" unicode="&#x131;" 
d="M782 0h-626v186h206v559h-206v187h413v-746h213v-186z" />
    <glyph glyph-name="IJ" unicode="&#x132;" 
d="M596 0h-626v186h206v932h-206v187h626v-187h-213v-932h213v-186zM745 125v1180h207v-1180q0 -248 -106 -384t-306 -136t-323 104l125 156q70 -74 189 -74q214 0 214 334z" />
    <glyph glyph-name="ij" unicode="&#x133;" 
d="M627 0h-626v186h206v559h-206v187h413v-746h213v-186zM437 1053h-252v252h252v-252zM995 1053h-252v252h252v-252zM766 0v745h-211v187h418v-932q0 -178 -113 -287q-113 -108 -312 -108q-200 0 -331 159l123 138q93 -111 210 -111q116 -1 166 57t50 152z" />
    <glyph glyph-name="Jcircumflex" unicode="&#x134;" 
d="M676 498v807h207v-807q1 -248 -105 -384t-323 -137q-174 -1 -292 91t-165 274l186 70q61 -248 271 -248q179 0 211 208q10 60 10 126zM791 1456l-80 -102l-242 205l-246 -207l-80 100l324 318z" />
    <glyph glyph-name="jcircumflex" unicode="&#x135;" 
d="M883 1085l-80 -102l-242 205l-246 -207l-80 100l324 318zM333 -209q116 0 166 57.5t50 151.5v745h-211v187h418v-932q0 -178 -112.5 -286.5t-312.5 -108.5t-331 159l123 138q94 -111 210 -111z" />
    <glyph glyph-name="Kcommaaccent" unicode="&#x136;" 
d="M256 0h-207v1305h207v-512l406 512h266l-455 -541l453 -764h-242l-342 608l-86 -102v-506zM684 -109l-192 -264h-191l105 264h278z" />
    <glyph glyph-name="kcommaaccent" unicode="&#x137;" 
d="M256 0h-207v1305h207v-768l373 395h284l-430 -428l447 -504h-268l-312 377l-94 -96v-281zM684 -109l-192 -264h-191l105 264h278z" />
    <glyph glyph-name="kgreenlandic" unicode="&#x138;" 
d="M256 0h-207v932h207v-395l373 395h284l-430 -428l447 -504h-268l-312 377l-94 -96v-281z" />
    <glyph glyph-name="Lacute" unicode="&#x139;" 
d="M883 0h-834v1305h207v-1119h627v-186zM711 1596l-432 -244l-89 137l404 287z" />
    <glyph glyph-name="lacute" unicode="&#x13a;" 
d="M784 0h-626v186h204v932h-204v187h411v-1119h215v-186zM711 1596l-432 -244l-89 137l404 287z" />
    <glyph glyph-name="Lcommaaccent" unicode="&#x13b;" 
d="M883 0h-834v1305h207v-1119h627v-186zM684 -109l-192 -264h-191l105 264h278z" />
    <glyph glyph-name="lcommaaccent" unicode="&#x13c;" 
d="M784 0h-626v186h204v932h-204v187h411v-1119h215v-186zM684 -109l-192 -264h-191l105 264h278z" />
    <glyph glyph-name="Lcaron" unicode="&#x13d;" 
d="M883 0h-834v1305h207v-1119h627v-186zM559 748v557h245l-83 -557h-162z" />
    <glyph glyph-name="lcaron" unicode="&#x13e;" 
d="M784 0h-626v186h204v932h-204v187h411v-1119h215v-186zM746 748v557h245l-83 -557h-162z" />
    <glyph glyph-name="Ldot" unicode="&#x13f;" 
d="M883 0h-834v1305h207v-1119h627v-186zM811 493h-252v252h252v-252z" />
    <glyph glyph-name="ldot" unicode="&#x140;" 
d="M784 0h-626v186h204v932h-204v187h411v-1119h215v-186zM1151 352h-252v252h252v-252z" />
    <glyph glyph-name="Lslash" unicode="&#x141;" 
d="M883 0h-834v520l-174 -57v188l174 58v596h207v-529l178 62v-189l-178 -61v-402h627v-186z" />
    <glyph glyph-name="lslash" unicode="&#x142;" 
d="M784 0h-626v186h204v334l-178 -59v188l178 60v409h-204v187h411v-529l174 60v-189l-174 -59v-402h215v-186z" />
    <glyph glyph-name="Nacute" unicode="&#x143;" 
d="M883 0h-240l-387 946v-946h-207v1305h260l367 -899v899h207v-1305zM711 1596l-432 -244l-89 137l404 287z" />
    <glyph glyph-name="nacute" unicode="&#x144;" 
d="M883 0h-207v575q0 109 -41 151t-119 42q-116 0 -188 -93t-72 -257v-418h-207v932h207v-234q31 120 115 188t217 68t214 -93t81 -286v-575zM711 1225l-432 -244l-89 137l404 287z" />
    <glyph glyph-name="Ncommaaccent" unicode="&#x145;" 
d="M883 0h-240l-387 946v-946h-207v1305h260l367 -899v899h207v-1305zM684 -109l-192 -264h-191l105 264h278z" />
    <glyph glyph-name="ncommaaccent" unicode="&#x146;" 
d="M883 0h-207v575q0 109 -41 151t-119 42q-116 0 -188 -93t-72 -257v-418h-207v932h207v-234q31 120 115 188t217 68t214 -93t81 -286v-575zM684 -109l-192 -264h-191l105 264h278z" />
    <glyph glyph-name="Ncaron" unicode="&#x147;" 
d="M883 0h-240l-387 946v-946h-207v1305h260l367 -899v899h207v-1305zM467 1352l-324 317l80 101l246 -207l242 205l80 -103z" />
    <glyph glyph-name="ncaron" unicode="&#x148;" 
d="M883 0h-207v575q0 109 -41 151t-119 42q-116 0 -188 -93t-72 -257v-418h-207v932h207v-234q31 120 115 188t217 68t214 -93t81 -286v-575zM467 981l-324 317l80 101l246 -207l242 205l80 -103z" />
    <glyph glyph-name="napostrophe" unicode="&#x149;" 
d="M883 0h-207v575q0 109 -41 151t-119 42q-116 0 -188 -93t-72 -257v-418h-207v932h207v-234q31 120 115 188t217 68t214 -93t81 -286v-575zM1 1118v557h245l-83 -557h-162z" />
    <glyph glyph-name="Eng" unicode="&#x14a;" 
d="M883 125q0 -248 -105.5 -384t-306.5 -136t-324 104l125 156q70 -74 170 -74t147.5 48t67.5 120l-401 987v-946h-207v1305h260l367 -899v899h207v-1180z" />
    <glyph glyph-name="eng" unicode="&#x14b;" 
d="M484 -209q91 0 141.5 57.5t50.5 151.5v575q0 109 -41 151t-119 42q-115 0 -187.5 -93t-72.5 -257v-418h-207v932h207v-234q31 121 115 188.5t217 67.5t214 -93t81 -286v-575q0 -178 -112.5 -286.5t-299.5 -108.5q-127 0 -225 57l84 174q63 -45 154 -45z" />
    <glyph glyph-name="Omacron" unicode="&#x14c;" 
d="M174 653q0 -333 148 -446q56 -43 145 -43t145 43t88 113t46 157q14 88 14 176q0 204 -60 332q-72 156 -224 156t-227 -129t-75 -359zM-33 653q0 131 28 253t87 215q58 93 154 149t231 57q135 -1 231 -57t155 -149q60 -93 87 -215t27 -253t-27 -253t-86 -216
q-58 -94 -154 -150t-233 -57q-137 1 -233 57t-154 150q-60 94 -86 216t-27 253zM745 1415h-559v175h559v-175z" />
    <glyph glyph-name="omacron" unicode="&#x14d;" 
d="M672 683q-78 85 -206 85q-127 0 -203 -85q-77 -85 -77 -216t75 -217t205 -86t207 85t77 218q0 131 -78 216zM821 112q-135 -135 -353 -135t-353 135t-135 352t134 354q134 136 354 136t354 -136t134 -354q0 -217 -135 -352zM745 1044h-559v175h559v-175z" />
    <glyph glyph-name="Obreve" unicode="&#x14e;" 
d="M174 653q0 -333 148 -446q56 -43 145 -43t145 43t88 113t46 157q14 88 14 176q0 204 -60 332q-72 156 -224 156t-227 -129t-75 -359zM-33 653q0 131 28 253t87 215q58 93 154 149t231 57q135 -1 231 -57t155 -149q60 -93 87 -215t27 -253t-27 -253t-86 -216
q-58 -94 -154 -150t-233 -57q-137 1 -233 57t-154 150q-60 94 -86 216t-27 253zM466 1403q-192 0 -327 135l121 119q94 -94 207 -94t207 94l121 -119q-137 -135 -329 -135z" />
    <glyph glyph-name="obreve" unicode="&#x14f;" 
d="M672 683q-78 85 -206 85q-127 0 -203 -85q-77 -85 -77 -216t75 -217t205 -86t207 85t77 218q0 131 -78 216zM821 112q-135 -135 -353 -135t-353 135t-135 352t134 354q134 136 354 136t354 -136t134 -354q0 -217 -135 -352zM466 1032q-192 0 -327 135l121 119
q94 -94 207 -94t207 94l121 -119q-137 -135 -329 -135z" />
    <glyph glyph-name="Ohungarumlaut" unicode="&#x150;" 
d="M174 653q0 -333 148 -446q56 -43 145 -43t145 43t88 113t46 157q14 88 14 176q0 204 -60 332q-72 156 -224 156t-227 -129t-75 -359zM-33 653q0 131 28 253t87 215q58 93 154 149t231 57q135 -1 231 -57t155 -149q60 -93 87 -215t27 -253t-27 -253t-86 -216
q-58 -94 -154 -150t-233 -57q-137 1 -233 57t-154 150q-60 94 -86 216t-27 253zM326 1395h-170l139 375h217zM698 1395h-172l142 375h217z" />
    <glyph glyph-name="ohungarumlaut" unicode="&#x151;" 
d="M672 683q-78 85 -206 85q-127 0 -203 -85q-77 -85 -77 -216t75 -217t205 -86t207 85t77 218q0 131 -78 216zM821 112q-135 -135 -353 -135t-353 135t-135 352t134 354q134 136 354 136t354 -136t134 -354q0 -217 -135 -352zM326 1024h-170l139 375h217zM698 1024h-172
l142 375h217z" />
    <glyph glyph-name="OE" unicode="&#x152;" 
d="M273 1141q-83 0 -83 -424q0 -307 16.5 -395.5t37 -123t51.5 -34.5t51.5 34.5t30.5 99t14 155.5t4 199t-4 198t-19.5 190.5t-98.5 100.5zM276 1327q126 0 183 -149v127h473v-187h-336v-360h246v-187h-246v-385h336v-186h-473v123q-53 -146 -183 -146q-292 0 -292 675
t292 675z" />
    <glyph glyph-name="oe" unicode="&#x153;" 
d="M362 466q0 302 -91 302t-91 -302t91 -302t91 302zM758 571q0 93 -18 145t-74 52t-74.5 -52t-22.5 -145h189zM569 385q0 -96 26 -158.5t73 -62.5t69.5 25.5t32.5 84.5l182 -53q-28 -123 -97 -183.5t-161 -60.5q-180 0 -229 203q-43 -203 -211 -203q-281 1 -281 489
t281 488q164 0 209 -192q43 192 219 192q248 0 265.5 -237.5t17.5 -331.5h-396z" />
    <glyph glyph-name="Racute" unicode="&#x154;" 
d="M725 916q1 102 -65 152t-181 50h-223v-403h223q115 0 181 50q66 49 65 151zM256 528v-528h-207v1305h430q215 -1 334 -99t119 -277t-98 -274t-256 -116l372 -539h-262l-338 528h-94zM711 1596l-432 -244l-89 137l404 287z" />
    <glyph glyph-name="racute" unicode="&#x155;" 
d="M754 748q-155 0 -245 -84q-91 -84 -91 -246v-232h209v-186h-627v186h211v559h-211v187h418v-234q50 140 150 198t219 58t200 -41l-78 -202q-77 37 -155 37zM711 1225l-432 -244l-89 137l404 287z" />
    <glyph glyph-name="Rcommaaccent" unicode="&#x156;" 
d="M725 916q1 102 -65 152t-181 50h-223v-403h223q115 0 181 50q66 49 65 151zM256 528v-528h-207v1305h430q215 -1 334 -99t119 -277t-98 -274t-256 -116l372 -539h-262l-338 528h-94zM684 -109l-192 -264h-191l105 264h278z" />
    <glyph glyph-name="rcommaaccent" unicode="&#x157;" 
d="M754 748q-155 0 -245 -84q-91 -84 -91 -246v-232h209v-186h-627v186h211v559h-211v187h418v-234q50 140 150 198t219 58t200 -41l-78 -202q-77 37 -155 37zM684 -109l-192 -264h-191l105 264h278z" />
    <glyph glyph-name="Rcaron" unicode="&#x158;" 
d="M725 916q1 102 -65 152t-181 50h-223v-403h223q115 0 181 50q66 49 65 151zM256 528v-528h-207v1305h430q215 -1 334 -99t119 -277t-98 -274t-256 -116l372 -539h-262l-338 528h-94zM467 1352l-324 317l80 101l246 -207l242 205l80 -103z" />
    <glyph glyph-name="rcaron" unicode="&#x159;" 
d="M754 748q-155 0 -245 -84q-91 -84 -91 -246v-232h209v-186h-627v186h211v559h-211v187h418v-234q50 140 150 198t219 58t200 -41l-78 -202q-77 37 -155 37zM467 981l-324 317l80 101l246 -207l242 205l80 -103z" />
    <glyph glyph-name="Sacute" unicode="&#x15a;" 
d="M213 0h-186v426h186q0 -121 79 -193q79 -71 182 -71q218 0 218 180q0 130 -147 194q-47 20 -113 44q-186 67 -263 128q-126 99 -126 266t111 260t274 93q90 0 154 -38t100 -101v117h186v-406h-186q0 115 -60 179t-157 65q-95 0 -155 -42t-60 -118q0 -101 135 -159
q45 -20 111 -44q186 -68 271 -138q132 -109 132 -284q0 -174 -111 -278q-111 -103 -293 -103q-183 0 -282 142v-119zM711 1596l-432 -244l-89 137l404 287z" />
    <glyph glyph-name="sacute" unicode="&#x15b;" 
d="M774 684q-134 84 -298 84t-222 -50q-22 -20 -23 -48q-1 -36 65 -60t188 -42q229 -34 315 -86q108 -67 108 -215q-1 -149 -147 -228q-114 -62 -270 -62q-295 0 -500 134l86 170q201 -117 385 -117q239 0 239 100q0 42 -70 66t-194 43q-126 19 -190 37q-222 60 -221 254
q-1 142 139 222q118 68 297 68q233 0 395 -110zM711 1225l-432 -244l-89 137l404 287z" />
    <glyph glyph-name="Scircumflex" unicode="&#x15c;" 
d="M213 0h-186v426h186q0 -121 79 -193q79 -71 182 -71q218 0 218 180q0 130 -147 194q-47 20 -113 44q-186 67 -263 128q-126 99 -126 266t111 260t274 93q90 0 154 -38t100 -101v117h186v-406h-186q0 115 -60 179t-157 65q-95 0 -155 -42t-60 -118q0 -101 135 -159
q45 -20 111 -44q186 -68 271 -138q132 -109 132 -284q0 -174 -111 -278q-111 -103 -293 -103q-183 0 -282 142v-119zM791 1456l-80 -102l-242 205l-246 -207l-80 100l324 318z" />
    <glyph glyph-name="scircumflex" unicode="&#x15d;" 
d="M774 684q-134 84 -298 84t-222 -50q-22 -20 -23 -48q-1 -36 65 -60t188 -42q229 -34 315 -86q108 -67 108 -215q-1 -149 -147 -228q-114 -62 -270 -62q-295 0 -500 134l86 170q201 -117 385 -117q239 0 239 100q0 42 -70 66t-194 43q-126 19 -190 37q-222 60 -221 254
q-1 142 139 222q118 68 297 68q233 0 395 -110zM791 1085l-80 -102l-242 205l-246 -207l-80 100l324 318z" />
    <glyph glyph-name="Scedilla" unicode="&#x15e;" 
d="M242 -193q172 0 172 152v27q-123 24 -201 133v-119h-186v426h186q0 -121 79 -192.5t182 -71.5q218 0 218 180q0 130 -97 172t-163 66q-186 67 -287.5 147t-101.5 247t111 260t274 93q90 0 154.5 -38t99.5 -101v117h186v-406h-186q0 115 -60.5 179.5t-156.5 64.5
t-155.5 -42t-59.5 -118q0 -100 90 -139.5t156 -63.5q186 -68 294.5 -157.5t108.5 -251.5t-84 -261t-225 -124v-27q0 -144 -95 -237t-253 -93v178z" />
    <glyph glyph-name="scedilla" unicode="&#x15f;" 
d="M774 684q-134 84 -298 84t-204.5 -35t-40.5 -63q0 -37 65.5 -60.5t187.5 -41.5q229 -33 326 -92.5t97 -196.5q0 -192 -128 -237.5t-189 -53.5v-29q0 -144 -95 -237t-253 -93v178q172 0 172 152v21q-246 13 -424 131l86 170q201 -117 385 -117q239 0 239 100
q0 42 -70 65.5t-194 43.5q-125 20 -268 59t-143 232q0 142 129 216t307 74q233 0 395 -110z" />
    <glyph glyph-name="Scaron" unicode="&#x160;" 
d="M213 0h-186v426h186q0 -121 79 -193q79 -71 182 -71q218 0 218 180q0 130 -147 194q-47 20 -113 44q-186 67 -263 128q-126 99 -126 266t111 260t274 93q90 0 154 -38t100 -101v117h186v-406h-186q0 115 -60 179t-157 65q-95 0 -155 -42t-60 -118q0 -101 135 -159
q45 -20 111 -44q186 -68 271 -138q132 -109 132 -284q0 -174 -111 -278q-111 -103 -293 -103q-183 0 -282 142v-119zM467 1352l-324 317l80 101l246 -207l242 205l80 -103z" />
    <glyph glyph-name="scaron" unicode="&#x161;" 
d="M774 684q-134 84 -298 84t-222 -50q-22 -20 -23 -48q-1 -36 65 -60t188 -42q229 -34 315 -86q108 -67 108 -215q-1 -149 -147 -228q-114 -62 -270 -62q-295 0 -500 134l86 170q201 -117 385 -117q239 0 239 100q0 42 -70 66t-194 43q-126 19 -190 37q-222 60 -221 254
q-1 142 139 222q118 68 297 68q233 0 395 -110zM467 981l-324 317l80 101l246 -207l242 205l80 -103z" />
    <glyph glyph-name="Tcommaaccent" unicode="&#x162;" 
d="M930 829h-185v289h-176v-932h207v-186h-620v186h206v932h-178v-289h-184v476h930v-476zM684 -109l-192 -264h-191l105 264h278z" />
    <glyph glyph-name="tcommaaccent" unicode="&#x163;" 
d="M211 342v403h-211v187h211v373h207v-373h391v-187h-391v-403q0 -90 44 -134t124 -44t123 51t51 123l182 -41q-16 -147 -116 -233t-256 -87t-258 101t-101 264zM684 -109l-192 -264h-191l105 264h278z" />
    <glyph glyph-name="Tcaron" unicode="&#x164;" 
d="M930 829h-185v289h-176v-932h207v-186h-620v186h206v932h-178v-289h-184v476h930v-476zM467 1352l-324 317l80 101l246 -207l242 205l80 -103z" />
    <glyph glyph-name="tcaron" unicode="&#x165;" 
d="M211 342v403h-211v187h211v373h207v-373h391v-187h-391v-403q0 -90 44 -134t124 -44t123 51t51 123l182 -41q-16 -147 -116 -233t-256 -87t-258 101t-101 264zM746 1118v557h245l-83 -557h-162z" />
    <glyph glyph-name="Tbar" unicode="&#x166;" 
d="M745 571h-176v-385h207v-186h-620v186h206v385h-176v174h176v373h-178v-289h-184v476h930v-476h-185v289h-176v-373h176v-174z" />
    <glyph glyph-name="tbar" unicode="&#x167;" 
d="M211 342v43h-211v174h211v186h-211v187h211v373h207v-373h391v-187h-391v-186h209v-174h-209v-43q0 -90 44 -134t124 -44t123 51t51 123l182 -41q-16 -147 -116 -233.5t-256 -86.5t-257.5 101.5t-101.5 263.5z" />
    <glyph glyph-name="Utilde" unicode="&#x168;" 
d="M465 164q211 0 211 301v840h207v-840q0 -351 -231 -453q-80 -35 -188 -35q-207 0 -311 129t-104 361v838h207v-840q0 -125 28 -184q28 -61 71 -89q42 -28 110 -28zM600 1411q-49 1 -84 19q-36 18 -66 40t-60 40t-74 18q-76 0 -146 -119l-121 70q102 203 275 203
q50 0 84 -18t65 -40t61 -40t73 -19q78 0 147 121l120 -70q-100 -205 -274 -205z" />
    <glyph glyph-name="utilde" unicode="&#x169;" 
d="M49 932h207v-576q0 -108 41 -150t119 -42q114 0 187 93t73 257v418h207v-932h-207v233q-31 -120 -115 -188t-217 -68q-133 -1 -214 93t-81 286v576zM600 1040q-49 0 -84 18q-36 18 -66 40t-60 40t-74 19q-76 0 -146 -119l-121 70q102 203 275 203q50 -1 84 -19t65 -40
t61 -40t73 -18q78 0 147 121l120 -70q-100 -205 -274 -205z" />
    <glyph glyph-name="Umacron" unicode="&#x16a;" 
d="M465 164q211 0 211 301v840h207v-840q0 -351 -231 -453q-80 -35 -188 -35q-207 0 -311 129t-104 361v838h207v-840q0 -125 28 -184q28 -61 71 -89q42 -28 110 -28zM745 1415h-559v175h559v-175z" />
    <glyph glyph-name="umacron" unicode="&#x16b;" 
d="M49 932h207v-576q0 -108 41 -150t119 -42q114 0 187 93t73 257v418h207v-932h-207v233q-31 -120 -115 -188t-217 -68q-133 -1 -214 93t-81 286v576zM745 1044h-559v175h559v-175z" />
    <glyph glyph-name="Ubreve" unicode="&#x16c;" 
d="M465 164q211 0 211 301v840h207v-840q0 -351 -231 -453q-80 -35 -188 -35q-207 0 -311 129t-104 361v838h207v-840q0 -125 28 -184q28 -61 71 -89q42 -28 110 -28zM466 1403q-192 0 -327 135l121 119q94 -94 207 -94t207 94l121 -119q-137 -135 -329 -135z" />
    <glyph glyph-name="ubreve" unicode="&#x16d;" 
d="M49 932h207v-576q0 -108 41 -150t119 -42q114 0 187 93t73 257v418h207v-932h-207v233q-31 -120 -115 -188t-217 -68q-133 -1 -214 93t-81 286v576zM466 1032q-192 0 -327 135l121 119q94 -94 207 -94t207 94l121 -119q-137 -135 -329 -135z" />
    <glyph glyph-name="Uring" unicode="&#x16e;" 
d="M465 164q211 0 211 301v840h207v-840q0 -351 -231 -453q-80 -35 -188 -35q-207 0 -311 129t-104 361v838h207v-840q0 -125 28 -184q28 -61 71 -89q42 -28 110 -28zM375 1628q1 -38 27 -65t65 -27t65 27t27 65q-1 38 -27 66q-26 27 -65 27t-65 -27q-26 -28 -27 -66z
M627 1788q65 -66 65 -160t-66 -160t-159 -65q-94 0 -159 65q-66 65 -66 160q0 94 66 160t159 66q95 0 160 -66z" />
    <glyph glyph-name="uring" unicode="&#x16f;" 
d="M49 932h207v-576q0 -108 41 -150t119 -42q114 0 187 93t73 257v418h207v-932h-207v233q-31 -120 -115 -188t-217 -68q-133 -1 -214 93t-81 286v576zM375 1258q1 -38 27 -66q26 -27 65 -27t65 27q26 28 27 66q-1 38 -27 65t-65 27t-65 -27t-27 -65zM627 1417
q65 -66 65 -160q0 -93 -66 -159t-159 -66q-94 0 -159 65q-66 65 -66 160t66 161t159 65q95 0 160 -66z" />
    <glyph glyph-name="Uhungarumlaut" unicode="&#x170;" 
d="M465 164q211 0 211 301v840h207v-840q0 -351 -231 -453q-80 -35 -188 -35q-207 0 -311 129t-104 361v838h207v-840q0 -125 28 -184q28 -61 71 -89q42 -28 110 -28zM326 1395h-170l139 375h217zM698 1395h-172l142 375h217z" />
    <glyph glyph-name="uhungarumlaut" unicode="&#x171;" 
d="M49 932h207v-576q0 -108 41 -150t119 -42q114 0 187 93t73 257v418h207v-932h-207v233q-31 -120 -115 -188t-217 -68q-133 -1 -214 93t-81 286v576zM326 1024h-170l139 375h217zM698 1024h-172l142 375h217z" />
    <glyph glyph-name="Uogonek" unicode="&#x172;" 
d="M465 164q211 0 211 301v840h207v-840q0 -381 -265 -465q-38 -44 -38 -106t44 -93.5t107 -31.5v-148q-135 0 -214 59.5t-79 178.5q0 65 37 118h-10q-207 0 -311.5 128.5t-104.5 361.5v838h207v-840q0 -125 28.5 -184.5t70.5 -88t110 -28.5z" />
    <glyph glyph-name="uogonek" unicode="&#x173;" 
d="M702 -141q0 78 54 141h-80v233q-31 -120 -115 -188t-217 -68t-214 93.5t-81 285.5v576h207v-576q0 -108 41 -150t119 -42q114 0 187 93t73 257v418h207v-932q-39 -44 -39 -106t44 -93.5t107 -31.5v-148q-135 0 -214 59.5t-79 178.5z" />
    <glyph glyph-name="Wcircumflex" unicode="&#x174;" 
d="M995 1305l-202 -1305h-213l-115 563l-113 -563h-213l-202 1305h215l120 -879l95 506h198l92 -506l123 879h215zM791 1456l-80 -102l-242 205l-246 -207l-80 100l324 318z" />
    <glyph glyph-name="wcircumflex" unicode="&#x175;" 
d="M961 932l-140 -932h-256l-98 561l-100 -561h-256l-140 932h203l82 -623l100 623h219l101 -623l82 623h203zM791 1085l-80 -102l-242 205l-246 -207l-80 100l324 318z" />
    <glyph glyph-name="Ycircumflex" unicode="&#x176;" 
d="M952 1118h-94l-289 -586v-346h209v-186h-624v186h208v346l-288 586h-94v187h411v-187h-90l166 -383l164 383h-90v187h411v-187zM791 1456l-80 -102l-242 205l-246 -207l-80 100l324 318z" />
    <glyph glyph-name="ycircumflex" unicode="&#x177;" 
d="M186 -197q93 0 127 82l37 90l-356 957h215l256 -705l237 705h222l-402 -1114q-45 -121 -131 -166t-192 -45t-199 35l43 190q78 -29 143 -29zM791 1085l-80 -102l-242 205l-246 -207l-80 100l324 318z" />
    <glyph glyph-name="Ydieresis" unicode="&#x178;" 
d="M952 1118h-94l-289 -586v-346h209v-186h-624v186h208v346l-288 586h-94v187h411v-187h-90l166 -383l164 383h-90v187h411v-187zM406 1424h-252v252h252v-252zM778 1424h-252v252h252v-252z" />
    <glyph glyph-name="Zacute" unicode="&#x179;" 
d="M883 0h-834v184l584 934h-397v-284h-187v471h817v-187l-567 -932h401v287h183v-473zM711 1596l-432 -244l-89 137l404 287z" />
    <glyph glyph-name="zacute" unicode="&#x17a;" 
d="M883 0h-834v184l531 561h-349v-188h-182v375h815v-187l-532 -559h368v185h183v-371zM711 1225l-432 -244l-89 137l404 287z" />
    <glyph glyph-name="Zdotaccent" unicode="&#x17b;" 
d="M883 0h-834v184l584 934h-397v-284h-187v471h817v-187l-567 -932h401v287h183v-473zM592 1424h-252v252h252v-252z" />
    <glyph glyph-name="zdotaccent" unicode="&#x17c;" 
d="M883 0h-834v184l531 561h-349v-188h-182v375h815v-187l-532 -559h368v185h183v-371zM592 1053h-252v252h252v-252z" />
    <glyph glyph-name="Zcaron" unicode="&#x17d;" 
d="M883 0h-834v184l584 934h-397v-284h-187v471h817v-187l-567 -932h401v287h183v-473zM467 1352l-324 317l80 101l246 -207l242 205l80 -103z" />
    <glyph glyph-name="zcaron" unicode="&#x17e;" 
d="M883 0h-834v184l531 561h-349v-188h-182v375h815v-187l-532 -559h368v185h183v-371zM467 981l-324 317l80 101l246 -207l242 205l80 -103z" />
    <glyph glyph-name="longs" unicode="&#x17f;" 
d="M799 1327q46 0 133 -10v-182q-60 6 -124 6q-138 0 -188.5 -46.5t-50.5 -162.5v-746h213v-186h-626v186h206v559h-206v187h206q0 192 118 293.5t319 101.5z" />
    <glyph glyph-name="florin" unicode="&#x192;" 
d="M133 -395q-63 0 -133 8v184q57 -6 106 -6q146 0 201 46t55 147v761h-206v187h206q0 192 118 293.5t319 101.5q46 0 133 -10v-182q-60 6 -124 6q-138 0 -188.5 -46.5t-50.5 -162.5h363v-187h-363v-761q0 -191 -117.5 -285t-318.5 -94z" />
    <glyph glyph-name="AEacute" unicode="&#x1fc;" 
d="M395 494v516l-127 -516h127zM395 0v311h-170l-75 -311h-213l364 1305h631v-187h-330v-360h281v-187h-281v-385h330v-186h-537zM711 1600l-432 -244l-89 137l404 287z" />
    <glyph glyph-name="aeacute" unicode="&#x1fd;" 
d="M303 395q-43 -1 -81 -35t-38 -96q0 -98 74 -98q55 0 85 49t30 115v61q-27 4 -70 4zM651 770q-85 0 -92 -201h180q-3 119 -25 160t-63 41zM451 131q-93 -154 -213 -154q-123 0 -190 79q-68 79 -68 179q0 175 92 260t225 85q44 0 76 -7v60q0 137 -100 137t-156 -96
l-125 119q55 85 132 123t138 38q164 0 209 -129q66 129 205 129q238 0 263 -361q7 -101 7 -206h-387q0 -125 35 -172t80 -47q69 0 88 80l174 -58q-36 -108 -98 -160t-167 -53t-175 79q-26 30 -45 75zM711 1227l-432 -244l-89 137l404 287z" />
    <glyph glyph-name="Oslashacute" unicode="&#x1fe;" 
d="M746 477q14 88 14 161t-10 175l-508 -510q75 -139 225 -139q231 0 279 313zM474 1141q-150 0 -225 -129t-75 -359q0 -114 12 -182l514 514q-76 156 -226 156zM-33 617q0 322 115 504q131 206 383 206t381 -194l133 133v-222l-61 -61q49 -153 49 -307q0 -312 -113 -492
q-130 -208 -379 -207q-250 0 -379 181l-137 -138v222l61 61q-53 147 -53 314zM711 1600l-432 -244l-89 137l404 287z" />
    <glyph glyph-name="oslashacute" unicode="&#x1ff;" 
d="M184 464q0 -64 19 -116l436 363q-70 57 -154 57t-136 -24t-89 -63q-36 -41 -56 -97t-20 -120zM449 164q149 0 224 86t75 215q0 63 -19 119l-438 -365q75 -55 158 -55zM-23 449q0 230 135 367q135 138 341 138q205 0 342 -114l137 114v-202l-39 -33q61 -116 61 -239
q0 -233 -135 -368t-340 -135t-342 113l-137 -113v203l39 33q-62 114 -62 236zM711 1227l-432 -244l-89 137l404 287z" />
    <glyph glyph-name="Scommaaccent" unicode="&#x218;" 
d="M213 0h-186v426h186q0 -121 79 -193q79 -71 182 -71q218 0 218 180q0 130 -147 194q-47 20 -113 44q-186 67 -263 128q-126 99 -126 266t111 260t274 93q90 0 154 -38t100 -101v117h186v-406h-186q0 115 -60 179t-157 65q-95 0 -155 -42t-60 -118q0 -101 135 -159
q45 -20 111 -44q186 -68 271 -138q132 -109 132 -284q0 -174 -111 -278q-111 -103 -293 -103q-183 0 -282 142v-119zM684 -109l-192 -264h-191l105 264h278z" />
    <glyph glyph-name="scommaaccent" unicode="&#x219;" 
d="M774 684q-134 84 -298 84t-222 -50q-22 -20 -23 -48q-1 -36 65 -60t188 -42q229 -34 315 -86q108 -67 108 -215q-1 -149 -147 -228q-114 -62 -270 -62q-295 0 -500 134l86 170q201 -117 385 -117q239 0 239 100q0 42 -70 66t-194 43q-126 19 -190 37q-222 60 -221 254
q-1 142 139 222q118 68 297 68q233 0 395 -110zM684 -109l-192 -264h-191l105 264h278z" />
    <glyph glyph-name="uni021A" unicode="&#x21a;" 
d="M930 829h-185v289h-176v-932h207v-186h-620v186h206v932h-178v-289h-184v476h930v-476zM684 -109l-192 -264h-191l105 264h278z" />
    <glyph glyph-name="uni021B" unicode="&#x21b;" 
d="M211 342v403h-211v187h211v373h207v-373h391v-187h-391v-403q0 -90 44 -134t124 -44t123 51t51 123l182 -41q-16 -147 -116 -233t-256 -87t-258 101t-101 264zM684 -109l-192 -264h-191l105 264h278z" />
    <glyph glyph-name="circumflex" unicode="&#x2c6;" 
d="M791 1085l-80 -102l-242 205l-246 -207l-80 100l324 318z" />
    <glyph glyph-name="caron" unicode="&#x2c7;" 
d="M467 981l-324 317l80 101l246 -207l242 205l80 -103z" />
    <glyph glyph-name="breve" unicode="&#x2d8;" 
d="M466 1032q-192 0 -327 135l121 119q94 -94 207 -94t207 94l121 -119q-137 -135 -329 -135z" />
    <glyph glyph-name="dotaccent" unicode="&#x2d9;" 
d="M592 1053h-252v252h252v-252z" />
    <glyph glyph-name="ring" unicode="&#x2da;" 
d="M375 1258q0 -38 26.5 -65.5t65.5 -27.5t65.5 27.5t26.5 65.5t-26.5 65t-65.5 27t-65.5 -27t-26.5 -65zM627 1416.5q65 -66.5 65 -159.5q0 -94 -65.5 -159.5t-159 -65.5t-159.5 64.5t-66 160.5q0 95 65.5 160.5t160 65.5t159.5 -66.5z" />
    <glyph glyph-name="ogonek" unicode="&#x2db;" 
d="M993 -379q-135 0 -214 59.5t-79 178.5q0 65 35 116.5t82 79.5l64 -55q-39 -44 -39 -106t44 -93.5t107 -31.5v-148z" />
    <glyph glyph-name="tilde" unicode="&#x2dc;" 
d="M600 1040q-49 0 -84 18.5t-65.5 40t-60.5 40t-74 18.5q-76 0 -146 -119l-121 70q102 203 275 203q49 0 83.5 -18.5t65.5 -40t60.5 -40t73.5 -18.5q78 0 147 121l120 -70q-100 -205 -274 -205z" />
    <glyph glyph-name="hungarumlaut" unicode="&#x2dd;" 
d="M326 1024h-170l139 375h217zM698 1024h-172l142 375h217z" />
    <glyph glyph-name="tonos" unicode="&#x384;" 
d="M373 1118v557h245l-83 -557h-162z" />
    <glyph glyph-name="dieresistonos" unicode="&#x385;" 
d="M373 1118v557h245l-83 -557h-162zM252 1118h-252v252h252v-252zM932 1118h-252v252h252v-252z" />
    <glyph glyph-name="Alphatonos" unicode="&#x386;" 
d="M305 494h322l-160 538zM776 0l-94 311h-432l-92 -311h-217l407 1305h238l407 -1305h-217zM1 1118v557h245l-83 -557h-162z" />
    <glyph glyph-name="Epsilontonos" unicode="&#x388;" 
d="M-185 1118v557h245l-83 -557h-162zM883 0h-834v1305h834v-187h-627v-360h489v-187h-489v-385h627v-186z" />
    <glyph glyph-name="Etatonos" unicode="&#x389;" 
d="M-185 1118v557h245l-83 -557h-162zM883 0h-207v571h-420v-571h-207v1305h207v-547h420v547h207v-1305z" />
    <glyph glyph-name="Iotatonos" unicode="&#x38a;" 
d="M0 1118v557h245l-83 -557h-162zM782 0h-626v186h206v932h-124v187h544v-187h-213v-932h213v-186z" />
    <glyph glyph-name="Omicrontonos" unicode="&#x38c;" 
d="M-185 1118v557h245l-83 -557h-162zM174 653q0 -333 148 -446q56 -43 145 -43t145 43t88 113t46 157q14 88 14 176q0 204 -60 332q-72 156 -224 156t-227 -129t-75 -359zM-33 653q0 131 28 253t87 215q58 93 154 149t231 57q135 -1 231 -57t155 -149q60 -93 87 -215
t27 -253t-27 -253t-86 -216q-58 -94 -154 -150t-233 -57q-137 1 -233 57t-154 150q-60 94 -86 216t-27 253z" />
    <glyph glyph-name="Upsilontonos" unicode="&#x38e;" 
d="M-186 1118v557h245l-83 -557h-162zM952 1118h-94l-289 -586v-346h209v-186h-624v186h208v346l-288 586h-25v187h342v-187h-90l166 -383l164 383h-90v187h411v-187z" />
    <glyph glyph-name="Omegatonos" unicode="&#x38f;" 
d="M-185 1118v557h245l-83 -557h-162zM745 741q0 161 -63 271q-74 130 -212 129q-137 0 -211 -121q-73 -121 -73 -301q0 -181 96 -294q36 -42 91 -67v-358h-373v186h213v45q-121 85 -177 223t-56 269t32 237t92 188q62 81 153 130t210 49q225 0 355 -171t130 -415
q0 -145 -52 -281t-177 -229v-45h209v-186h-373v358q186 85 186 383z" />
    <glyph glyph-name="iotadieresistonos" unicode="&#x390;" 
d="M665 160q44 0 74 20l43 -166q-76 -37 -176 -37q-100 -1 -172 59t-72 171v538h-176v187h383v-664q0 -68 26 -88t70 -20zM373 1118v557h245l-83 -557h-162zM252 1118h-252v252h252v-252zM932 1118h-252v252h252v-252z" />
    <glyph glyph-name="Alpha" unicode="&#x391;" 
d="M305 494h322l-160 538zM776 0l-94 311h-432l-92 -311h-217l407 1305h238l407 -1305h-217z" />
    <glyph glyph-name="Beta" unicode="&#x392;" 
d="M465 186q260 0 260 192.5t-260 192.5h-209v-385h209zM680 976q0 142 -238 142h-186v-360h186q106 0 172 38t66 180zM442 1305q443 0 443 -340q0 -99 -50.5 -181t-152.5 -118q125 -39 186.5 -109t61.5 -199q0 -178 -121 -268t-344 -90h-416v1305h393z" />
    <glyph glyph-name="Gamma" unicode="&#x393;" 
d="M49 1305h883v-187h-676v-1118h-207v1305z" />
    <glyph glyph-name="uni0394" unicode="&#x394;" 
d="M213 184h508l-254 848zM-59 0l407 1305h238l407 -1305h-1052z" />
    <glyph glyph-name="Epsilon" unicode="&#x395;" 
d="M883 0h-834v1305h834v-187h-627v-360h489v-187h-489v-385h627v-186z" />
    <glyph glyph-name="Zeta" unicode="&#x396;" 
d="M883 0h-834v184l584 934h-397v-284h-187v471h817v-187l-567 -932h401v287h183v-473z" />
    <glyph glyph-name="Eta" unicode="&#x397;" 
d="M883 0h-207v571h-420v-571h-207v1305h207v-547h420v547h207v-1305z" />
    <glyph glyph-name="Theta" unicode="&#x398;" 
d="M174 653q0 -333 102.5 -411t190.5 -78t144.5 43t89 112.5t46 157.5t13.5 234t-66 288t-218 142t-227 -129t-75 -359zM-33 653q0 131 28 253t87 215t154.5 149.5t230.5 56.5t230.5 -56.5t155.5 -149.5t87 -215t27 -253t-27 -252.5t-86 -216t-154.5 -151t-232.5 -56.5
t-232.5 56.5t-155 151t-86 216t-26.5 252.5zM229 758h471v-187h-471v187z" />
    <glyph glyph-name="Iota" unicode="&#x399;" 
d="M782 0h-626v186h206v932h-206v187h626v-187h-213v-932h213v-186z" />
    <glyph glyph-name="Kappa" unicode="&#x39a;" 
d="M256 0h-207v1305h207v-512l406 512h266l-455 -541l453 -764h-242l-342 608l-86 -102v-506z" />
    <glyph glyph-name="Lambda" unicode="&#x39b;" 
d="M774 0l-307 1032l-309 -1032h-217l407 1305h236l407 -1305h-217z" />
    <glyph glyph-name="Mu" unicode="&#x39c;" 
d="M883 0h-207v883l-131 -469h-160l-129 469v-883h-207v1305h246l170 -590l170 590h248v-1305z" />
    <glyph glyph-name="Nu" unicode="&#x39d;" 
d="M883 0h-240l-387 946v-946h-207v1305h260l367 -899v899h207v-1305z" />
    <glyph glyph-name="Xi" unicode="&#x39e;" 
d="M186 758h559v-187h-559v187zM745 1118h-559v-149h-186v336h932v-336h-187v149zM0 334h186v-148h559v148h187v-334h-932v334z" />
    <glyph glyph-name="Omicron" unicode="&#x39f;" 
d="M174 653q0 -333 102.5 -411t190.5 -78t144.5 43t89 112.5t46 157.5t13.5 234t-66 288t-218 142t-227 -129t-75 -359zM-33 653q0 131 28 253t87 215t154.5 149.5t230.5 56.5t230.5 -56.5t155.5 -149.5t87 -215t27 -253t-27 -252.5t-86 -216t-154.5 -151t-232.5 -56.5
t-232.5 56.5t-155 151t-86 216t-26.5 252.5z" />
    <glyph glyph-name="Pi" unicode="&#x3a0;" 
d="M883 0h-207v1118h-420v-1118h-207v1305h834v-1305z" />
    <glyph glyph-name="Rho" unicode="&#x3a1;" 
d="M725 916q0 102 -65.5 152t-178.5 50h-225v-403h225q113 0 178.5 49.5t65.5 151.5zM932 914q0 -194 -119 -290t-332 -96h-225v-528h-207v1305h430q215 0 334 -98.5t119 -292.5z" />
    <glyph glyph-name="Sigma" unicode="&#x3a3;" 
d="M883 0h-840v186l295 465l-295 467v187h840v-441h-187v254h-401l287 -467l-287 -465h401v256h187v-442z" />
    <glyph glyph-name="Tau" unicode="&#x3a4;" 
d="M930 829h-185v289h-176v-932h207v-186h-620v186h206v932h-178v-289h-184v476h930v-476z" />
    <glyph glyph-name="Upsilon" unicode="&#x3a5;" 
d="M952 1118h-94l-289 -586v-346h209v-186h-624v186h208v346l-288 586h-94v187h411v-187h-90l166 -383l164 383h-90v187h411v-187z" />
    <glyph glyph-name="Phi" unicode="&#x3a6;" 
d="M186 664q0 -102 45 -177t131 -106v569q-86 -30 -131 -107t-45 -179zM750 664q0 104 -48.5 181t-134.5 107v-573q86 31 134.5 106t48.5 179zM849 345q-107 -129 -282 -159v-186h-205v186q-176 33 -279 161t-103 318t103.5 318t278.5 162v160h205v-158q181 -35 285 -164
t104 -319t-107 -319z" />
    <glyph glyph-name="Chi" unicode="&#x3a7;" 
d="M952 0h-426v186h74l-137 295l-137 -295h73v-186h-422v186h113l254 473l-250 459h-94v187h414v-187h-84l133 -289l135 289h-82v187h416v-187h-101l-249 -459l254 -473h116v-186z" />
    <glyph glyph-name="Psi" unicode="&#x3a8;" 
d="M727 856v449h205v-449q0 -361 -139.5 -439.5t-223.5 -90.5v-326h-207v326q-169 26 -265.5 153t-96.5 377v449h207v-449q0 -273 155 -338v787h207v-787q158 66 158 338z" />
    <glyph glyph-name="uni03A9" unicode="&#x3a9;" 
d="M745 741q0 161 -68.5 280.5t-206.5 119.5q-137 0 -210.5 -120.5t-73.5 -301.5t65.5 -258.5t121.5 -102.5v-358h-373v186h213v45q-121 86 -177 223.5t-56 268.5t31.5 237.5t93 187.5t152.5 130t263 49t302 -171.5t130 -414.5q0 -145 -52 -281t-177 -229v-45h209v-186h-373
v358q186 85 186 383z" />
    <glyph glyph-name="Iotadieresis" unicode="&#x3aa;" 
d="M782 0h-626v186h206v932h-206v187h626v-187h-213v-932h213v-186zM406 1424h-252v252h252v-252zM778 1424h-252v252h252v-252z" />
    <glyph glyph-name="Upsilondieresis" unicode="&#x3ab;" 
d="M952 1118h-94l-289 -586v-346h209v-186h-624v186h208v346l-288 586h-94v187h411v-187h-90l166 -383l164 383h-90v187h411v-187zM406 1424h-252v252h252v-252zM778 1424h-252v252h252v-252z" />
    <glyph glyph-name="alphatonos" unicode="&#x3ac;" 
d="M84 811q104 143 295 143q121 0 191 -56t116 -165l43 199h209l-131 -467l131 -465h-209l-43 197q-46 -109 -116 -165t-180 -55q-110 0 -186 41q-75 41 -125 109q-99 135 -99 338t104 346zM238 255q52 -91 140 -91t154 98q44 67 86 203q-42 140 -78 194q-72 109 -162 109
q-89 0 -140 -91q-52 -91 -52 -211t52 -211zM373 1118v557h245l-83 -557h-162z" />
    <glyph glyph-name="epsilontonos" unicode="&#x3ad;" 
d="M0 264q0 72 56 132t149 77q-99 15 -151 75t-52 126q0 129 129 204q129 76 303 76t274 -50t162 -150l-151 -105q-76 119 -266 119q-111 0 -177 -30t-67 -71q0 -42 52 -69t157 -27h196v-186h-198q-105 0 -157 -33t-52 -79q1 -45 71 -77t176 -32t180 34q73 34 101 87
l162 -109q-125 -199 -430 -199q-204 0 -336 78q-131 78 -131 209zM373 1118v557h245l-83 -557h-162z" />
    <glyph glyph-name="etatonos" unicode="&#x3ae;" 
d="M115 954q227 0 235 -180q24 78 96 129t160 51q144 0 210 -93t67 -283v-951h-207v951q0 114 -33 152t-84 38q-86 0 -136 -74t-50 -215v-479h-207v682q0 42 -22 64t-52 22q-29 0 -72 -10l-40 168q64 28 135 28zM373 1118v557h245l-83 -557h-162z" />
    <glyph glyph-name="iotatonos" unicode="&#x3af;" 
d="M665 160q44 0 74 20l43 -166q-76 -37 -176 -37q-100 -1 -172 59t-72 171v538h-176v187h383v-664q0 -68 26 -88t70 -20zM373 1118v557h245l-83 -557h-162z" />
    <glyph glyph-name="upsilondieresistonos" unicode="&#x3b0;" 
d="M848 952q84 -197 84 -425q0 -229 -110 -377q-128 -174 -355 -173q-297 1 -388 215q-30 70 -30 166v574h207v-574q0 -98 62 -146t144 -48q142 0 208 114q54 95 55 236q0 218 -76 363zM373 1118v557h245l-83 -557h-162zM252 1118h-252v252h252v-252zM932 1118h-252v252h252
v-252z" />
    <glyph glyph-name="alpha" unicode="&#x3b1;" 
d="M84.5 811q104.5 143 294.5 143q121 0 190.5 -56t116.5 -165l43 199h209l-131 -467l131 -465h-209l-43 197q-47 -109 -116.5 -164.5t-179.5 -55.5t-185.5 41t-150 142.5t-74.5 304.5t104.5 346zM237.5 254.5q51.5 -90.5 140.5 -90.5t144 82.5t96 218.5q-42 140 -96 221.5
t-144 81.5q-89 0 -140.5 -90.5t-51.5 -211.5t51.5 -211.5z" />
    <glyph glyph-name="beta" unicode="&#x3b2;" 
d="M498 164q112 0 173.5 53t61.5 147t-64.5 150.5t-197.5 56.5h-98v187h92q113 0 162 56t49 142q0 119 -74 152t-122 33q-95 0 -159.5 -56t-64.5 -159v-652q86 -110 242 -110zM940 348q0 -164 -115 -267.5t-284 -103.5q-168 0 -285 97v-447h-207v1299q0 175 120.5 288
t304.5 113t296.5 -106.5t112.5 -226.5t-58.5 -202.5t-167.5 -119.5q283 -87 283 -324z" />
    <glyph glyph-name="gamma" unicode="&#x3b3;" 
d="M559 -373h-205v348l-354 957h221l258 -739q86 145 132 334.5t71 404.5h217q-81 -602 -340 -957v-348z" />
    <glyph glyph-name="delta" unicode="&#x3b4;" 
d="M686 406q0 152 -81 219t-120 94q-125 -68 -182 -144.5t-57 -176.5t59.5 -167t162.5 -67t160.5 67.5t57.5 174.5zM326 827q-129 99 -129 217q0 126 81.5 204.5t231.5 78.5t260 -74l-86 -155q-87 59 -178 59q-47 0 -77 -23.5t-30 -67.5t37 -83t91.5 -78t210 -145
t155.5 -354q0 -188 -117 -308.5t-312 -120.5t-310 119t-115 310q0 108 69.5 218.5t217.5 202.5z" />
    <glyph glyph-name="epsilon" unicode="&#x3b5;" 
d="M0 264q0 72 56.5 131.5t148.5 77.5q-99 16 -151 75.5t-52 125.5q0 129 128.5 204.5t303.5 75.5q174 0 274.5 -50t161.5 -150l-151 -105q-76 119 -266 119q-111 0 -177.5 -29.5t-66.5 -71.5t52 -69t157 -27h196v-186h-198q-105 0 -157 -33t-52 -79t70.5 -77.5t176.5 -31.5
t179.5 33.5t101.5 87.5l162 -109q-125 -199 -430 -199q-204 0 -335.5 78t-131.5 209z" />
    <glyph glyph-name="zeta" unicode="&#x3b6;" 
d="M0 475q0 395 584 643h-398v187h746v-187q-564 -166 -644.5 -357.5t-80.5 -285.5q0 -274 366 -295q175 -10 258.5 -83.5t83.5 -190.5q0 -181 -116.5 -229t-196.5 -50l-24 178q71 9 101 33.5t30 70.5q0 84 -160 93q-258 12 -403.5 129t-145.5 344z" />
    <glyph glyph-name="eta" unicode="&#x3b7;" 
d="M115 954q227 0 235 -180q23 78 95.5 129t160.5 51q144 0 210.5 -93t66.5 -283v-951h-207v951q0 114 -33 152t-84 38q-86 0 -136 -73.5t-50 -215.5v-479h-207v682q0 43 -22.5 64.5t-51.5 21.5t-72 -10l-40 168q64 28 135 28z" />
    <glyph glyph-name="theta" unicode="&#x3b8;" 
d="M442.5 1143q-83.5 0 -136.5 -110t-58 -275h440q-7 257 -84.5 321t-161 64zM494 164q88 0 140 115t56 292h-444q7 -282 83.5 -344.5t164.5 -62.5zM790.5 158q-104.5 -181 -321.5 -181t-322.5 178.5t-105.5 495.5q0 480 155.5 578t270.5 98t195.5 -50t156.5 -179t76 -444
t-104.5 -496z" />
    <glyph glyph-name="iota" unicode="&#x3b9;" 
d="M665 160q44 0 74 20l43 -166q-76 -37 -176 -37t-172 59.5t-72 170.5v538h-176v187h383v-664q0 -67 26 -87.5t70 -20.5z" />
    <glyph glyph-name="kappa" unicode="&#x3ba;" 
d="M256 0h-207v932h207v-395l373 395h284l-430 -428l447 -504h-268l-312 377l-94 -96v-281z" />
    <glyph glyph-name="lambda" unicode="&#x3bb;" 
d="M199 1327q106 0 193 -46t130 -167l389 -1083l-196 -68l-250 742l-256 -705h-215l356 956l-37 91q-34 83 -127 83q-68 0 -143 -28l-43 190q93 35 199 35z" />
    <glyph glyph-name="uni03BC" unicode="&#x3bc;" 
d="M691.5 25q-56.5 48 -60.5 135q-17 -78 -63 -130.5t-127 -52.5t-121.5 33t-63.5 86v-469h-207v1305h207v-584q0 -151 55.5 -167.5t85.5 -16.5q66 0 114 65.5t48 171.5v531h207v-682q0 -86 57.5 -86t89.5 14l27 -176q-50 -25 -121 -25t-127.5 48z" />
    <glyph glyph-name="nu" unicode="&#x3bd;" 
d="M350 0l-350 932h221l254 -715q86 145 130 322.5t69 392.5h217q-39 -273 -115 -504t-221 -428h-205z" />
    <glyph glyph-name="xi" unicode="&#x3be;" 
d="M486 1141q-109 0 -166.5 -51.5t-57.5 -134.5t54.5 -140t177.5 -57h227v-187h-227q-136 0 -210.5 -58t-74.5 -127t22.5 -105.5t79 -61.5t248.5 -37q191 -12 275 -85.5t84 -188.5t-81 -196t-233 -85l-24 178q71 9 101 33.5t30 70.5q-1 84 -145 92q-291 15 -427.5 98
t-136.5 274q0 231 281 301q-111 26 -169.5 117t-58.5 182q0 165 123.5 259.5t294.5 94.5t297 -70l-72 -172q-103 56 -212 56z" />
    <glyph glyph-name="omicron" unicode="&#x3bf;" 
d="M669 683.5q-76 84.5 -204 84.5t-204.5 -85t-76.5 -216t75.5 -217t205.5 -86t205 85t75 218q0 132 -76 216.5zM817 112q-135 -135 -352 -135t-352.5 135.5t-135.5 351.5t134.5 353t353.5 137t353 -136t134 -354q0 -217 -135 -352z" />
    <glyph glyph-name="pi" unicode="&#x3c0;" 
d="M373 745q0 -306 -43 -745h-209q45 375 45 745h-166v187h932v-187h-166v-477q0 -108 100 -108q50 0 78 16l27 -174q-41 -25 -123 -25q-141 0 -215 69t-74 222v477h-186z" />
    <glyph glyph-name="rho" unicode="&#x3c1;" 
d="M660 683.5q-65 84.5 -172 84.5t-169.5 -70.5t-62.5 -232.5v-201q92 -100 217 -100t188.5 84t63.5 217q0 134 -65 218.5zM49 -373v838q0 204 109 346.5t317 142.5t332.5 -136t124.5 -351t-123.5 -352.5t-306.5 -137.5q-145 0 -246 97l-2 -447h-205z" />
    <glyph glyph-name="sigma1" unicode="&#x3c2;" 
d="M209 475q0 -274 366 -295q175 -10 259 -83.5t84 -188.5t-81 -196t-233 -85l-24 178q71 9 101 33.5t30 70.5q0 84 -160 93q-258 12 -403.5 129t-145.5 336t136.5 353t353.5 134q116 0 215.5 -33.5t189.5 -123.5l-125 -146q-59 60 -121.5 88.5t-172.5 28.5t-189.5 -79
t-79.5 -214z" />
    <glyph glyph-name="sigma" unicode="&#x3c3;" 
d="M463 745q-135 0 -206 -79.5t-71 -208.5t72 -212t189 -83q116 0 182.5 77t66.5 187t-48 198.5t-140 120.5h-45zM471 932h547v-187h-301q77 -39 131.5 -126t54.5 -188q0 -204 -130 -330t-334 -126q-203 0 -331 132t-128 346t138.5 346.5t352.5 132.5z" />
    <glyph glyph-name="tau" unicode="&#x3c4;" 
d="M665 164q44 0 74 20l43 -170q-76 -37 -176 -37t-172 59.5t-72 170.5v538h-362v187h932v-187h-363v-473q0 -67 26 -87.5t70 -20.5z" />
    <glyph glyph-name="upsilon" unicode="&#x3c5;" 
d="M848 952q84 -197 84 -425t-119 -389t-346 -161q-297 0 -357.5 142.5t-60.5 238.5v574h207v-574q0 -98 62.5 -146t143.5 -48q143 0 203 105t60 245q0 218 -76 363z" />
    <glyph glyph-name="phi" unicode="&#x3c6;" 
d="M750 492q0 118 -43 189t-95 71q-43 0 -43 -76v-496q86 33 133.5 113.5t47.5 198.5zM186 465q0 -100 45 -177t131 -108v561q0 105 53.5 159t141.5 54q167 0 283 -133t116 -336q0 -202 -104 -334.5t-283 -162.5v-361h-207v361q-172 27 -277 156.5t-105 320.5
q0 131 50 245.5t142 184.5l125 -160q-111 -90 -111 -270z" />
    <glyph glyph-name="chi" unicode="&#x3c7;" 
d="M702 -395l-241 477l-230 -455h-239l352 643l-311 598l182 88l246 -497l233 473h238l-354 -662l309 -573z" />
    <glyph glyph-name="psi" unicode="&#x3c8;" 
d="M727 483v449h205v-449q0 -476 -363 -528v-328h-207v328q-169 27 -265.5 152.5t-96.5 375.5v449h207v-449q0 -273 155 -338v973h207v-973q158 66 158 338z" />
    <glyph glyph-name="omega" unicode="&#x3c9;" 
d="M253 -23q-269 0 -269 455q0 217 32.5 344t53.5 174l190 -73q-70 -194 -70 -445q0 -145 15.5 -206.5t66.5 -61.5q90 0 90 242v339h207v-339q0 -242 93 -242q51 0 66 61.5t15 206.5q0 253 -69 445l190 73q58 -130 72 -293t14 -244q0 -197 -64.5 -316.5t-201.5 -119.5
q-80 0 -137.5 51.5t-79.5 133.5q-23 -82 -80 -133.5t-134 -51.5z" />
    <glyph glyph-name="iotadieresis" unicode="&#x3ca;" 
d="M665 160q44 0 74 20l43 -166q-76 -37 -176 -37q-100 -1 -172 59t-72 171v538h-176v187h383v-664q0 -68 26 -88t70 -20zM406 1121h-252v252h252v-252zM778 1121h-252v252h252v-252z" />
    <glyph glyph-name="upsilondieresis" unicode="&#x3cb;" 
d="M848 952q84 -197 84 -425q0 -229 -110 -377q-128 -174 -355 -173q-297 1 -388 215q-30 70 -30 166v574h207v-574q0 -98 62 -146t144 -48q142 0 208 114q54 95 55 236q0 218 -76 363zM406 1119h-252v252h252v-252zM778 1119h-252v252h252v-252z" />
    <glyph glyph-name="omicrontonos" unicode="&#x3cc;" 
d="M669 683q-76 85 -204 85t-204 -85q-77 -85 -77 -216t75 -217t206 -86q130 0 205 85t75 218q0 131 -76 216zM817 112q-135 -135 -352 -135q-217 -1 -353 135t-135 352t135 354q134 136 353 136t353 -136t134 -354q0 -217 -135 -352zM373 1118v557h245l-83 -557h-162z" />
    <glyph glyph-name="upsilontonos" unicode="&#x3cd;" 
d="M848 952q84 -197 84 -425q0 -229 -110 -377q-128 -174 -355 -173q-297 1 -388 215q-30 70 -30 166v574h207v-574q0 -98 62 -146t144 -48q142 0 208 114q54 95 55 236q0 218 -76 363zM373 1118v557h245l-83 -557h-162z" />
    <glyph glyph-name="omegatonos" unicode="&#x3ce;" 
d="M253 -23q-269 0 -269 455q0 216 48 406q16 64 38 112l190 -73q-70 -194 -70 -445q0 -144 16 -206t66 -62q90 0 90 242v339h207v-339q0 -242 93 -242q51 0 66 62t15 206q0 253 -69 445l190 73q58 -130 80 -386q6 -70 6 -151q0 -197 -64 -316q-64 -120 -202 -120
q-80 -1 -138 51t-79 134q-23 -82 -80 -134t-134 -51zM373 1118v557h245l-83 -557h-162z" />
    <glyph glyph-name="afii10023" unicode="&#x401;" 
d="M883 0h-834v1305h834v-187h-627v-360h489v-187h-489v-385h627v-186zM406 1424h-252v252h252v-252zM778 1424h-252v252h252v-252z" />
    <glyph glyph-name="afii10051" unicode="&#x402;" 
d="M883 276q-1 -299 -307 -299q-72 0 -111 25l27 178q28 -16 77 -16q107 0 107 112v299q0 109 -41 151t-119 42q-115 0 -187.5 -93t-72.5 -257v-418h-207v1118h-186v187h579v-187h-186v-420q31 121 115 188.5t217 67.5t214 -93t81 -286v-299z" />
    <glyph glyph-name="afii10052" unicode="&#x403;" 
d="M883 1118h-627v-1118h-207v1305h834v-187zM711 1598l-432 -244l-89 137l404 287z" />
    <glyph glyph-name="afii10053" unicode="&#x404;" 
d="M481 -23q-257 0 -379 194t-122 481q0 288 96 443t200 193.5t170 38.5q116 0 196 -47t103 -129v154h187v-444h-187q0 96 -63 178q-75 102 -207 102q-133 0 -201 -107t-84 -276h510v-187h-511q18 -282 116 -344.5t176 -62.5q127 0 196 82t109 217l166 -64
q-105 -422 -471 -422z" />
    <glyph glyph-name="afii10054" unicode="&#x405;" 
d="M213 0h-186v426h186q0 -121 79 -192.5t182 -71.5q218 0 218 180q0 130 -97 172t-163 66q-186 67 -287.5 147t-101.5 247t111 260t274 93q90 0 154.5 -38t99.5 -101v117h186v-406h-186q0 115 -60.5 179.5t-156.5 64.5t-155.5 -42t-59.5 -118q0 -100 90 -139.5t156 -63.5
q186 -68 294.5 -157.5t108.5 -264.5q0 -174 -111 -277.5t-293 -103.5q-183 0 -282 142v-119z" />
    <glyph glyph-name="afii10055" unicode="&#x406;" 
d="M782 0h-626v186h206v932h-206v187h626v-187h-213v-932h213v-186z" />
    <glyph glyph-name="afii10056" unicode="&#x407;" 
d="M782 0h-626v186h206v932h-206v187h626v-187h-213v-932h213v-186zM406 1424h-252v252h252v-252zM778 1424h-252v252h252v-252z" />
    <glyph glyph-name="afii10057" unicode="&#x408;" 
d="M676 498v807h207v-807q0 -248 -105.5 -384.5t-322.5 -136.5q-174 0 -292 91.5t-165 273.5l186 70q61 -248 271 -248q179 0 200 134t21 200z" />
    <glyph glyph-name="afii10058" unicode="&#x409;" 
d="M-98 164q98 0 98 112v1029h580v-529h49q188 0 292.5 -95t104.5 -289t-104.5 -293t-292.5 -99h-256v1118h-166v-842q0 -226 -104.5 -262.5t-168.5 -36.5t-118 25l32 170q22 -8 54 -8zM819 388q0 101 -51 151.5t-137 50.5h-51v-404h51q86 0 137 50.5t51 151.5z" />
    <glyph glyph-name="afii10059" unicode="&#x40a;" 
d="M819 388q0 101 -51 151.5t-137 50.5h-51v-404h51q86 0 137 50.5t51 151.5zM0 0v1305h207v-529h166v529h207v-529h49q188 0 292.5 -95t104.5 -289t-104.5 -293t-292.5 -99h-256v590h-166v-590h-207z" />
    <glyph glyph-name="afii10060" unicode="&#x40b;" 
d="M-137 1305h579v-187h-186v-420q31 121 115 188.5t217 67.5t214 -93t81 -286v-575h-207v575q0 109 -41 151t-119 42q-115 0 -187.5 -93t-72.5 -257v-418h-207v1118h-186v187z" />
    <glyph glyph-name="afii10061" unicode="&#x40c;" 
d="M256 0h-207v1305h207v-512l406 512h266l-455 -541l453 -764h-242l-342 608l-86 -102v-506zM711 1598l-432 -244l-89 137l404 287z" />
    <glyph glyph-name="afii10062" unicode="&#x40e;" 
d="M186 174q93 0 127 84l37 90l-356 957h215l256 -705l237 705h222l-402 -1115q-45 -120 -131 -166t-189 -47q-103 0 -202 35l43 191q73 -29 143 -29zM466 1405q-192 0 -327 135l121 119q94 -94 207 -94t207 94l121 -119q-137 -135 -329 -135z" />
    <glyph glyph-name="afii10145" unicode="&#x40f;" 
d="M883 0h-314v-319h-207v319h-313v1305h207v-1119h420v1119h207v-1305z" />
    <glyph glyph-name="afii10017" unicode="&#x410;" 
d="M305 494h322l-160 538zM776 0l-94 311h-432l-92 -311h-217l407 1305h238l407 -1305h-217z" />
    <glyph glyph-name="afii10018" unicode="&#x411;" 
d="M725 388q0 101 -65.5 151.5t-178.5 50.5h-225v-404h225q113 0 178.5 50.5t65.5 151.5zM883 1118h-627v-342h225q213 0 332 -95t119 -289t-119 -293t-334 -99h-430v1305h834v-187z" />
    <glyph glyph-name="afii10019" unicode="&#x412;" 
d="M465 186q260 0 260 192.5t-260 192.5h-209v-385h209zM680 976q0 142 -238 142h-186v-360h186q106 0 172 38t66 180zM442 1305q443 0 443 -340q0 -99 -50.5 -181t-152.5 -118q125 -39 186.5 -109t61.5 -199q0 -178 -121 -268t-344 -90h-416v1305h393z" />
    <glyph glyph-name="afii10020" unicode="&#x413;" 
d="M883 1118h-627v-1118h-207v1305h834v-187z" />
    <glyph glyph-name="afii10021" unicode="&#x414;" 
d="M393 983q0 -381 -19.5 -496.5t-51 -181t-89.5 -119.5h340v932h-180v-135zM186 983v322h594v-1119h152v-505h-187v319h-559v-319h-186v505q57 45 93 90.5t64.5 159t28.5 547.5z" />
    <glyph glyph-name="afii10022" unicode="&#x415;" 
d="M883 0h-834v1305h834v-187h-627v-360h489v-187h-489v-385h627v-186z" />
    <glyph glyph-name="afii10024" unicode="&#x416;" 
d="M362 0v518l-34 60l-236 -578h-201l330 737l-330 568h207l264 -519v519h207v-519l265 519h206l-329 -568l329 -737h-200l-236 578l-35 -60v-518h-207z" />
    <glyph glyph-name="afii10025" unicode="&#x417;" 
d="M713 354q0 217 -312 217v187q206 0 246.5 80t40.5 124q0 84 -50 131.5t-127 47.5q-134 0 -201.5 -79t-67.5 -200h-187v443h187v-154q23 82 102.5 129t164.5 47q164 0 275 -99.5t111 -257.5q0 -189 -98 -238.5t-158 -53.5q129 -12 205 -104.5t76 -199.5
q0 -187 -125.5 -292t-298.5 -105q-308 0 -384.5 160t-84.5 273l194 32q10 -130 84 -204t182 -74t167 52t59 138z" />
    <glyph glyph-name="afii10026" unicode="&#x418;" 
d="M49 1305h207v-899l367 899h260v-1305h-207v946l-387 -946h-240v1305z" />
    <glyph glyph-name="afii10027" unicode="&#x419;" 
d="M49 1305h207v-899l367 899h260v-1305h-207v946l-387 -946h-240v1305zM466 1403q-192 0 -327 135l121 119q94 -94 207 -94t207 94l121 -119q-137 -135 -329 -135z" />
    <glyph glyph-name="afii10028" unicode="&#x41a;" 
d="M256 0h-207v1305h207v-512l406 512h266l-455 -541l453 -764h-242l-342 608l-86 -102v-506z" />
    <glyph glyph-name="afii10029" unicode="&#x41b;" 
d="M10 164q107 0 107 112v1029h766v-1305h-207v1118h-352v-842q0 -153 -82 -226t-213 -73q-84 0 -123 25l26 178q30 -16 78 -16z" />
    <glyph glyph-name="afii10030" unicode="&#x41c;" 
d="M883 0h-207v883l-131 -469h-160l-129 469v-883h-207v1305h246l170 -590l170 590h248v-1305z" />
    <glyph glyph-name="afii10031" unicode="&#x41d;" 
d="M883 0h-207v571h-420v-571h-207v1305h207v-547h420v547h207v-1305z" />
    <glyph glyph-name="afii10032" unicode="&#x41e;" 
d="M174 653q0 -333 102.5 -411t190.5 -78t144.5 43t89 112.5t46 157.5t13.5 234t-66 288t-218 142t-227 -129t-75 -359zM-33 653q0 131 28 253t87 215t154.5 149.5t230.5 56.5t230.5 -56.5t155.5 -149.5t87 -215t27 -253t-27 -252.5t-86 -216t-154.5 -151t-232.5 -56.5
t-232.5 56.5t-155 151t-86 216t-26.5 252.5z" />
    <glyph glyph-name="afii10033" unicode="&#x41f;" 
d="M883 0h-207v1118h-420v-1118h-207v1305h834v-1305z" />
    <glyph glyph-name="afii10034" unicode="&#x420;" 
d="M725 916q0 102 -65.5 152t-178.5 50h-225v-403h225q113 0 178.5 49.5t65.5 151.5zM932 914q0 -194 -119 -290t-332 -96h-225v-528h-207v1305h430q215 0 334 -98.5t119 -292.5z" />
    <glyph glyph-name="afii10035" unicode="&#x421;" 
d="M481 -23q-255 0 -378 192.5t-123 565.5t178 482.5t319 109.5t198.5 -66.5t69.5 -109.5v154h187v-494h-187q0 216 -98 273t-176 57t-134 -43t-90 -113t-47.5 -157t-13.5 -234.5t67 -288.5t228 -141q127 0 195.5 81t109.5 218l166 -64q-105 -422 -471 -422z" />
    <glyph glyph-name="afii10036" unicode="&#x422;" 
d="M930 829h-185v289h-176v-932h207v-186h-620v186h206v932h-178v-289h-184v476h930v-476z" />
    <glyph glyph-name="afii10037" unicode="&#x423;" 
d="M186 174q93 0 127 84l37 90l-356 957h215l256 -705l237 705h222l-402 -1115q-45 -120 -131 -166.5t-189 -46.5t-202 35l43 191q73 -29 143 -29z" />
    <glyph glyph-name="afii10038" unicode="&#x424;" 
d="M186 664q0 -102 45 -177t131 -106v569q-86 -30 -131 -107t-45 -179zM750 664q0 104 -48.5 181t-134.5 107v-573q86 31 134.5 106t48.5 179zM849 345q-107 -129 -282 -159v-186h-205v186q-176 33 -279 161t-103 318t103.5 318t278.5 162v160h205v-158q181 -35 285 -164
t104 -319t-107 -319z" />
    <glyph glyph-name="afii10039" unicode="&#x425;" 
d="M952 0h-426v186h74l-137 295l-137 -295h73v-186h-422v186h113l254 473l-250 459h-94v187h414v-187h-84l133 -289l135 289h-82v187h416v-187h-101l-249 -459l254 -473h116v-186z" />
    <glyph glyph-name="afii10040" unicode="&#x426;" 
d="M1055 186v-505h-187v319h-819v1305h207v-1119h420v1119h207v-1119h172z" />
    <glyph glyph-name="afii10041" unicode="&#x427;" 
d="M49 1305h207v-576q0 -108 41 -150t119 -42q114 0 187 93t73 257v418h207v-1305h-207v606q-31 -121 -115 -188.5t-217 -67.5t-214 93.5t-81 285.5v576z" />
    <glyph glyph-name="afii10042" unicode="&#x428;" 
d="M362 1305h207v-1119h176v1119h207v-1305h-972v1305h206v-1119h176v1119z" />
    <glyph glyph-name="afii10043" unicode="&#x429;" 
d="M-20 0v1305h206v-1119h176v1119h207v-1119h176v1119h207v-1119h166v-505h-186v319h-952z" />
    <glyph glyph-name="afii10044" unicode="&#x42a;" 
d="M725 388q0 101 -52 151.5t-138 50.5h-162v-404h162q86 0 138 50.5t52 151.5zM0 1305h373v-529h157q191 0 296.5 -95t105.5 -289t-105.5 -293t-298.5 -99h-362v1118h-166v187z" />
    <glyph glyph-name="afii10045" unicode="&#x42b;" 
d="M745 1305h207v-1305h-207v1305zM426 388q0 101 -51 151.5t-137 50.5h-52v-404h52q86 0 137 50.5t51 151.5zM633 392q0 -194 -104.5 -293t-292.5 -99h-256v1305h206v-529h50q188 0 292.5 -95t104.5 -289z" />
    <glyph glyph-name="afii10046" unicode="&#x42c;" 
d="M725 388q0 101 -65.5 151.5t-178.5 50.5h-225v-404h225q113 0 178.5 50.5t65.5 151.5zM932 392q0 -194 -119 -293t-334 -99h-430v1305h207v-529h225q213 0 332 -95t119 -289z" />
    <glyph glyph-name="afii10047" unicode="&#x42d;" 
d="M232 571v187h510q-25 268 -120.5 325.5t-167.5 57.5q-129 0 -204 -102q-63 -82 -63 -178h-187v444h187v-154q23 82 102.5 129t170.5 47t161.5 -26t150 -92.5t130 -218.5t50.5 -310q0 -316 -122 -509.5t-379 -193.5q-366 0 -471 422l166 64q40 -135 109 -217t205 -82
t204 113.5t79 293.5h-511z" />
    <glyph glyph-name="afii10048" unicode="&#x42e;" 
d="M577 287.5q20 -123.5 78 -123.5q80 0 89.5 190t9.5 298q0 236 -21.5 362.5t-77.5 126.5q-81 0 -89.5 -190.5t-8.5 -364.5q0 -175 20 -298.5zM-20 1305h206v-547h166q23 569 303 569q306 0 306 -675t-306 -675q-286 0 -305 594h-164v-571h-206v1305z" />
    <glyph glyph-name="afii10049" unicode="&#x42f;" 
d="M207 916q0 -102 65.5 -151.5t180.5 -49.5h223v403h-223q-115 0 -180.5 -50t-65.5 -152zM0 915q0 193 119 291.5t334 98.5h430v-1305h-207v528h-94l-338 -528h-262l372 539q-250 33 -302 161.5t-52 214.5z" />
    <glyph glyph-name="afii10065" unicode="&#x430;" 
d="M201 279q0 -117 178 -117q122 0 209.5 59t87.5 152v35q-61 10 -191 10q-129 0 -206.5 -40t-77.5 -99zM471 954q277 0 343.5 -118.5t66.5 -210.5v-625h-205v137q-49 -76 -144.5 -118t-184.5 -42q-166 0 -258.5 78t-92.5 223t151 231.5t361 86.5q90 0 168 -8v37
q0 73 -56.5 109t-148.5 36q-177 0 -336 -92l-84 162q198 114 420 114z" />
    <glyph glyph-name="afii10066" unicode="&#x431;" 
d="M473 -23q-473 0 -473 651q0 323 121.5 511t310.5 188q74 0 116 -21.5t63.5 -30.5t57.5 -9t64.5 14t69.5 47l94 -137q-37 -45 -99 -78t-122 -33q-79 0 -140 31t-106 31q-97 0 -159 -103t-62 -315q39 92 109.5 140t161.5 48q197 0 324.5 -121.5t127.5 -332.5
q0 -212 -132 -346t-327 -134zM219 445q0 -128 67.5 -204.5t181.5 -76.5t185.5 76.5t71.5 204.5t-67.5 204t-190.5 76t-185.5 -76t-62.5 -204z" />
    <glyph glyph-name="afii10067" unicode="&#x432;" 
d="M569 186q156 0 156 100t-156 99h-313v-199h313zM535 571q145 -1 145 93t-145 94h-279v-187h279zM532 932q353 0 353 -241q0 -73 -44 -129t-136 -83q225 -32 225 -223q0 -127 -93.5 -191.5t-267.5 -64.5h-520v932h483z" />
    <glyph glyph-name="afii10068" unicode="&#x433;" 
d="M49 932h883v-174h-676v-758h-207v932z" />
    <glyph glyph-name="afii10069" unicode="&#x434;" 
d="M393 678q0 -165 -19.5 -252.5t-51 -147t-89.5 -92.5h340v572h-180v-80zM186 719v213h594v-746h152v-505h-187v319h-559v-319h-186v505q112 61 149 171.5t37 361.5z" />
    <glyph glyph-name="afii10070" unicode="&#x435;" 
d="M469 768q-98 0 -176 -54.5t-94 -144.5h538q-16 90 -93 144.5t-175 54.5zM487 164q185 0 304 115l106 -146q-90 -90 -190.5 -123t-214.5 -33q-224 0 -368 137t-144 350t136 351.5t358 138.5q223 0 360 -152.5t137 -414.5h-781q15 -96 91.5 -159.5t205.5 -63.5z" />
    <glyph glyph-name="afii10072" unicode="&#x436;" 
d="M362 0v342l-34 43l-215 -385h-222l310 524l-310 408h228l243 -348v348h207v-348l254 348h217l-309 -408l309 -524h-211l-225 385l-35 -43v-342h-207z" />
    <glyph glyph-name="afii10073" unicode="&#x437;" 
d="M440 954q196 0 324.5 -75.5t128.5 -202.5q0 -68 -52.5 -127.5t-150.5 -75.5q92 -18 148.5 -77.5t56.5 -129.5q0 -134 -131.5 -211.5t-313.5 -77.5t-285.5 49.5t-166.5 149.5l162 109q28 -54 101 -87.5t179 -33.5t177 31.5t71 77.5t-52 79t-157 33h-148v186h146
q105 0 157 27t52 69t-66.5 71.5t-177.5 29.5q-190 0 -266 -119l-151 105q122 200 415 200z" />
    <glyph glyph-name="afii10074" unicode="&#x438;" 
d="M49 932h207v-641l367 641h260v-932h-207v678l-387 -678h-240v932z" />
    <glyph glyph-name="afii10075" unicode="&#x439;" 
d="M49 932h207v-641l367 641h260v-932h-207v678l-387 -678h-240v932zM466 1032q-192 0 -327 135l121 119q94 -94 207 -94t207 94l121 -119q-137 -135 -329 -135z" />
    <glyph glyph-name="afii10076" unicode="&#x43a;" 
d="M256 0h-207v932h207v-395l373 395h284l-430 -428l447 -504h-268l-312 377l-94 -96v-281z" />
    <glyph glyph-name="afii10077" unicode="&#x43b;" 
d="M10 164q107 0 107 112v656h766v-932h-207v745h-352v-469q0 -153 -82 -226t-213 -73q-84 0 -123 25l26 178q30 -16 78 -16z" />
    <glyph glyph-name="afii10078" unicode="&#x43c;" 
d="M883 0h-207v631l-131 -336h-160l-129 336v-631h-207v932h246l170 -422l170 422h248v-932z" />
    <glyph glyph-name="afii10079" unicode="&#x43d;" 
d="M883 0h-207v385h-420v-385h-207v932h207v-361h420v361h207v-932z" />
    <glyph glyph-name="afii10080" unicode="&#x43e;" 
d="M672 683.5q-78 84.5 -206 84.5q-127 0 -203.5 -85t-76.5 -216t75.5 -217t204.5 -86q130 0 207 85t77 218q0 132 -78 216.5zM821 112q-135 -135 -353 -135t-353 135t-135 352t134 353.5t354 136.5t354 -136t134 -354q0 -217 -135 -352z" />
    <glyph glyph-name="afii10081" unicode="&#x43f;" 
d="M883 0h-207v745h-420v-745h-207v932h834v-932z" />
    <glyph glyph-name="afii10082" unicode="&#x440;" 
d="M461 164q117 0 190.5 83t73.5 218t-73.5 219t-190.5 84q-53 0 -110.5 -21.5t-94.5 -62.5v-434q37 -41 94.5 -63.5t110.5 -22.5zM256 -373h-207v1305h207v-84q118 106 258 106q182 0 300 -138.5t118 -350.5t-117.5 -350t-300.5 -138q-137 0 -258 109v-459z" />
    <glyph glyph-name="afii10083" unicode="&#x441;" 
d="M487 164q185 0 304 115l106 -146q-90 -90 -189.5 -123t-215.5 -33q-234 0 -373 132.5t-139 349.5t130 356t318 139q96 0 167 -40t103 -117v135h185v-434h-185q0 123 -67.5 196.5t-171.5 73.5t-188.5 -79t-84.5 -224q0 -146 86 -223.5t215 -77.5z" />
    <glyph glyph-name="afii10084" unicode="&#x442;" 
d="M930 457h-185v288h-176v-559h207v-186h-620v186h206v559h-178v-288h-184v475h930v-475z" />
    <glyph glyph-name="afii10085" unicode="&#x443;" 
d="M186 -199q93 0 127 84l37 90l-356 957h215l256 -705l237 705h222l-402 -1114q-45 -121 -131 -167t-192 -46t-199 35l43 190q78 -29 143 -29z" />
    <glyph glyph-name="afii10086" unicode="&#x444;" 
d="M756 466q0 312 -109 312q-49 0 -78 -63v-498q29 -63 78 -63q109 0 109 312zM569 868q35 86 139 86q106 0 180.5 -125.5t74.5 -361t-74.5 -363t-188.5 -127.5q-41 0 -77.5 21.5t-53.5 64.5v-436h-207v436q-32 -86 -138 -86t-180.5 127.5t-74.5 363t74.5 361t187.5 125.5
q41 0 78 -21.5t53 -64.5v437h207v-437zM285 778q-109 0 -109 -312t109 -312q50 0 77 63v498q-27 63 -77 63z" />
    <glyph glyph-name="afii10087" unicode="&#x445;" 
d="M954 0h-442v186h82l-127 195l-125 -195h76v-186h-438v186h135l209 287l-199 272h-125v187h420v-187h-66l113 -180l115 180h-74v187h424v-187h-121l-199 -272l209 -287h133v-186z" />
    <glyph glyph-name="afii10088" unicode="&#x446;" 
d="M1055 186v-505h-187v319h-819v932h207v-746h420v746h207v-746h172z" />
    <glyph glyph-name="afii10089" unicode="&#x447;" 
d="M49 932h207v-389q0 -109 41 -151t119 -42q114 0 187 93.5t73 256.5v232h207v-932h-207v420q-31 -121 -115 -188.5t-217 -67.5t-214 93t-81 286v389z" />
    <glyph glyph-name="afii10090" unicode="&#x448;" 
d="M362 932h207v-746h156v746h207v-932h-932v932h207v-746h155v746z" />
    <glyph glyph-name="afii10091" unicode="&#x449;" 
d="M0 0v932h207v-746h155v746h207v-746h156v746h207v-746h186v-505h-186v319h-932z" />
    <glyph glyph-name="afii10092" unicode="&#x44a;" 
d="M725 285q0 100 -133 100h-219v-199h219q61 0 97 25t36 74zM0 932h373v-361h219q160 0 250 -70.5t90 -212.5t-90 -215t-252 -73h-424v745h-166v187z" />
    <glyph glyph-name="afii10093" unicode="&#x44b;" 
d="M745 932h207v-932h-207v932zM426 285q0 100 -133 100h-107v-199h107q61 0 97 25t36 74zM633 288q0 -142 -90 -215t-252 -73h-311v932h206v-361h107q160 0 250 -70.5t90 -212.5z" />
    <glyph glyph-name="afii10094" unicode="&#x44c;" 
d="M725 285q0 100 -133 100h-336v-199h336q61 0 97 25t36 74zM932 288q0 -142 -90 -215t-252 -73h-541v932h207v-361h336q160 0 250 -70.5t90 -212.5z" />
    <glyph glyph-name="afii10095" unicode="&#x44d;" 
d="M424 768q-186 0 -303 -115l-107 146q90 90 189.5 122.5t276 32.5t314.5 -134t138 -356t-139 -354.5t-314.5 -132.5t-275 33t-189.5 123l107 146q117 -115 303 -115q102 0 185 53t108 168h-445v186h437q-29 99 -108 148t-177 49z" />
    <glyph glyph-name="afii10096" unicode="&#x44e;" 
d="M557 431q0 -101 18.5 -184t78.5 -83t80 83t20 184q0 179 -21.5 258t-77.5 79q-81 0 -89.5 -118t-8.5 -219zM-20 932h206v-361h168q31 383 301 383q306 0 306 -488t-306 -489q-278 0 -303 408h-166v-385h-206v932z" />
    <glyph glyph-name="afii10097" unicode="&#x44f;" 
d="M340 745q-133 0 -133 -99t133 -99h336v198h-336zM0 645q0 141 90 214t252 73h541v-932h-207v360h-84l-328 -360h-276l346 360q-158 2 -246 73t-88 212z" />
    <glyph glyph-name="afii10071" unicode="&#x451;" 
d="M469 768q-98 0 -176 -54t-94 -145h538q-16 91 -93 145t-175 54zM487 164q185 0 304 115l106 -146q-91 -90 -191 -123t-214 -33q-224 0 -368 137t-144 350t136 352q136 138 358 138q223 0 360 -153t137 -414h-781q16 -95 92 -159t205 -64zM406 1053h-252v252h252v-252z
M778 1053h-252v252h252v-252z" />
    <glyph glyph-name="afii10099" unicode="&#x452;" 
d="M883 -96q-1 -299 -307 -299q-72 0 -111 24l27 178q28 -16 77 -16q107 0 107 113v671q0 109 -41 151t-119 42q-115 0 -187.5 -93t-72.5 -257v-418h-207v932h-186v186h186v187h207v-187h117v-186h-117v-234q31 121 115 188.5t217 67.5t214 -93t81 -286v-671z" />
    <glyph glyph-name="afii10100" unicode="&#x453;" 
d="M49 932h883v-174h-676v-758h-207v932zM711 1225l-432 -244l-89 137l404 287z" />
    <glyph glyph-name="afii10101" unicode="&#x454;" 
d="M508 164q186 0 303 115l107 -146q-91 -90 -190 -123t-274.5 -33t-314.5 133t-139 354q0 222 138 356t314.5 134t275.5 -32.5t190 -122.5l-107 -146q-117 115 -303 115q-98 0 -177 -49t-110 -148h438v-186h-444q22 -106 101.5 -163.5t191.5 -57.5z" />
    <glyph glyph-name="afii10102" unicode="&#x455;" 
d="M774 684q-134 84 -298 84t-204.5 -35t-40.5 -63q0 -37 65.5 -60.5t187.5 -41.5q229 -33 326 -92.5t97 -208.5t-130.5 -219.5t-286.5 -70.5q-295 0 -500 134l86 170q201 -117 385 -117q239 0 239 100q0 42 -70 65.5t-194 43.5q-125 20 -268 59t-143 232q0 142 129 216
t307 74q233 0 395 -110z" />
    <glyph glyph-name="afii10103" unicode="&#x456;" 
d="M782 0h-626v186h206v559h-206v187h413v-746h213v-186zM592 1053h-252v252h252v-252z" />
    <glyph glyph-name="afii10104" unicode="&#x457;" 
d="M782 0h-626v186h206v559h-206v187h413v-746h213v-186zM406 1053h-252v252h252v-252zM778 1053h-252v252h252v-252z" />
    <glyph glyph-name="afii10105" unicode="&#x458;" 
d="M778 1053h-252v252h252v-252zM333 -209q116 0 166 57.5t50 151.5v745h-211v187h418v-932q0 -178 -112.5 -286.5t-312.5 -108.5t-331 159l123 138q94 -111 210 -111z" />
    <glyph glyph-name="afii10106" unicode="&#x459;" 
d="M686 186q133 0 133 100t-133 99h-106v-199h106zM-98 164q98 0 98 112v656h580v-361h106q160 0 250 -70.5t90 -212.5t-90 -215t-252 -73h-311v745h-166v-469q0 -226 -104.5 -262.5t-168.5 -36.5t-118 25l32 170q22 -8 54 -8z" />
    <glyph glyph-name="afii10107" unicode="&#x45a;" 
d="M686 186q133 0 133 100t-133 99h-106v-199h106zM0 0v932h207v-361h166v361h207v-361h106q160 0 250 -70.5t90 -212.5t-90 -215t-252 -73h-311v385h-166v-385h-207z" />
    <glyph glyph-name="afii10108" unicode="&#x45b;" 
d="M-137 1118h186v187h207v-187h117v-186h-117v-234q31 121 115 188.5t217 67.5t214 -93t81 -286v-575h-207v575q0 109 -41 151t-119 42q-115 0 -187.5 -93t-72.5 -257v-418h-207v932h-186v186z" />
    <glyph glyph-name="afii10109" unicode="&#x45c;" 
d="M256 0h-207v932h207v-395l373 395h284l-430 -428l447 -504h-268l-312 377l-94 -96v-281zM711 1225l-432 -244l-89 137l404 287z" />
    <glyph glyph-name="afii10110" unicode="&#x45e;" 
d="M186 -199q93 0 127 84l37 90l-356 957h215l256 -705l237 705h222l-402 -1114q-45 -121 -131 -167t-192 -46t-199 35l43 190q78 -29 143 -29zM466 1032q-192 0 -327 135l121 119q94 -94 207 -94t207 94l121 -119q-137 -135 -329 -135z" />
    <glyph glyph-name="afii10193" unicode="&#x45f;" 
d="M883 0h-314v-319h-207v319h-313v932h207v-746h420v746h207v-932z" />
    <glyph glyph-name="afii10050" unicode="&#x490;" 
d="M745 1491h187v-373h-676v-1118h-207v1305h696v186z" />
    <glyph glyph-name="afii10098" unicode="&#x491;" 
d="M745 1118h187v-373h-676v-745h-207v932h696v186z" />
    <glyph glyph-name="uni1E02" unicode="&#x1e02;" 
d="M465 186q260 0 260 192t-260 193h-209v-385h209zM680 938q0 180 -238 180h-186v-360h186q106 0 151 26q87 50 87 154zM442 1305q443 0 443 -340q-1 -99 -51 -181t-152 -118q124 -39 186 -109t62 -199q0 -178 -121 -268t-344 -90h-416v1305h393zM592 1424h-252v252h252
v-252z" />
    <glyph glyph-name="uni1E03" unicode="&#x1e03;" 
d="M461 164q117 0 191 83t73 218q1 135 -73 219t-191 84q-53 0 -111 -22t-94 -62v-436q36 -40 94 -62t111 -22zM256 0h-207v1305h207v-457q118 106 258 106q182 0 300 -139t118 -350q0 -212 -118 -350t-300 -138q-137 0 -258 109v-86zM592 1424h-252v252h252v-252z" />
    <glyph glyph-name="uni1E0A" unicode="&#x1e0a;" 
d="M768 654q0 224 -77 344t-218 120h-217v-932h217q141 0 218 122t77 346zM860 196q-132 -195 -387 -196h-424v1305h424q251 0 385 -196q118 -173 117 -458q1 -284 -115 -455zM592 1424h-252v252h252v-252z" />
    <glyph glyph-name="uni1E0B" unicode="&#x1e0b;" 
d="M469 768q-117 0 -191 -84t-73 -219q-1 -135 73 -218t191 -83q53 0 111 22t96 62v436q-38 40 -96 62t-111 22zM416 954q140 0 260 -106v270h-180v187h387v-1305h-207v86q-123 -109 -260 -109q-182 0 -300 137t-118 351t118 351q119 138 300 138zM592 1424h-252v252h252
v-252z" />
    <glyph glyph-name="uni1E1E" unicode="&#x1e1e;" 
d="M883 1118h-627v-360h489v-187h-489v-571h-207v1305h834v-187zM592 1424h-252v252h252v-252z" />
    <glyph glyph-name="uni1E1F" unicode="&#x1e1f;" 
d="M799 1327q46 0 133 -10v-182q-60 6 -124 6q-138 0 -189 -47q-50 -47 -50 -162h363v-187h-363v-559h213v-186h-626v186h206v559h-206v187h206q0 192 118 294t319 101zM592 1424h-252v252h252v-252z" />
    <glyph glyph-name="uni1E40" unicode="&#x1e40;" 
d="M883 0h-207v883l-131 -469h-160l-129 469v-883h-207v1305h246l170 -590l170 590h248v-1305zM592 1424h-252v252h252v-252z" />
    <glyph glyph-name="uni1E41" unicode="&#x1e41;" 
d="M733 954q199 0 199 -284v-670h-207v639q1 65 -13 97t-48 32q-62 0 -78 -70t-17 -202v-496h-207v639q0 65 -14 97t-49 32q-61 0 -77 -70t-15 -202v-496h-207v932h209v-135q45 157 180 157q61 0 101 -36t55 -101q35 69 73 103t115 34zM592 1053h-252v252h252v-252z" />
    <glyph glyph-name="uni1E56" unicode="&#x1e56;" 
d="M725 916q1 102 -65 152t-179 50h-225v-403h225q113 0 179 50q66 49 65 151zM932 914q0 -194 -119 -290t-332 -96h-225v-528h-207v1305h430q215 -1 334 -99t119 -292zM592 1424h-252v252h252v-252z" />
    <glyph glyph-name="uni1E57" unicode="&#x1e57;" 
d="M461 164q117 0 191 83t73 218q1 135 -73 219t-191 84q-53 0 -111 -22t-94 -62v-434q36 -42 94 -64t111 -22zM256 -373h-207v1305h207v-84q118 106 258 106q182 0 300 -139t118 -350q0 -212 -118 -350t-300 -138q-137 0 -258 109v-459zM592 1053h-252v252h252v-252z" />
    <glyph glyph-name="uni1E60" unicode="&#x1e60;" 
d="M213 0h-186v426h186q0 -121 79 -193q79 -71 182 -71q218 0 218 180q0 130 -147 194q-47 20 -113 44q-186 67 -263 128q-126 99 -126 266t111 260t274 93q90 0 154 -38t100 -101v117h186v-406h-186q0 115 -60 179t-157 65q-95 0 -155 -42t-60 -118q0 -101 135 -159
q45 -20 111 -44q186 -68 271 -138q132 -109 132 -284q0 -174 -111 -278q-111 -103 -293 -103q-183 0 -282 142v-119zM592 1424h-252v252h252v-252z" />
    <glyph glyph-name="uni1E61" unicode="&#x1e61;" 
d="M774 684q-134 84 -298 84t-222 -50q-22 -20 -23 -48q-1 -36 65 -60t188 -42q229 -34 315 -86q108 -67 108 -215q-1 -149 -147 -228q-114 -62 -270 -62q-295 0 -500 134l86 170q201 -117 385 -117q239 0 239 100q0 42 -70 66t-194 43q-126 19 -190 37q-222 60 -221 254
q-1 142 139 222q118 68 297 68q233 0 395 -110zM592 1053h-252v252h252v-252z" />
    <glyph glyph-name="uni1E6A" unicode="&#x1e6a;" 
d="M930 829h-185v289h-176v-932h207v-186h-620v186h206v932h-178v-289h-184v476h930v-476zM592 1424h-252v252h252v-252z" />
    <glyph glyph-name="uni1E6B" unicode="&#x1e6b;" 
d="M211 342v403h-211v187h211v373h207v-373h391v-187h-391v-403q0 -90 44 -134t124 -44t123 51t51 123l182 -41q-16 -147 -116 -233t-256 -87t-258 101t-101 264zM592 1424h-252v252h252v-252z" />
    <glyph glyph-name="Wgrave" unicode="&#x1e80;" 
d="M995 1305l-202 -1305h-213l-115 563l-113 -563h-213l-202 1305h215l120 -879l95 506h198l92 -506l123 879h215zM344 1776l404 -287l-89 -137l-432 244z" />
    <glyph glyph-name="wgrave" unicode="&#x1e81;" 
d="M961 932l-140 -932h-256l-98 561l-100 -561h-256l-140 932h203l82 -623l100 623h219l101 -623l82 623h203zM344 1405l404 -287l-89 -137l-432 244z" />
    <glyph glyph-name="Wacute" unicode="&#x1e82;" 
d="M995 1305l-202 -1305h-213l-115 563l-113 -563h-213l-202 1305h215l120 -879l95 506h198l92 -506l123 879h215zM711 1596l-432 -244l-89 137l404 287z" />
    <glyph glyph-name="wacute" unicode="&#x1e83;" 
d="M961 932l-140 -932h-256l-98 561l-100 -561h-256l-140 932h203l82 -623l100 623h219l101 -623l82 623h203zM711 1225l-432 -244l-89 137l404 287z" />
    <glyph glyph-name="Wdieresis" unicode="&#x1e84;" 
d="M995 1305l-202 -1305h-213l-115 563l-113 -563h-213l-202 1305h215l120 -879l95 506h198l92 -506l123 879h215zM406 1422h-252v252h252v-252zM778 1422h-252v252h252v-252z" />
    <glyph glyph-name="wdieresis" unicode="&#x1e85;" 
d="M961 932l-140 -932h-256l-98 561l-100 -561h-256l-140 932h203l82 -623l100 623h219l101 -623l82 623h203zM406 1053h-252v252h252v-252zM778 1053h-252v252h252v-252z" />
    <glyph glyph-name="Ygrave" unicode="&#x1ef2;" 
d="M952 1118h-94l-289 -586v-346h209v-186h-624v186h208v346l-288 586h-94v187h411v-187h-90l166 -383l164 383h-90v187h411v-187zM344 1776l404 -287l-89 -137l-432 244z" />
    <glyph glyph-name="ygrave" unicode="&#x1ef3;" 
d="M186 -197q93 0 127 82l37 90l-356 957h215l256 -705l237 705h222l-402 -1114q-45 -121 -131 -166t-192 -45t-199 35l43 190q78 -29 143 -29zM344 1405l404 -287l-89 -137l-432 244z" />
    <glyph glyph-name="endash" unicode="&#x2013;" 
d="M0 385v186h932v-186h-932z" />
    <glyph glyph-name="emdash" unicode="&#x2014;" 
d="M-92 385v186h1118v-186h-1118z" />
    <glyph glyph-name="afii00208" unicode="&#x2015;" 
d="M932 385h-932v187h932v-187z" />
    <glyph glyph-name="quoteleft" unicode="&#x2018;" 
d="M745 680h-372v266q0 247 134 303t238 56v-172q-164 0 -185 -72t-21 -115v-14h206v-252z" />
    <glyph glyph-name="quoteright" unicode="&#x2019;" 
d="M186 1305h373v-267q0 -247 -134 -302.5t-239 -55.5v172q119 0 163 51t44 135v15h-207v252z" />
    <glyph glyph-name="quotesinglbase" unicode="&#x201a;" 
d="M558 252h373v-267q0 -247 -134 -302.5t-239 -55.5v172q119 0 163 51t44 135v15h-207v252z" />
    <glyph glyph-name="quotedblleft" unicode="&#x201c;" 
d="M932 680h-373v266q0 247 134 303t239 56v-172q-165 0 -186 -72t-21 -115v-14h207v-252zM373 680h-373v266q0 247 134 303t239 56v-172q-165 0 -186 -72t-21 -115v-14h207v-252z" />
    <glyph glyph-name="quotedblright" unicode="&#x201d;" 
d="M0 1305h373v-267q0 -248 -134.5 -303t-238.5 -55v172q119 0 163 51t44 135v15h-207v252zM559 1305h373v-267q0 -247 -134 -302.5t-239 -55.5v172q119 0 163 51t44 135v15h-207v252z" />
    <glyph glyph-name="quotedblbase" unicode="&#x201e;" 
d="M0 252h373v-267q0 -248 -134.5 -303t-238.5 -55v172q119 0 163 51t44 135v15h-207v252zM559 252h373v-267q0 -247 -134 -302.5t-239 -55.5v172q119 0 163 51t44 135v15h-207v252z" />
    <glyph glyph-name="dagger" unicode="&#x2020;" 
d="M778 907l-237 15l12 -549h-172l14 549l-237 -15v174l237 -14l-14 238h172l-12 -238l237 14v-174z" />
    <glyph glyph-name="daggerdbl" unicode="&#x2021;" 
d="M778 410l-237 14l12 -238h-172l14 238l-237 -14v172l237 -13v353l-237 -15v174l237 -14l-14 238h172l-12 -238l237 14v-174l-237 15v-353l237 13v-172z" />
    <glyph glyph-name="bullet" unicode="&#x2022;" 
d="M296 822q110 110 263 110t263 -110t110 -263t-110 -263t-263 -110t-263 110t-110 263t110 263z" />
    <glyph glyph-name="ellipsis" unicode="&#x2026;" 
d="M219 0h-252v252h252v-252zM965 0h-252v252h252v-252zM592 0h-252v252h252v-252z" />
    <glyph glyph-name="perthousand" unicode="&#x2030;" 
d="M765.5 416q50.5 69 149.5 69t150 -68.5t51 -185.5q0 -174 -73 -214t-127 -40t-92 20.5t-73.5 70t-35.5 164.5t50.5 184zM344.5 416.5q51.5 68.5 149.5 68.5q99 0 149.5 -69t50.5 -185q0 -175 -73 -214.5t-127 -39.5t-91.5 20.5t-73.5 69.5t-36 165t51.5 184.5zM916 340
q-52 0 -52 -104t52 -105q52 1 53 105q-1 104 -53 104zM494 340q-52 0 -52 -104t52 -105q22 0 37.5 24.5t15.5 80.5t-15.5 80t-37.5 24zM177 1180q-52 0 -52 -104.5t52 -104.5t52 104.5t-52 104.5zM-25 1072q0 52 11.5 99.5t36 81t62.5 54t114 20.5t127 -69.5t51 -184.5
q0 -174 -74 -214t-127 -40t-91 20.5t-62.5 54.5t-36 80t-11.5 98zM694 1274l-571 -1313l-150 66l572 1316z" />
    <glyph glyph-name="guilsinglleft" unicode="&#x2039;" 
d="M641 444l-119 -120l-323 327l323 330l119 -121l-203 -209z" />
    <glyph glyph-name="guilsinglright" unicode="&#x203a;" 
d="M494 651l-203 209l119 121l323 -330l-323 -327l-119 120z" />
    <glyph glyph-name="fraction" unicode="&#x2044;" 
d="M954 1257l-835 -1298l-137 88l837 1303z" />
    <glyph glyph-name="Euro" unicode="&#x20ac;" 
d="M0 397v174h152q-2 21 -2 26v61q0 55 2 75h-152v174h172q34 187 131.5 303.5t259.5 116.5q301 0 389 -424l-182 -37q-25 140 -69 207.5t-130 67.5t-130 -67.5t-64 -166.5h182v-174h-201q-2 -20 -2 -25v-60q0 -56 2 -77h201v-174h-182q20 -100 64 -166.5t129 -66.5
t128 67.5t72 204.5l182 -37q-88 -422 -389 -422q-237 0 -306 165t-85 255h-172z" />
    <glyph glyph-name="afii61352" unicode="&#x2116;" 
d="M584 117h510v-117h-510v117zM838 348q-256 0 -256 303t256 303t256 -303t-256 -303zM840 459q116 -1 116 191t-116 192q-121 0 -121 -192t121 -191zM510 0h-170l-203 1022v-1022h-137v1305h193l180 -940v940h137v-1305z" />
    <glyph glyph-name="trademark" unicode="&#x2122;" 
d="M465 1378h-176v-446h-113v446h-176v113h465v-113zM1120 932h-110v393l-131 -334h-78l-129 334v-393h-111v559h158l121 -328l121 328h159v-559z" />
    <glyph glyph-name="Omega" unicode="&#x2126;" 
d="M745 741q0 161 -68.5 280.5t-206.5 119.5q-137 0 -210.5 -120.5t-73.5 -301.5t65.5 -258.5t121.5 -102.5v-358h-373v186h213v45q-121 86 -177 223.5t-56 268.5t31.5 237.5t93 187.5t152.5 130t263 49t302 -171.5t130 -414.5q0 -145 -52 -281t-177 -229v-45h209v-186h-373
v358q186 85 186 383z" />
    <glyph glyph-name="partialdiff" unicode="&#x2202;" 
d="M743 537q0 71 -12 133q-256 -23 -400.5 -105t-144.5 -211q0 -92 64.5 -141t191.5 -49t214 96t87 277zM950 537q0 -260 -140 -410t-362 -150q-223 0 -345.5 96.5t-122.5 287.5t178 314t499 175q-69 104 -186 172t-270 125l63 180q321 -126 503.5 -308.5t182.5 -481.5z" />
    <glyph glyph-name="Delta" unicode="&#x2206;" 
d="M213 184h508l-254 848zM-59 0l407 1305h238l407 -1305h-1052z" />
    <glyph glyph-name="product" unicode="&#x220f;" 
d="M932 1118h-176v-1118h-207v1118h-166v-1118h-207v1118h-176v187h932v-187z" />
    <glyph glyph-name="summation" unicode="&#x2211;" 
d="M883 0h-840v186l295 465l-295 467v187h840v-441h-187v254h-401l287 -467l-287 -465h401v256h187v-442z" />
    <glyph glyph-name="minus" unicode="&#x2212;" 
d="M932 385h-932v187h932v-187z" />
    <glyph glyph-name="radical" unicode="&#x221a;" 
d="M932 932h-270l-250 -932h-222l-188 725l180 49l121 -469l209 813h420v-186z" />
    <glyph glyph-name="infinity" unicode="&#x221e;" 
d="M705 353q49 0 79.5 32.5t30.5 79.5t-32.5 79t-77.5 32q-99 0 -150 -111q51 -112 150 -112zM238 576q-45 0 -78 -32t-33 -79t30.5 -79.5t80.5 -32.5q98 0 149 112q-53 111 -149 111zM471 549q95 160 231 160q110 0 179 -69.5t69 -174t-67 -175t-155 -70.5
q-87 0 -145.5 33.5t-111.5 123.5q-53 -88 -108 -122.5t-119 -34.5t-107 19t-75.5 52t-51 78t-18.5 122.5t68 147.5t157 70q90 0 145.5 -35t108.5 -125z" />
    <glyph glyph-name="integral" unicode="&#x222b;" 
d="M801 1690q35 0 131 -11v-182q-60 6 -107 6q-147 0 -201.5 -46t-54.5 -148v-1325q0 -191 -117.5 -285t-318.5 -94q-63 0 -133 8v184q57 -6 106 -6q146 0 201 46t55 147v1325q0 190 119 285.5t320 95.5z" />
    <glyph glyph-name="approxequal" unicode="&#x2248;" 
d="M282 254q-56 0 -100.5 -39t-85.5 -110l-153 88q128 258 348 258q61 0 106 -23.5t83 -51t76 -51.5t94 -24t100.5 41t85.5 113l153 -88q-125 -260 -348 -260q-91 0 -159 50t-106 73.5t-94 23.5zM282 625q-56 0 -100.5 -39t-85.5 -110l-153 88q129 258 348 258
q61 0 106 -23.5t83 -51.5t76 -51.5t94 -23.5t100.5 41t85.5 113l153 -88q-125 -260 -348 -260q-91 0 -159 50t-106 73.5t-94 23.5z" />
    <glyph glyph-name="notequal" unicode="&#x2260;" 
d="M0 572v186h514l90 186h172l-90 -186h246v-186h-336l-90 -187h426v-186h-514l-90 -186h-172l90 186h-246v186h334l90 187h-424z" />
    <glyph glyph-name="lessequal" unicode="&#x2264;" 
d="M932 0v-186h-746v186h492l-479 480l512 512l118 -121l-391 -391l391 -392l-88 -88h191z" />
    <glyph glyph-name="greaterequal" unicode="&#x2265;" 
d="M932 0v-186h-746v186h189l-86 88l391 392l-391 391l119 121l512 -512l-480 -480h492z" />
    <glyph glyph-name="uni2303" unicode="&#x2303;" 
d="M467 352l-391 -391l-121 119l512 512l512 -512l-121 -119z" />
    <glyph glyph-name="uni2318" unicode="&#x2318;" 
d="M354 354h-75q-33 0 -54.5 -21t-21.5 -53t21.5 -53.5t53.5 -21.5t54 21.5t22 54.5v73zM354 838q0 32 -21 53.5t-53 21.5t-54.5 -21.5t-22.5 -53.5t22.5 -53t55.5 -21h73v74zM629 489v140h-140v-140h140zM913 280q0 32 -21.5 53t-53.5 21h-72v-73q0 -33 20 -54.5t52 -21.5
t53.5 21.5t21.5 53.5zM913 838q0 32 -21.5 53.5t-53.5 21.5t-53 -21.5t-21 -53.5v-74h74q32 0 53.5 21t21.5 53zM1049 281q0 -86 -62.5 -148.5t-150 -62.5t-147.5 63.5t-60 147.5v73h-140v-73q0 -87 -62 -149t-148.5 -62t-148.5 62t-62 149t62.5 147.5t148.5 60.5h75v140
h-73q-84 0 -147.5 60t-63.5 147.5t62.5 150t148.5 62.5t147 -63t61 -148v-74h140v74q0 83 60.5 147t147 64t149.5 -63t63 -149.5t-64 -147t-147 -60.5h-74v-140h74q85 0 148 -61t63 -147z" />
    <glyph glyph-name="uni2324" unicode="&#x2324;" 
d="M467 352l-391 -391l-121 119l512 512l512 -512l-121 -119zM301 537h-301v174h301v-174zM932 537h-301v174h301v-174z" />
    <glyph glyph-name="optionkey" unicode="&#x2325;" 
d="M162 711q235 0 308 -73t103 -122l115 -186q25 -37 44.5 -60.5t54 -41t165.5 -17.5h166v-174h-164q-169 0 -259.5 47t-151.5 147l-115 187q-25 37 -44 60.5t-55.5 41t-164.5 17.5h-164v174h162zM1118 537h-370v174h370v-174z" />
    <glyph glyph-name="erasetotheright" unicode="&#x2326;" 
d="M670 526l-80 -77l-125 126l-125 -126l-78 77l125 125l-125 125l78 80l125 -125l125 125l80 -80l-125 -125zM246 1133v-961h155l480 479l-480 482h-155zM74 0v1305h383l653 -654l-653 -651h-383z" />
    <glyph glyph-name="uni237d" unicode="&#x237d;" 
d="M1118 193h-225v-193h-668v193h-225v172h397v-193h324v193h397v-172z" />
    <glyph glyph-name="uni2388" unicode="&#x2388;" 
d="M328 485h-142v447h443v-141h-191l338 -338l-110 -109l-338 338v-197zM660 -2q-167 0 -290 92.5t-167 245.5l114 33q30 -108 124.5 -180t226.5 -72q131 0 232 101t101 249q0 177 -98 246t-155 88l34 114q228 -68 283 -216t56 -239t-35.5 -177t-100 -149.5t-149.5 -99.5
t-176 -36z" />
    <glyph glyph-name="uni23ce" unicode="&#x23ce;" 
d="M1108 756q0 -233 -161.5 -393t-391.5 -160h-297l166 -166l-102 -103l-351 349l351 352l102 -105l-162 -161h293q160 0 273.5 113.5t113.5 273.5h-383v157h549v-157z" />
    <glyph glyph-name="uni2423" unicode="&#x2423;" 
d="M860 0h-788v365h172v-193h442v193h174v-365z" />
    <glyph glyph-name="SF100000" unicode="&#x2500;" 
d="M0 551v203h1118v-203h-1118z" />
    <glyph glyph-name="SF110000" unicode="&#x2502;" 
d="M365 1675h202v-2048h-202v2048z" />
    <glyph glyph-name="SF010000" unicode="&#x250c;" 
d="M365 754h753v-203h-551v-924h-202v1127z" />
    <glyph glyph-name="SF030000" unicode="&#x2510;" 
d="M0 551v203h567v-1127h-202v924h-365z" />
    <glyph glyph-name="SF020000" unicode="&#x2514;" 
d="M365 1675h202v-921h551v-203h-753v1124z" />
    <glyph glyph-name="SF040000" unicode="&#x2518;" 
d="M0 551v203h365v921h202v-1124h-567z" />
    <glyph glyph-name="SF080000" unicode="&#x251c;" 
d="M365 1675h202v-921h551v-203h-551v-924h-202v2048z" />
    <glyph glyph-name="SF090000" unicode="&#x2524;" 
d="M567 -373h-202v924h-365v203h365v921h202v-2048z" />
    <glyph glyph-name="SF060000" unicode="&#x252c;" 
d="M0 551v203h1118v-203h-551v-924h-202v924h-365z" />
    <glyph glyph-name="SF070000" unicode="&#x2534;" 
d="M0 551v203h365v921h202v-921h551v-203h-1118z" />
    <glyph glyph-name="SF050000" unicode="&#x253c;" 
d="M0 551v203h365v921h202v-921h551v-203h-551v-924h-202v924h-365z" />
    <glyph glyph-name="SF430000" unicode="&#x2550;" 
d="M1118 567v-202h-1118v202h1118zM1118 940v-203h-1118v203h1118z" />
    <glyph glyph-name="SF240000" unicode="&#x2551;" 
d="M551 1675h203v-2048h-203v2048zM381 -373h-203v2048h203v-2048z" />
    <glyph glyph-name="SF510000" unicode="&#x2552;" 
d="M1118 567v-202h-551v-738h-202v940h372v373h381v-203h-178v-170h178z" />
    <glyph glyph-name="SF520000" unicode="&#x2553;" 
d="M1118 754v-203h-364v-924h-203v551h-170v-551h-203v754h373v373h567z" />
    <glyph glyph-name="SF390000" unicode="&#x2554;" 
d="M1118 567v-202h-364v-738h-203v940h567zM381 737v-1110h-203v1313h940v-203h-737z" />
    <glyph glyph-name="SF220000" unicode="&#x2555;" 
d="M0 365v202h178v170h-178v203h381v-373h186v-940h-202v738h-365z" />
    <glyph glyph-name="SF210000" unicode="&#x2556;" 
d="M381 754v-373h373v-754h-203v551h-170v-551h-203v924h-178v203h381z" />
    <glyph glyph-name="SF250000" unicode="&#x2557;" 
d="M381 567v-940h-203v738h-178v202h381zM551 737h-551v203h754v-1313h-203v1110z" />
    <glyph glyph-name="SF500000" unicode="&#x2558;" 
d="M737 365v372h-372v938h202v-735h551v-203h-178v-170h178v-202h-381z" />
    <glyph glyph-name="SF490000" unicode="&#x2559;" 
d="M551 551v373h-373v751h203v-549h170v549h203v-921h364v-203h-567z" />
    <glyph glyph-name="SF380000" unicode="&#x255a;" 
d="M551 737v938h203v-735h364v-203h-567zM178 365v1310h203v-1108h737v-202h-940z" />
    <glyph glyph-name="SF280000" unicode="&#x255b;" 
d="M-8 567v170h8v203h365v735h202v-938h-372v-372h-195v202h-8z" />
    <glyph glyph-name="SF270000" unicode="&#x255c;" 
d="M0 551v203h178v921h203v-549h170v549h203v-751h-373v-373h-381z" />
    <glyph glyph-name="SF260000" unicode="&#x255d;" 
d="M551 567v1108h203v-1310h-754v202h551zM0 737v203h178v735h203v-938h-381z" />
    <glyph glyph-name="SF360000" unicode="&#x255e;" 
d="M1118 567v-202h-551v-738h-202v940h753zM365 737v938h202v-735h551v-203h-753z" />
    <glyph glyph-name="SF370000" unicode="&#x255f;" 
d="M551 1675h203v-921h364v-203h-364v-924h-203v2048zM381 -373h-203v2048h203v-2048z" />
    <glyph glyph-name="SF420000" unicode="&#x2560;" 
d="M1118 567v-202h-364v-738h-203v940h567zM551 737v938h203v-735h364v-203h-567zM381 -373h-203v2048h203v-2048z" />
    <glyph glyph-name="SF190000" unicode="&#x2561;" 
d="M567 567v-940h-202v738h-365v202h567zM0 737v203h365v735h202v-938h-567z" />
    <glyph glyph-name="SF200000" unicode="&#x2562;" 
d="M551 1675h203v-2048h-203v2048zM381 -373h-203v924h-178v203h178v921h203v-2048z" />
    <glyph glyph-name="SF230000" unicode="&#x2563;" 
d="M551 1675h203v-2048h-203v2048zM381 567v-940h-203v738h-178v202h381zM0 737v201h178v737h203v-938h-381z" />
    <glyph glyph-name="SF470000" unicode="&#x2564;" 
d="M1118 940v-203h-1118v203h1118zM0 365v202h1118v-202h-551v-738h-202v738h-365z" />
    <glyph glyph-name="SF480000" unicode="&#x2565;" 
d="M1118 754v-203h-364v-924h-203v1127h567zM381 754v-1127h-203v924h-178v203h381z" />
    <glyph glyph-name="SF410000" unicode="&#x2566;" 
d="M1118 567v-202h-364v-738h-203v940h567zM1118 940v-203h-1118v203h1118zM381 567v-940h-203v738h-178v202h381z" />
    <glyph glyph-name="SF450000" unicode="&#x2567;" 
d="M1118 567v-202h-1118v202h1118zM0 737v203h365v735h202v-735h551v-203h-1118z" />
    <glyph glyph-name="SF460000" unicode="&#x2568;" 
d="M551 551v1124h203v-921h364v-203h-567zM0 551v203h178v921h203v-1124h-381z" />
    <glyph glyph-name="SF400000" unicode="&#x2569;" 
d="M1118 567v-202h-1118v202h1118zM551 737v938h203v-735h364v-203h-567zM0 737v203h178v735h203v-938h-381z" />
    <glyph glyph-name="SF540000" unicode="&#x256a;" 
d="M1118 567v-202h-551v-738h-202v738h-365v202h1118zM0 737v203h365v735h202v-735h551v-203h-1118z" />
    <glyph glyph-name="SF530000" unicode="&#x256b;" 
d="M381 1675v-2048h-203v924h-178v203h178v921h203zM1118 754v-203h-364v-924h-203v2048h203v-921h364z" />
    <glyph glyph-name="SF440000" unicode="&#x256c;" 
d="M1118 567v-202h-370v-738h-201v940h571zM551 737v938h203v-735h364v-203h-567zM383 567v-940h-203v738h-180v202h383zM0 737v203h178v735h203v-938h-381z" />
    <glyph glyph-name="blackdiamond" unicode="&#x25c6;" 
d="M950 467l-483 -485l-485 485l485 485z" />
    <glyph glyph-name="lozenge" unicode="&#x25ca;" 
d="M756 467l-289 291l-293 -291l293 -291zM950 467l-483 -483l-485 483l485 485z" />
    <glyph glyph-name="checkmark" unicode="&#x2713;" 
d="M1110 666l-772 -715l-330 510l137 86l224 -344l630 583z" />
    <glyph glyph-name="shift" unicode="&#xe000;" 
d="M356 479v-315h219v315h121l-229 230l-231 -230h120zM948 348h-235v-348h-496v348h-231v107l481 483l481 -483v-107z" />
    <glyph glyph-name="shiftlock" unicode="&#xe001;" 
d="M600 424v268h-268v-268h268zM948 348h-235v-348h-496v348h-231v107l481 483l481 -483v-107z" />
    <glyph glyph-name="verticaltab" unicode="&#xe002;" 
d="M901 758h-156v139h299v-682h-426l177 -178l-103 -103l-350 349l350 352l103 -105l-177 -176h283v404zM186 215h-186v139h186v-139zM371 758h-371v139h371v-139z" />
    <glyph glyph-name="copy" unicode="&#xe003;" 
d="M725 410h-178v-177h-109v177h-178v110h178v178h109v-178h178v-110zM901 143v637h-383v383h-305v-1020h688zM639 901h248l-248 250v-250zM1044 0h-972v1305h567l405 -404v-901z" />
    <glyph glyph-name="back" unicode="&#xe004;" 
d="M1118 549v-168h-450l309 -305l-121 -121l-510 512l510 510l121 -119l-309 -309h450zM74 932h168v-932h-168v932z" />
    <glyph glyph-name="endtab" unicode="&#xe005;" 
d="M10 913h549v-157h-383q0 -158 113 -272.5t274 -114.5h293l-162 161l103 105l350 -352l-350 -349l-103 103l166 166h-297q-230 0 -391.5 160t-161.5 393v157z" />
    <glyph glyph-name="insert" unicode="&#xe006;" 
d="M217 354h283l-176 176l102 105l350 -352l-350 -349l-102 103l176 178h-426v682h299v-139h-156v-404zM932 354h186v-139h-186v139zM745 897h373v-139h-373v139z" />
    <glyph glyph-name="tab" unicode="&#xe007;" 
d="M0 381v168h451l-310 309l121 119l510 -510l-510 -512l-121 121l310 305h-451zM1044 0h-167v932h167v-932z" />
    <glyph glyph-name="commaaccent" unicode="&#xf6c3;" 
d="M684 -109l-192 -264h-191l105 264h278z" />
    <glyph glyph-name="apple" unicode="&#xf8ff;" 
d="M834 2q-58 0 -129.5 26.5t-110.5 26.5q-58 0 -123 -27.5t-119 -27.5q-55 0 -120.5 61.5t-117 154.5t-82 200.5t-30.5 190.5q0 174 83.5 300.5t238.5 126.5q60 0 137 -23.5t113 -23.5q45 0 128 26.5t132 26.5q147 0 256 -133q-146 -123 -146 -262q0 -90 49.5 -171.5
t134.5 -111.5q-39 -120 -124 -240t-170 -120zM819 1343q0 -149 -73.5 -232t-190.5 -93q2 266 264 325z" />
    <glyph glyph-name="appleopen" unicode="&#xf900;" 
d="M823 631q0 133 78 233q-24 37 -106 37q-21 0 -95 -18l-125 -29l-122 25q-93 18 -127 18t-73.5 -27.5t-75.5 -90.5t-36 -157t24.5 -178t61.5 -152.5t79 -112.5t68 -44t45 7.5t65.5 24.5t88.5 17q43 0 75 -7t58.5 -16t48 -16.5t41.5 -7.5q38 0 84.5 69.5t67.5 135.5
q-65 61 -95 129t-30 160zM834 2q-58 0 -129.5 26.5t-110.5 26.5q-58 0 -123 -27.5t-119 -27.5q-55 0 -120.5 61.5t-117 154.5t-82 200.5t-30.5 190.5q0 174 83.5 300.5t238.5 126.5q60 0 137 -23.5t113 -23.5q45 0 128 26.5t132 26.5q147 0 256 -133q-146 -123 -146 -262
q0 -90 49.5 -171.5t134.5 -111.5q-39 -120 -124 -240t-170 -120zM819 1343q0 -149 -73.5 -232t-190.5 -93q2 266 264 325z" />
    <glyph glyph-name="fi" unicode="&#xfb01;" 
d="M612 1327q48 0 133 -10v-182q-59 6 -123 6q-137 0 -188 -46t-51 -163h559v-746h176v-186h-1118v186h176v559h-176v187h176q0 192 118 293.5t318 101.5zM735 186v559h-352v-559h352z" />
    <glyph glyph-name="fl" unicode="&#xfb02;" 
d="M628 1141q-144 0 -194.5 -46t-50.5 -163h242v-187h-242v-559h352v949q-36 6 -107 6zM610 1327q198 0 332 -27v-1114h176v-186h-1118v186h176v559h-176v187h176q0 192 118 293.5t316 101.5z" />
  </font>
</defs>
</svg>
